<?xml version="1.0" encoding="UTF-8"?>
<svg version="1.1" xmlns="http://www.w3.org/2000/svg" width="512" height="512">
<path d="M0 0 C0.94372971 -0.00671722 1.88745941 -0.01343445 2.85978699 -0.02035522 C5.97583297 -0.03933371 9.09166351 -0.04325946 12.20776367 -0.04541016 C14.37863757 -0.0518385 16.54951061 -0.05856689 18.72038269 -0.06558228 C23.27064014 -0.0775549 27.82082166 -0.08126314 32.37109375 -0.08007812 C38.19173138 -0.07987501 44.01188034 -0.10716945 49.83240223 -0.14162254 C54.31664754 -0.16389932 58.80077544 -0.16791541 63.28507042 -0.16685867 C65.43040335 -0.16921375 67.57573955 -0.17803195 69.72101784 -0.19352341 C72.72711669 -0.21319731 75.73216418 -0.20733933 78.73828125 -0.1953125 C79.61803619 -0.20655151 80.49779114 -0.21779053 81.40420532 -0.22937012 C88.17831301 -0.16076718 93.37725311 1.59659117 98.58666992 6.00146484 C99.03268555 6.55060547 99.47870117 7.09974609 99.93823242 7.66552734 C100.63045898 8.48150391 100.63045898 8.48150391 101.33666992 9.31396484 C104.42879346 14.2968136 105.01313001 19.81696179 105.56323242 25.54052734 C105.64444336 26.31686523 105.7256543 27.09320312 105.80932617 27.89306641 C106.1539914 31.18992191 106.48288468 34.48830534 106.81323242 37.78662109 C107.05776358 40.20518712 107.31032214 42.62282548 107.56323242 45.04052734 C107.63413086 45.77819336 107.7050293 46.51585937 107.77807617 47.27587891 C108.22255532 51.51597608 108.92540139 55.34384319 110.56323242 59.29052734 C112.71724575 60.99319896 112.71724575 60.99319896 115.50073242 62.10302734 C116.5809668 62.60189453 117.66120117 63.10076172 118.77416992 63.61474609 C120.0366869 64.1744777 121.29974291 64.73299452 122.56323242 65.29052734 C139.98979907 73.08789153 156.25000337 82.02426689 170.70385742 94.62255859 C174.52946691 96.85416413 176.27229527 96.19786329 180.56323242 95.29052734 C183.08999223 94.31800984 185.48247778 93.31484744 187.92260742 92.16552734 C188.59366516 91.85856934 189.2647229 91.55161133 189.95611572 91.23535156 C192.07917945 90.26222142 194.19627657 89.27686374 196.31323242 88.29052734 C198.44561683 87.30686819 200.57914963 86.32575129 202.7131958 85.34570312 C204.03551439 84.73737351 205.35665445 84.12647388 206.67645264 83.51269531 C214.28590296 79.98703375 221.91913289 78.63447419 230.17260742 81.05615234 C239.83425644 85.78702876 244.65029153 96.88845281 249.62573242 105.91552734 C250.7610488 107.94886308 251.89781526 109.98138971 253.03588867 112.01318359 C253.61612793 113.04975098 254.19636719 114.08631836 254.79418945 115.15429688 C257.66807917 120.24924405 260.61126045 125.30302762 263.56323242 130.35302734 C264.1379126 131.337146 264.71259277 132.32126465 265.3046875 133.33520508 C268.2725528 138.40747353 271.25935459 143.46792334 274.26635742 148.51708984 C274.8619043 149.51861084 275.45745117 150.52013184 276.07104492 151.55200195 C277.20308085 153.45327026 278.33832099 155.3526357 279.47729492 157.24975586 C279.98518555 158.10239014 280.49307617 158.95502441 281.01635742 159.83349609 C281.46140625 160.57623779 281.90645508 161.31897949 282.36499023 162.08422852 C286.22731409 169.19584641 286.94414041 176.72982404 284.98120117 184.63427734 C280.82903726 194.18994224 270.38527785 199.98217458 262.15698242 205.75146484 C258.63955479 208.22167568 255.18577518 210.76982084 251.75073242 213.35302734 C250.77491211 214.08650391 249.7990918 214.81998047 248.79370117 215.57568359 C246.70794468 217.10261809 246.70794468 217.10261809 245.56323242 218.29052734 C245.62955117 220.37655337 245.76870207 222.46034412 245.93823242 224.54052734 C246.03749023 225.82443359 246.13674805 227.10833984 246.23901367 228.43115234 C246.43249649 230.73429727 246.63498513 233.03675556 246.85620117 235.33740234 C248.31194487 251.28728984 247.87486508 267.11946837 246.00073242 283.00537109 C244.80769108 290.00978838 244.80769108 290.00978838 247.11791992 296.26708984 C247.88362305 296.81107422 248.64932617 297.35505859 249.43823242 297.91552734 C250.34186523 298.57810547 251.24549805 299.24068359 252.17651367 299.92333984 C253.30498344 300.71302645 254.43393887 301.50201925 255.56323242 302.29052734 C258.589309 304.44989497 261.60773902 306.6198805 264.62573242 308.79052734 C265.41004639 309.35416992 266.19436035 309.9178125 267.00244141 310.49853516 C283.65405863 322.52655391 283.65405863 322.52655391 285.56323242 330.29052734 C287.1311453 344.02328149 280.959141 352.83909005 274.18823242 364.29052734 C272.94414984 366.40866874 271.70068189 368.52717124 270.45776367 370.64599609 C269.81790527 371.7357373 269.17804688 372.82547852 268.51879883 373.94824219 C265.27911249 379.48523419 262.07776051 385.04420154 258.87573242 390.60302734 C258.25085938 391.68551758 257.62598633 392.76800781 256.98217773 393.88330078 C254.08987357 398.89510974 251.20653696 403.91149694 248.34838867 408.94287109 C247.85363037 409.80936279 247.35887207 410.67585449 246.84912109 411.56860352 C245.94466921 413.15323327 245.04467704 414.74042177 244.15039062 416.33081055 C239.66887284 424.1611351 235.51191923 429.68672612 226.56323242 432.29052734 C217.24662789 433.48164078 210.36673587 431.12068522 202.06323242 427.10302734 C199.97001473 426.12922607 197.8762657 425.15656609 195.78198242 424.18505859 C194.7584668 423.70762207 193.73495117 423.23018555 192.68041992 422.73828125 C191.65174805 422.26052246 190.62307617 421.78276367 189.56323242 421.29052734 C188.49331055 420.79085449 187.42338867 420.29118164 186.32104492 419.77636719 C184.75483398 419.07761475 184.75483398 419.07761475 183.15698242 418.36474609 C182.22563477 417.94153076 181.29428711 417.51831543 180.3347168 417.08227539 C177.0091811 416.13224788 174.88843652 416.42890067 171.56323242 417.29052734 C169.24770792 418.75885655 169.24770792 418.75885655 167.12573242 420.72802734 C151.39624716 433.8437109 133.0502845 443.58692527 114.08276367 451.16943359 C111.4575378 452.15717107 111.4575378 452.15717107 109.56323242 454.29052734 C109.03885433 456.52537209 109.03885433 456.52537209 108.78198242 459.13818359 C108.66346924 460.12810303 108.54495605 461.11802246 108.42285156 462.13793945 C108.30417725 463.19891846 108.18550293 464.25989746 108.06323242 465.35302734 C107.93360107 466.43398682 107.80396973 467.51494629 107.67041016 468.62866211 C107.08677103 473.52985066 106.53929241 478.43202098 106.06713867 483.34521484 C104.31710434 501.16199211 104.31710434 501.16199211 97.12573242 507.72802734 C91.48341011 512.32305085 86.12857791 512.5882192 79.12646484 512.58105469 C77.71087029 512.59113052 77.71087029 512.59113052 76.26667786 512.60140991 C73.15063188 512.6203884 70.03480133 512.62431414 66.91870117 512.62646484 C64.74782727 512.63289319 62.57695424 512.63962158 60.40608215 512.64663696 C55.85582471 512.65860959 51.30564318 512.66231783 46.75537109 512.66113281 C40.93473346 512.6609297 35.1145845 512.68822414 29.29406261 512.72267723 C24.8098173 512.74495401 20.3256894 512.7489701 15.84139442 512.74791336 C13.6960615 512.75026843 11.55072529 512.75908663 9.40544701 512.77457809 C6.39934815 512.794252 3.39430067 512.78839402 0.38818359 512.77636719 C-0.49157135 512.7876062 -1.37132629 512.79884521 -2.27774048 512.8104248 C-9.05184817 512.74182187 -14.25078826 510.98446352 -19.46020508 506.57958984 C-20.12922852 505.75587891 -20.12922852 505.75587891 -20.81176758 504.91552734 C-21.27325195 504.37154297 -21.73473633 503.82755859 -22.21020508 503.26708984 C-25.30232861 498.28424109 -25.88666517 492.7640929 -26.43676758 487.04052734 C-26.51797852 486.26418945 -26.59918945 485.48785156 -26.68286133 484.68798828 C-27.02752656 481.39113278 -27.35641983 478.09274935 -27.68676758 474.79443359 C-27.93129874 472.37586757 -28.1838573 469.95822921 -28.43676758 467.54052734 C-28.50766602 466.80286133 -28.57856445 466.06519531 -28.65161133 465.30517578 C-29.09609048 461.06507861 -29.79893655 457.23721149 -31.43676758 453.29052734 C-33.59078091 451.58785573 -33.59078091 451.58785573 -36.37426758 450.47802734 C-37.45450195 449.97916016 -38.53473633 449.48029297 -39.64770508 448.96630859 C-40.91022206 448.40657699 -42.17327807 447.84806017 -43.43676758 447.29052734 C-60.86333422 439.49316315 -77.12353853 430.5567878 -91.57739258 417.95849609 C-95.40300206 415.72689056 -97.14583043 416.3831914 -101.43676758 417.29052734 C-103.96352739 418.26304485 -106.35601294 419.26620725 -108.79614258 420.41552734 C-109.80272919 420.87596436 -109.80272919 420.87596436 -110.82965088 421.34570312 C-112.9527146 422.31883326 -115.06981172 423.30419095 -117.18676758 424.29052734 C-119.31915198 425.2741865 -121.45268479 426.25530339 -123.58673096 427.23535156 C-124.90904955 427.84368118 -126.23018961 428.45458081 -127.54998779 429.06835938 C-135.05555201 432.54588773 -142.05676707 433.77990602 -150.20239258 431.52490234 C-160.58389745 427.00289716 -165.27803196 416.13855378 -170.49926758 406.66552734 C-171.63458396 404.63219161 -172.77135042 402.59966498 -173.90942383 400.56787109 C-174.77978271 399.01302002 -174.77978271 399.01302002 -175.66772461 397.42675781 C-178.54161432 392.33181063 -181.48479561 387.27802707 -184.43676758 382.22802734 C-185.01144775 381.24390869 -185.58612793 380.25979004 -186.17822266 379.24584961 C-189.14608795 374.17358116 -192.13288975 369.11313134 -195.13989258 364.06396484 C-195.73543945 363.06244385 -196.33098633 362.06092285 -196.94458008 361.02905273 C-198.07661601 359.12778443 -199.21185615 357.22841899 -200.35083008 355.33129883 C-200.8587207 354.47866455 -201.36661133 353.62603027 -201.88989258 352.74755859 C-202.55746582 351.63344604 -202.55746582 351.63344604 -203.23852539 350.49682617 C-207.10084924 343.38520827 -207.81767557 335.85123065 -205.85473633 327.94677734 C-201.96017154 318.9839433 -192.69565108 313.69252996 -184.99926758 308.29052734 C-184.26313232 307.76861816 -183.52699707 307.24670898 -182.76855469 306.70898438 C-179.58168608 304.45680296 -176.41117614 302.27485668 -173.08129883 300.23583984 C-170.30741352 298.41266558 -168.34132663 297.01200449 -166.43676758 294.29052734 C-165.80622203 289.45634482 -166.58997696 285.06146963 -167.43676758 280.29052734 C-169.30183836 263.32726454 -169.00946574 246.23224259 -166.87426758 229.32177734 C-166.24654559 223.81896694 -166.24654559 223.81896694 -166.43676758 218.29052734 C-168.20548619 215.92157076 -168.20548619 215.92157076 -170.87426758 214.10302734 C-171.87071289 213.34763672 -172.8671582 212.59224609 -173.89379883 211.81396484 C-178.65947955 208.39013095 -183.47556367 205.03623976 -188.28466797 201.67382812 C-204.46800534 190.29682713 -204.46800534 190.29682713 -206.43676758 182.29052734 C-208.00468045 168.5577732 -201.83267616 159.74196464 -195.06176758 148.29052734 C-193.817685 146.17238594 -192.57421705 144.05388345 -191.33129883 141.93505859 C-190.69144043 140.84531738 -190.05158203 139.75557617 -189.39233398 138.6328125 C-186.15264765 133.0958205 -182.95129567 127.53685315 -179.74926758 121.97802734 C-179.12439453 120.89553711 -178.49952148 119.81304687 -177.85571289 118.69775391 C-174.96340872 113.68594495 -172.08007211 108.66955775 -169.22192383 103.63818359 C-168.72716553 102.77169189 -168.23240723 101.9052002 -167.72265625 101.01245117 C-166.81820437 99.42782142 -165.91821219 97.84063292 -165.02392578 96.25024414 C-160.85427259 88.96482449 -156.74419095 82.89701582 -148.43676758 80.29052734 C-137.72637133 78.80419053 -129.48974939 82.16598487 -120.06176758 86.60302734 C-118.73596304 87.20618236 -117.40914138 87.80710673 -116.08129883 88.40576172 C-113.64032865 89.50921425 -111.2082506 90.62699242 -108.77905273 91.7565918 C-107.12462158 92.51588989 -107.12462158 92.51588989 -105.43676758 93.29052734 C-104.8200116 93.5758432 -104.20325562 93.86115906 -103.56781006 94.15512085 C-99.32127684 96.06226365 -96.94980719 96.7621707 -92.43676758 95.29052734 C-89.85557687 93.55930269 -89.85557687 93.55930269 -87.43676758 91.29052734 C-83.18647685 87.67807015 -78.88481184 84.33339195 -74.24926758 81.22802734 C-73.69174805 80.83421875 -73.13422852 80.44041016 -72.55981445 80.03466797 C-67.94471481 77.01023573 -64.76855367 76.7489742 -59.43676758 77.29052734 C-56.44579454 79.83285443 -55.59474201 81.44799705 -54.87426758 85.29052734 C-55.77413322 90.08981075 -59.2060356 92.40462042 -63.05786133 95.17724609 C-63.98727539 95.77150391 -64.91668945 96.36576172 -65.87426758 96.97802734 C-71.25549988 100.47449635 -76.47189602 104.14418197 -81.62792969 107.96508789 C-87.07369826 111.93248185 -91.60222135 113.94941782 -98.33520508 113.79052734 C-107.21865403 112.35843482 -115.66727036 107.57782087 -123.76879883 103.82177734 C-124.66034668 103.4117749 -125.55189453 103.00177246 -126.47045898 102.5793457 C-128.20627895 101.77722761 -129.93673496 100.96337143 -131.66088867 100.13647461 C-137.77226422 97.28694377 -137.77226422 97.28694377 -144.43676758 97.29052734 C-147.34394532 99.64414257 -148.92005745 102.6360383 -150.73754883 105.86474609 C-151.37789062 106.99517334 -152.01823242 108.12560059 -152.67797852 109.2902832 C-153.01535034 109.89097626 -153.35272217 110.49166931 -153.70031738 111.11056519 C-155.4894796 114.29583819 -157.294463 117.47214236 -159.09692383 120.64990234 C-159.6452034 121.61814186 -159.6452034 121.61814186 -160.20455933 122.60594177 C-163.64605273 128.67751685 -167.15892743 134.70625759 -170.68676758 140.72802734 C-171.81971581 142.67195866 -172.95252981 144.61596822 -174.08520508 146.56005859 C-176.36289112 150.46494916 -178.66362263 154.35521205 -180.97583008 158.23974609 C-182.08817141 160.13146027 -183.20016553 162.02337866 -184.31176758 163.91552734 C-184.83029297 164.77460693 -185.34881836 165.63368652 -185.88305664 166.51879883 C-189.46238632 172.49562587 -189.46238632 172.49562587 -189.43676758 179.29052734 C-187.7681918 181.39978268 -187.7681918 181.39978268 -185.31176758 183.04052734 C-184.40297852 183.71470703 -183.49418945 184.38888672 -182.55786133 185.08349609 C-181.52790039 185.81181641 -180.49793945 186.54013672 -179.43676758 187.29052734 C-178.28131862 188.11925629 -177.12638765 188.94870784 -175.97192383 189.77880859 C-173.57916697 191.49337302 -171.181245 193.20042749 -168.78051758 194.90380859 C-151.33379614 207.32275595 -151.33379614 207.32275595 -149.43676758 216.29052734 C-148.91419213 221.79424748 -149.51354198 227.19435433 -150.1574707 232.65893555 C-152.11219974 249.32710142 -151.84035208 265.55041408 -149.89379883 282.20068359 C-148.98624066 290.05007718 -148.43449695 297.20871732 -152.43676758 304.29052734 C-156.80950192 309.47029496 -162.04882761 313.38246635 -167.62426758 317.16552734 C-169.11873751 318.19926775 -170.61222033 319.2344366 -172.10473633 320.27099609 C-173.19987549 321.02968994 -173.19987549 321.02968994 -174.31713867 321.80371094 C-182.22287156 327.13764726 -182.22287156 327.13764726 -189.43676758 333.29052734 C-190.53933974 339.71873107 -186.95731908 344.36339719 -183.81176758 349.66552734 C-183.22637207 350.67574951 -182.64097656 351.68597168 -182.0378418 352.72680664 C-180.18282455 355.92188756 -178.3104402 359.10635846 -176.43676758 362.29052734 C-175.28452193 364.26769076 -174.13345209 366.24553996 -172.98364258 368.22412109 C-170.69049552 372.16744311 -168.3884415 376.10538003 -166.08129883 380.04052734 C-163.46913037 384.50503875 -160.88795259 388.98604976 -158.32348633 393.47802734 C-157.63652539 394.67882137 -156.94951411 395.8795866 -156.26245117 397.08032227 C-154.94390202 399.38498823 -153.63147887 401.69280538 -152.32202148 404.00268555 C-151.42942627 405.56249146 -151.42942627 405.56249146 -150.51879883 407.15380859 C-149.99519775 408.07460205 -149.47159668 408.99539551 -148.93212891 409.9440918 C-147.05159389 412.97130761 -147.05159389 412.97130761 -144.43676758 415.29052734 C-139.43808082 415.97370495 -135.70556798 414.41092762 -131.28051758 412.29833984 C-130.61515991 411.99233856 -129.94980225 411.68633728 -129.26428223 411.37106323 C-127.15000875 410.39647752 -125.04326548 409.4067921 -122.93676758 408.41552734 C-120.82905066 407.43430717 -118.71987882 406.45636155 -116.60925293 405.48141479 C-115.30054251 404.87576878 -113.99369464 404.26607553 -112.68908691 403.65164185 C-104.89004945 400.015272 -97.53860482 397.34229082 -89.02661133 400.06005859 C-83.29818303 402.69606706 -78.50741475 406.45521648 -73.59887695 410.35009766 C-61.60425433 419.76650186 -47.56444724 427.14087923 -33.49145508 432.94677734 C-32.86118408 433.20692627 -32.23091309 433.4670752 -31.58154297 433.73510742 C-29.86900945 434.42947644 -28.14730893 435.10111584 -26.42504883 435.77099609 C-20.97630154 438.54166628 -17.38089089 443.01140968 -14.43676758 448.29052734 C-11.80792983 457.82915601 -11.19264196 467.78984682 -10.18676758 477.60498047 C-9.94381366 479.95669845 -9.69085585 482.30717774 -9.43676758 484.65771484 C-9.36586914 485.37957977 -9.2949707 486.1014447 -9.22192383 486.84518433 C-8.83444331 490.38609562 -8.45327995 492.26575879 -6.43676758 495.29052734 C-2.66303088 496.87123399 1.62062451 496.43818293 5.64892578 496.43579102 C6.86670464 496.44082893 6.86670464 496.44082893 8.10908508 496.44596863 C10.79043105 496.45546068 13.47171446 496.45742078 16.15307617 496.45849609 C18.01868211 496.46170959 19.88428779 496.46507373 21.74989319 496.46858215 C25.65960271 496.47456884 29.56929013 496.4764225 33.47900391 496.47583008 C38.48709575 496.47572841 43.49504595 496.48938713 48.50310421 496.50660229 C52.35584666 496.51772345 56.20855486 496.51974926 60.06131172 496.51922035 C61.90767467 496.52040004 63.75403852 496.52482119 65.60038567 496.53255272 C68.18307283 496.54235608 70.76545235 496.53947334 73.34814453 496.53344727 C74.10934601 496.53906677 74.87054749 496.54468628 75.65481567 496.55047607 C79.69116097 496.52655908 83.03684148 496.35819647 86.56323242 494.29052734 C88.395799 489.00896918 88.98038488 483.67959186 89.49291992 478.13427734 C89.64989822 476.60166638 89.8074683 475.06911594 89.96557617 473.53662109 C90.20455724 471.16104129 90.43872607 468.78528003 90.66235352 466.40820312 C92.37651737 448.40762352 92.37651737 448.40762352 98.81323242 440.54052734 C104.00711011 436.29099106 110.3322766 433.92772347 116.46264648 431.29907227 C131.60247105 424.74893318 145.25654592 416.52145094 158.17553711 406.26196289 C164.08147548 401.63156278 169.83069433 398.48860961 177.53198242 398.75537109 C186.39604808 400.3202899 194.78622538 404.9997521 202.89526367 408.75927734 C203.78681152 409.16927979 204.67835938 409.57928223 205.59692383 410.00170898 C207.33274379 410.80382708 209.0631998 411.61768326 210.78735352 412.44458008 C216.89872906 415.29411092 216.89872906 415.29411092 223.56323242 415.29052734 C226.47041016 412.93691211 228.04652229 409.94501638 229.86401367 406.71630859 C230.50435547 405.58588135 231.14469727 404.4554541 231.80444336 403.29077148 C232.3105011 402.3897319 232.3105011 402.3897319 232.82678223 401.4704895 C234.61594445 398.2852165 236.42092784 395.10891233 238.22338867 391.93115234 C238.58890839 391.28565933 238.9544281 390.64016632 239.33102417 389.97511292 C242.77251757 383.90353784 246.28539227 377.8747971 249.81323242 371.85302734 C250.94618065 369.90909603 252.07899465 367.96508647 253.21166992 366.02099609 C255.48935596 362.11610552 257.79008748 358.22584264 260.10229492 354.34130859 C261.21463626 352.44959442 262.32663037 350.55767603 263.43823242 348.66552734 C263.95675781 347.80644775 264.4752832 346.94736816 265.00952148 346.06225586 C268.58885116 340.08542882 268.58885116 340.08542882 268.56323242 333.29052734 C266.89465665 331.18127201 266.89465665 331.18127201 264.43823242 329.54052734 C263.52944336 328.86634766 262.6206543 328.19216797 261.68432617 327.49755859 C260.65436523 326.76923828 259.6244043 326.04091797 258.56323242 325.29052734 C257.40778346 324.46179839 256.25285249 323.63234685 255.09838867 322.80224609 C252.70563181 321.08768167 250.30770985 319.3806272 247.90698242 317.67724609 C230.46026099 305.25829874 230.46026099 305.25829874 228.56323242 296.29052734 C228.04065697 290.7868072 228.64000683 285.38670035 229.28393555 279.92211914 C231.23866458 263.25395326 230.96681692 247.03064061 229.02026367 230.38037109 C228.11270551 222.5309775 227.56096179 215.37233737 231.56323242 208.29052734 C235.93596676 203.11075973 241.17529246 199.19858834 246.75073242 195.41552734 C248.24520235 194.38178694 249.73868517 193.34661809 251.23120117 192.31005859 C251.96129395 191.8042627 252.69138672 191.2984668 253.44360352 190.77734375 C261.34933641 185.44340742 261.34933641 185.44340742 268.56323242 179.29052734 C269.66580458 172.86232362 266.08378392 168.2176575 262.93823242 162.91552734 C262.35283691 161.90530518 261.76744141 160.89508301 261.16430664 159.85424805 C259.30928939 156.65916712 257.43690505 153.47469623 255.56323242 150.29052734 C254.41098677 148.31336392 253.25991693 146.33551473 252.11010742 144.35693359 C249.81696036 140.41361157 247.51490634 136.47567466 245.20776367 132.54052734 C242.59559522 128.07601594 240.01441743 123.59500493 237.44995117 119.10302734 C236.76299023 117.90223332 236.07597896 116.70146809 235.38891602 115.50073242 C234.07036687 113.19606646 232.75794371 110.88824931 231.44848633 108.57836914 C230.85342285 107.53849854 230.25835937 106.49862793 229.64526367 105.42724609 C229.1216626 104.50645264 228.59806152 103.58565918 228.05859375 102.63696289 C226.17805874 99.60974708 226.17805874 99.60974708 223.56323242 97.29052734 C218.56454567 96.60734974 214.83203282 98.17012707 210.40698242 100.28271484 C209.74162476 100.58871613 209.07626709 100.89471741 208.39074707 101.20999146 C206.27647359 102.18457717 204.16973032 103.17426259 202.06323242 104.16552734 C199.95551551 105.14674751 197.84634366 106.12469314 195.73571777 107.09963989 C194.42700735 107.70528591 193.12015948 108.31497916 191.81555176 108.92941284 C184.01651429 112.56578269 176.66506967 115.23876387 168.15307617 112.52099609 C162.42464788 109.88498763 157.63387959 106.12583821 152.7253418 102.23095703 C140.73071917 92.81455283 126.69091209 85.44017546 112.61791992 79.63427734 C111.98764893 79.37412842 111.35737793 79.11397949 110.70800781 78.84594727 C108.99547429 78.15157825 107.27377377 77.47993884 105.55151367 76.81005859 C100.10276638 74.0393884 96.50735573 69.56964501 93.56323242 64.29052734 C90.93439467 54.75189868 90.31910681 44.79120786 89.31323242 34.97607422 C89.07027851 32.62435624 88.8173207 30.27387694 88.56323242 27.92333984 C88.49233398 27.20147491 88.42143555 26.47960999 88.34838867 25.73587036 C87.96090815 22.19495907 87.57974479 20.3152959 85.56323242 17.29052734 C81.78949572 15.70982069 77.50584034 16.14287176 73.47753906 16.14526367 C72.25976021 16.14022575 72.25976021 16.14022575 71.01737976 16.13508606 C68.3360338 16.12559401 65.65475039 16.12363391 62.97338867 16.12255859 C61.10778274 16.1193451 59.24217706 16.11598096 57.37657166 16.11247253 C53.46686214 16.10648585 49.55717471 16.10463219 45.64746094 16.10522461 C40.6393691 16.10532627 35.63141889 16.09166755 30.62336063 16.0744524 C26.77061818 16.06333124 22.91790998 16.06130543 19.06515312 16.06183434 C17.21879017 16.06065465 15.37242632 16.0562335 13.52607918 16.04850197 C10.94339201 16.03869861 8.36101249 16.04158135 5.77832031 16.04760742 C5.01711884 16.04198792 4.25591736 16.03636841 3.47164917 16.03057861 C-0.56469612 16.05449561 -3.91037664 16.22285822 -7.43676758 18.29052734 C-9.26933415 23.57208551 -9.85392003 28.90146283 -10.36645508 34.44677734 C-10.52343337 35.97938831 -10.68100346 37.51193875 -10.83911133 39.04443359 C-11.0780924 41.42001339 -11.31226123 43.79577466 -11.53588867 46.17285156 C-13.25005252 64.17343116 -13.25005252 64.17343116 -19.68676758 72.04052734 C-25.77535128 77.02209583 -32.48471384 79.98807592 -40.43676758 79.29052734 C-42.87426758 77.79052734 -42.87426758 77.79052734 -44.43676758 75.29052734 C-45.04644153 72.48372651 -45.090924 70.09240089 -44.43676758 67.29052734 C-42.30727846 64.89485209 -40.30391916 63.67850721 -37.39379883 62.37646484 C-36.68610352 62.05935547 -35.9784082 61.74224609 -35.24926758 61.41552734 C-34.57508789 61.14998047 -33.9009082 60.88443359 -33.20629883 60.61083984 C-30.54194829 58.62286968 -30.31579987 56.46940346 -29.43676758 53.29052734 C-29.06027775 50.56452628 -28.74993068 47.8826919 -28.50708008 45.14599609 C-28.35000158 43.56587082 -28.19243407 41.98579409 -28.03442383 40.40576172 C-27.79597058 37.94460099 -27.56224098 35.4832177 -27.33764648 33.02075195 C-25.3698832 11.73177283 -25.3698832 11.73177283 -17.99926758 4.85302734 C-12.35694526 0.25800383 -7.00211307 -0.00716451 0 0 Z " fill="#000000" transform="translate(216.436767578125,-0.29052734375)"/>
<path d="M0 0 C4.41913686 4.01565483 8.58048265 8.29124028 12.75 12.5625 C13.85084377 13.67844384 14.95240323 14.79368213 16.0546875 15.90820312 C18.71140622 18.59744591 21.35839579 21.29591243 24 24 C27.9091231 22.41735677 30.26007668 19.89589414 33.1484375 16.87109375 C34.16489018 15.82440888 35.18183468 14.77820145 36.19921875 13.73242188 C37.77523808 12.10138003 39.347058 10.46689556 40.90966797 8.82299805 C57.33935043 -8.4094805 76.86168889 -18.74267522 101 -19.375 C121.32038468 -18.84268924 140.74386554 -11.59700133 155.62109375 2.4921875 C171.62765816 19.36610269 178.53786009 39.40662398 178.21484375 62.359375 C177.55326614 82.39572555 168.36019542 101.19115589 154 115 C136.97626164 129.86119552 116.44069531 136.24293881 94 135 C79.86069085 133.54270897 79.86069085 133.54270897 75.07421875 129.57421875 C73 127 73 127 72.375 124 C73.23063217 119.89296559 74.61878009 118.44598887 78 116 C82.13452065 115.43251677 85.66694178 116.11728129 89.6875 117 C107.05179228 120.64047757 122.84288947 115.54259754 137.5625 106.41015625 C150.15568427 97.46812089 157.44831621 83.20949915 160.4921875 68.375 C162.85477467 52.67288223 159.75645433 37.29369701 151 24 C150.49855469 23.22269531 149.99710937 22.44539063 149.48046875 21.64453125 C140.21562999 8.54752074 125.886417 1.42133448 110.46484375 -1.4921875 C95.38776588 -3.70190579 79.85770471 -0.21817748 67 8 C60.49196474 13.42442736 54.50018976 19.4311501 48.60546875 25.5078125 C48.07698334 26.05108688 47.54849792 26.59436127 47.0039978 27.15409851 C44.84410241 29.37727361 42.68556611 31.60101693 40.55004883 33.84765625 C38.9572924 35.51918189 37.34599137 37.17081982 35.73046875 38.8203125 C35.25739792 39.3274881 34.78432709 39.8346637 34.29692078 40.35720825 C31.76210039 42.91225673 29.93801836 44.01767733 26.4543457 45.01123047 C20.99553875 44.99348327 18.50656869 42.57377591 14.76123047 38.92480469 C13.54196076 37.67830011 12.3275418 36.42703823 11.1171875 35.171875 C9.77112351 33.80049637 8.42475953 32.42941214 7.078125 31.05859375 C4.98120608 28.91232981 2.88762266 26.76302956 0.79980469 24.60791016 C-9.02858037 14.4833208 -17.99707723 5.39174399 -31.8125 1.125 C-33.03582031 0.73570312 -34.25914062 0.34640625 -35.51953125 -0.0546875 C-51.61988168 -4.42762218 -67.25879854 -1.6839625 -81.8125 6.12890625 C-96.361913 14.66955432 -105.10307788 27.6060171 -109.8125 43.6875 C-113.36652999 59.49680582 -110.93813536 75.55135358 -102.61328125 89.515625 C-102.08089844 90.33546875 -101.54851562 91.1553125 -101 92 C-100.49855469 92.77859375 -99.99710938 93.5571875 -99.48046875 94.359375 C-90.20377606 107.4505715 -75.891393 114.57772543 -60.46484375 117.4921875 C-45.38776588 119.70190579 -29.85770471 116.21817748 -17 108 C-10.49196474 102.57557264 -4.50018976 96.5688499 1.39453125 90.4921875 C2.18725937 89.67727592 2.18725937 89.67727592 2.9960022 88.84590149 C5.15589759 86.62272639 7.31443389 84.39898307 9.44995117 82.15234375 C11.0427076 80.48081811 12.65400863 78.82918018 14.26953125 77.1796875 C14.9791375 76.4189241 14.9791375 76.4189241 15.70307922 75.64279175 C18.23789961 73.08774327 20.06198164 71.98232267 23.5456543 70.98876953 C30.55053121 71.01154318 34.54242877 76.2100961 39.234375 80.86328125 C39.91300598 81.53288376 40.59163696 82.20248627 41.29083252 82.89237976 C42.71889448 84.30597521 44.14419657 85.72236356 45.56689453 87.14135742 C47.74449062 89.30702081 49.94004673 91.45331974 52.13671875 93.59960938 C53.52458372 94.97801354 54.91134096 96.35753412 56.296875 97.73828125 C56.9541156 98.37598953 57.6113562 99.01369781 58.28851318 99.67073059 C61.83992385 103.25785182 63.98663733 105.68690879 64 111 C62.76356597 113.86332091 61.66847461 115.49288133 59.1875 117.375 C56.04804989 118.27198575 54.15789645 117.86403357 51 117 C48.77307586 115.19781734 46.90308029 113.4892977 44.9453125 111.43359375 C44.39890106 110.88010757 43.85248962 110.3266214 43.28952026 109.75636292 C41.55587272 107.99484247 39.84046939 106.21671019 38.125 104.4375 C36.94908099 103.2364891 35.77200922 102.03660573 34.59375 100.83789062 C31.71565201 97.90481773 28.85378607 94.95672508 26 92 C22.0908769 93.58264323 19.73992332 96.10410586 16.8515625 99.12890625 C15.83510982 100.17559112 14.81816532 101.22179855 13.80078125 102.26757812 C12.22476192 103.89861997 10.652942 105.53310444 9.09033203 107.17700195 C-7.33935043 124.4094805 -26.86168889 134.74267522 -51 135.375 C-71.32038468 134.84268924 -90.74386554 127.59700133 -105.62109375 113.5078125 C-121.60322327 96.65965626 -128.53714508 76.63375016 -128.21484375 53.7109375 C-127.55148788 33.46416269 -118.54915218 14.99054598 -104 1 C-73.96589137 -25.2188452 -30.32269924 -25.76289485 0 0 Z " fill="#000000" transform="translate(231,198)"/>
<path d="M0 0 C7.29965208 6.15028372 14.154493 12.85268235 20.95336914 19.54833984 C22.03615181 20.609273 23.1251659 21.66387961 24.2199707 22.71240234 C25.82936373 24.25484653 27.41812573 25.81614611 29.00390625 27.3828125 C29.94049072 28.29434082 30.8770752 29.20586914 31.84204102 30.14501953 C34.45089152 33.59652963 34.99969604 35.69043761 35 40 C33.06806581 44.66133189 29.26712584 48.05541574 25.75 51.5859375 C25.13664795 52.20594635 24.5232959 52.8259552 23.89135742 53.4647522 C22.59281079 54.77339873 21.29156032 56.07936714 19.98779297 57.3828125 C18.02367424 59.35127342 16.07609286 61.33511996 14.12890625 63.3203125 C2.23311144 75.32413202 -9.8922402 84.96150596 -27.5625 85.25 C-41.72644488 85.09339619 -52.48059719 80.01677871 -62.703125 70.4609375 C-72.14061316 60.34934304 -75.35190785 48.14796259 -75.2109375 34.62890625 C-74.50109269 22.41694641 -69.15991686 11.12268975 -60.203125 2.78125 C-42.46411127 -11.56093131 -18.79788114 -13.54034596 0 0 Z M-53.3125 19.875 C-58.63713903 27.5645332 -60.05194009 34.65345181 -59 44 C-56.99953209 52.61836805 -51.90893748 59.8693382 -44.43359375 64.63671875 C-36.14387149 68.94836267 -28.19109141 70.24799752 -19.0625 67.9375 C-8.97553759 64.51941091 -1.71951557 55.98342416 5.5625 48.5625 C6.93245117 47.17901367 6.93245117 47.17901367 8.33007812 45.76757812 C10.55806717 43.51625935 12.78121159 41.2603807 15 39 C12.73999815 33.66896887 8.40404343 30.03205855 4.37133789 26.00073242 C2.95596749 24.58102409 1.55694501 23.14507847 0.15820312 21.70898438 C-8.04000829 13.47591168 -15.92660815 7.66175343 -27.8125 6.6875 C-38.42780575 7.03655261 -46.75208057 11.67044597 -53.3125 19.875 Z " fill="#000000" transform="translate(208,218)"/>
<path d="M0 0 C10.45738997 8.83657245 16.31249279 19.82303704 17.81640625 33.51171875 C18.28210256 47.48260808 13.73320481 60.48623348 4.18359375 70.77734375 C-5.6579576 79.96857232 -18.12340522 84.41789558 -31.46875 84.23828125 C-52.17189147 82.82848347 -64.55108613 69.23562443 -78.51977539 55.47900391 C-79.60255806 54.41807075 -80.69157215 53.36346414 -81.78637695 52.31494141 C-83.39576998 50.77249722 -84.98453198 49.21119764 -86.5703125 47.64453125 C-87.50689697 46.73300293 -88.44348145 45.82147461 -89.40844727 44.88232422 C-92.01729777 41.43081412 -92.56610229 39.33690614 -92.56640625 35.02734375 C-90.63447206 30.36601186 -86.83353209 26.97192801 -83.31640625 23.44140625 C-82.39637817 22.51139297 -82.39637817 22.51139297 -81.45776367 21.56259155 C-80.15921704 20.25394502 -78.85796657 18.94797661 -77.55419922 17.64453125 C-75.59008049 15.67607033 -73.64249911 13.69222379 -71.6953125 11.70703125 C-51.80667771 -8.36205069 -25.11503947 -19.3045585 0 0 Z M-63.12890625 26.46484375 C-64.04220703 27.38716797 -64.95550781 28.30949219 -65.89648438 29.25976562 C-68.12447342 31.5110844 -70.34761784 33.76696305 -72.56640625 36.02734375 C-70.3064044 41.35837488 -65.97044968 44.9952852 -61.93774414 49.02661133 C-60.52237374 50.44631966 -59.12335126 51.88226528 -57.72460938 53.31835938 C-49.52639796 61.55143207 -41.6397981 67.36559032 -29.75390625 68.33984375 C-21.11618355 68.05581805 -13.80127678 64.96723116 -7.56640625 59.02734375 C-0.68977489 51.49579512 2.0944939 44.25646844 1.7734375 34.046875 C0.75191234 24.97056525 -3.72138607 17.95969457 -10.56640625 12.02734375 C-32.01361943 -1.65055933 -47.74435427 10.7868227 -63.12890625 26.46484375 Z " fill="#000000" transform="translate(361.56640625,218.97265625)"/>
<path d="M0 0 C3.89891492 1.26347816 6.5885889 3.94873516 9.61132812 6.64404297 C15.07043249 11.49979053 21.03021014 15.17893692 27.38671875 18.7734375 C28.30582031 19.30710937 29.22492188 19.84078125 30.171875 20.390625 C56.04581699 34.43751896 87.92157591 36.62660678 115.9453125 28.484375 C132.76207875 23.31952921 148.47243192 15.41571262 161.26171875 3.1484375 C164.27802821 0.85604231 165.02866555 0.3558556 168.57421875 0.1484375 C172.38671875 0.7734375 172.38671875 0.7734375 174.88671875 2.3359375 C176.9798349 5.73725125 176.9381956 7.84416493 176.38671875 11.7734375 C162.05294398 32.61951275 130.23598347 43.65436581 106.74755859 48.35205078 C71.7714681 54.59493932 35.47773587 46.07981348 6.31054688 26.15429688 C-7.31161854 16.37676292 -7.31161854 16.37676292 -9.61328125 11.7734375 C-9.96501977 7.97466151 -10.14029569 5.62983597 -8.11328125 2.3359375 C-5.38141051 0.62851829 -3.25016158 -0.1562 0 0 Z " fill="#000000" transform="translate(172.61328125,339.2265625)"/>
<path d="M0 0 C3.44477473 3.01840554 4.77894915 4.31763124 5.20825195 8.95410156 C4.89575195 12.57910156 4.89575195 12.57910156 3.39575195 15.01660156 C0.66388121 16.72402078 -1.46736772 17.50873906 -4.7175293 17.35253906 C-8.61644421 16.08906091 -11.3061182 13.40380391 -14.32885742 10.70849609 C-36.96157233 -9.42278239 -66.90979764 -16.85599628 -96.5090332 -15.58496094 C-121.77918996 -13.98744962 -147.66012381 -3.36730332 -165.97924805 14.20410156 C-168.99555751 16.49649675 -169.74619484 16.99668346 -173.29174805 17.20410156 C-177.10424805 16.57910156 -177.10424805 16.57910156 -179.60424805 15.01660156 C-181.6973642 11.61528782 -181.6557249 9.50837413 -181.10424805 5.57910156 C-166.77047328 -15.26697369 -134.95351277 -26.30182674 -111.46508789 -30.99951172 C-71.50877047 -38.13132184 -30.63578248 -26.11692603 0 0 Z " fill="#000000" transform="translate(344.104248046875,155.4208984375)"/>
</svg>
