<?xml version="1.0" encoding="UTF-8"?>
<svg version="1.1" xmlns="http://www.w3.org/2000/svg" width="512" height="512">
<path d="M0 0 C1.53878946 -0.00543158 3.07757371 -0.01256001 4.61634827 -0.02124023 C8.76526227 -0.03935523 12.91377494 -0.03245505 17.06269526 -0.01972389 C21.42393297 -0.00953263 25.78513838 -0.01900663 30.14637756 -0.02526855 C37.46874094 -0.03252801 44.79094249 -0.02300294 52.11328125 -0.00390625 C60.55273322 0.01785111 68.9917984 0.01081259 77.43124098 -0.01121187 C84.7038104 -0.02942432 91.97626409 -0.03189551 99.24884897 -0.0214572 C103.58071221 -0.0152532 107.91239427 -0.01430045 112.24424553 -0.02760315 C116.31976278 -0.0392463 120.39478656 -0.03098344 124.47025108 -0.00802612 C125.95682714 -0.00278347 127.44344547 -0.00417559 128.93000412 -0.01307678 C144.82598143 -0.09940721 156.47062092 3.95904914 168.18774414 14.83007812 C178.97175188 26.22450139 180.89203202 38.85219597 180.85766602 53.95043945 C180.86501887 55.48745841 180.87360861 57.02447187 180.8833313 58.56147766 C180.90542913 62.71043587 180.90848388 66.85919478 180.90658379 71.00820374 C180.90646353 74.48447204 180.91505011 77.96069895 180.9233613 81.43695563 C180.9425535 89.64558026 180.94549463 97.85410323 180.9387207 106.06274414 C180.93208431 114.50163067 180.95493763 122.94007963 180.99203444 131.37887746 C181.02282857 138.6505851 181.03408094 145.92215268 181.03019762 153.19392413 C181.02813998 157.52534516 181.03345557 161.85642554 181.05809021 166.18778419 C181.08051607 170.26498477 181.07834984 174.34147886 181.05816269 178.41868401 C181.05478031 179.90485316 181.05972048 181.39107138 181.07414627 182.87717438 C181.20638714 197.52454133 177.26591503 209.46972416 167.43774414 220.51757812 C155.03926572 232.15740839 141.12388999 234.98382747 124.51806641 234.90576172 C123.04824435 234.909836 121.57842535 234.91518265 120.10861206 234.92169189 C116.14776261 234.93527082 112.1871498 234.93010588 108.22629666 234.92055464 C104.06125373 234.91290736 99.89622973 234.92001775 95.73118591 234.92471313 C88.73839722 234.93015664 81.74570387 234.92301676 74.75292969 234.90869141 C66.69525299 234.89237398 58.63780418 234.89765245 50.58013302 234.91417062 C43.63453854 234.92783336 36.68901222 234.92968167 29.74340862 234.92185462 C25.60719159 234.91720348 21.47108126 234.91648195 17.33487129 234.92646408 C13.44328271 234.93520133 9.55198466 234.92899013 5.66042709 234.91178131 C4.24157503 234.90785195 2.82269805 234.90888871 1.40385628 234.91556931 C-14.47880774 234.9833937 -27.93238474 231.87504564 -39.87475586 220.83007812 C-51.55804655 208.19752007 -54.0289 194.13215551 -53.95043945 177.46850586 C-53.95451488 175.99691379 -53.95986215 174.52532478 -53.96636963 173.05374146 C-53.97993262 169.09301823 -53.974791 165.13253199 -53.96523237 161.17180514 C-53.95757956 157.00630019 -53.96469673 152.84081407 -53.96939087 148.67530823 C-53.97483157 141.68429969 -53.96770063 134.69338659 -53.95336914 127.70239258 C-53.93703946 119.64410715 -53.94234021 111.58604944 -53.95884836 103.52776951 C-53.97250382 96.58132124 -53.97436331 89.63494114 -53.96653235 82.68848377 C-53.96187889 78.55175458 -53.96116648 74.4151321 -53.97114182 70.27840996 C-53.97986887 66.3884526 -53.97368604 62.49878625 -53.95645905 58.60886002 C-53.95252488 57.18958708 -53.95357493 55.77028924 -53.96024704 54.35102654 C-54.02648454 38.81789244 -50.74072473 25.17860229 -39.85522461 13.61914062 C-28.13443194 2.87674462 -15.45187962 -0.09238421 0 0 Z M-15.31225586 36.76757812 C-19.20839516 41.52952616 -20.93656005 45.50356726 -20.94320679 51.66552734 C-20.95166626 52.87674255 -20.96012573 54.08795776 -20.96884155 55.33587646 C-20.96276886 56.65138489 -20.95669617 57.96689331 -20.95043945 59.32226562 C-20.95450788 60.73212083 -20.95985128 62.14197284 -20.96636963 63.55181885 C-20.98001698 67.37000637 -20.97475535 71.18795002 -20.96523237 75.00614166 C-20.95762235 79.00719344 -20.96468511 83.00822472 -20.96939087 87.00927734 C-20.97484452 93.72757709 -20.96766709 100.4457778 -20.95336914 107.1640625 C-20.93704334 114.9246737 -20.94233212 122.68504844 -20.95884836 130.44565392 C-20.97247439 137.1158977 -20.97437744 143.78607041 -20.96653235 150.45632362 C-20.96186196 154.43704732 -20.96121348 158.41765996 -20.97114182 162.39837646 C-20.97982551 166.14132473 -20.97376423 169.88396894 -20.95645905 173.62688446 C-20.95061802 175.65101202 -20.95949777 177.67516537 -20.96884155 179.69927979 C-20.96038208 180.910495 -20.95192261 182.12171021 -20.94320679 183.36962891 C-20.94207571 184.41821075 -20.94094463 185.4667926 -20.93977928 186.54714966 C-20.33165915 191.33195833 -18.39585688 195.34506066 -14.56225586 198.33007812 C-10.45206766 201.32709035 -7.7462208 201.64454737 -2.78852844 201.66474915 C-1.58432755 201.67190445 -0.38012665 201.67905975 0.86056519 201.68643188 C2.19708226 201.68927212 3.53359962 201.69198385 4.87011719 201.69458008 C6.27628243 201.70084597 7.68244601 201.70749288 9.08860779 201.7144928 C13.70888112 201.73552374 18.32915473 201.74589547 22.94946289 201.75585938 C24.54133433 201.75990754 26.13320559 201.76402448 27.72507668 201.76820946 C35.20552269 201.78726038 42.68595885 201.80149064 50.16642445 201.80982143 C58.79375756 201.81958863 67.42083373 201.84589489 76.04807633 201.88632232 C82.72082028 201.91651479 89.39349073 201.93129333 96.06630164 201.93460244 C100.04944594 201.93694971 104.03231573 201.94586748 108.01538658 201.97106361 C111.76570943 201.9944039 115.51557822 201.99855396 119.26595497 201.98830223 C121.28976972 201.98757354 123.31356171 202.00662359 125.33728027 202.02636719 C132.50918603 201.98549023 137.38810599 201.49285152 143.43774414 197.51757812 C148.10654945 192.01078212 148.55719167 186.66434884 148.57818604 179.65556335 C148.58389618 178.5075827 148.58960632 177.35960205 148.5954895 176.17683411 C148.59660736 174.93149399 148.59772522 173.68615387 148.59887695 172.40307617 C148.60351061 171.06705591 148.608536 169.73103697 148.61392212 168.39501953 C148.626994 164.7771178 148.63348067 161.15923457 148.63793278 157.54131293 C148.6408715 155.2774816 148.64497775 153.01365524 148.64943695 150.74982643 C148.66309717 143.65648921 148.67277145 136.56316346 148.67663884 129.469814 C148.68111833 121.30044815 148.69866726 113.13124971 148.72763944 104.96193475 C148.74929755 98.63390886 148.75934529 92.30592995 148.76067996 85.97786742 C148.76172489 82.2043788 148.767566 78.43104787 148.78549957 74.6575985 C148.80205235 71.10591055 148.80410117 67.55449765 148.79536057 64.00278473 C148.79423073 62.09013864 148.80789162 60.17750138 148.82211304 58.26490784 C148.7840125 47.45794759 148.7840125 47.45794759 144.16276932 37.93775463 C137.0697568 31.40904136 128.08427967 32.22974476 119.08618164 32.25878906 C117.73691622 32.25607566 116.38765227 32.25251278 115.03839111 32.24816895 C111.38965442 32.23908413 107.74103136 32.242573 104.09229279 32.24892712 C100.26522018 32.2540074 96.43815699 32.24929004 92.61108398 32.24615479 C86.18544781 32.24252104 79.75985769 32.24729869 73.33422852 32.25683594 C65.91618599 32.26771936 58.49825341 32.26419336 51.08021355 32.25318313 C44.69953918 32.24409337 38.31889782 32.24283322 31.93821907 32.24806046 C28.13243941 32.25117089 24.32671136 32.25161508 20.52093506 32.24498749 C16.94218576 32.23919005 13.36357758 32.24325457 9.78484344 32.254776 C7.85275972 32.25866146 5.92066399 32.25275741 3.98858643 32.246521 C-6.36617505 32.15379749 -6.36617505 32.15379749 -15.31225586 36.76757812 Z " fill="#000000" transform="translate(299.562255859375,31.482421875)"/>
<path d="M0 0 C1.00572556 -0.0049649 2.01145111 -0.00992981 3.0476532 -0.01504517 C6.3662485 -0.02961767 9.68479596 -0.03646139 13.00341797 -0.04199219 C15.32022095 -0.04774863 17.63702393 -0.0535063 19.9538269 -0.05926514 C24.8108543 -0.06976183 29.66786521 -0.0756129 34.52490234 -0.07910156 C40.72503209 -0.08457683 46.92494119 -0.10859003 53.12500191 -0.13707352 C57.91220723 -0.15577105 62.69936022 -0.16090933 67.48659897 -0.16243744 C69.77096637 -0.16544953 72.05533317 -0.17342881 74.33966446 -0.18662262 C92.93687324 -0.28635057 108.98804968 0.39506325 123.18310547 13.91113281 C133.31779647 24.65712263 137.34812841 35.77173705 137.25878906 50.41894531 C137.2666745 52.03564117 137.2666745 52.03564117 137.27471924 53.68499756 C137.28783511 57.2188603 137.27921077 60.75226613 137.26904297 64.28613281 C137.27106611 66.75895269 137.27397955 69.23177199 137.27774048 71.70458984 C137.28215246 76.87570909 137.27576892 82.04667239 137.26171875 87.21777344 C137.24462782 93.82830215 137.25447501 100.43846539 137.27243614 107.04898071 C137.2833043 112.15180183 137.27981369 117.25453706 137.27205276 122.35736084 C137.27005915 124.79408817 137.27248039 127.23082344 137.27949142 129.6675415 C137.28715572 133.0796763 137.27543155 136.49122861 137.25878906 139.90332031 C137.26486176 140.89893982 137.27093445 141.89455933 137.27719116 142.92034912 C137.1518552 156.87233015 131.77950515 167.78304968 122.31982422 177.86816406 C112.60849911 186.9599469 100.4372892 190.77938955 87.36328125 190.69458008 C86.27064972 190.70319565 85.17801819 190.71181122 84.05227661 190.72068787 C80.47324304 190.74322024 76.89500069 190.73663144 73.31591797 190.72753906 C70.80687226 190.7327806 68.29782852 190.73905901 65.78878784 190.74632263 C60.54206028 190.75670368 55.29553478 190.75253253 50.04882812 190.73754883 C44.68337908 190.7225113 39.31851855 190.72953269 33.953125 190.75805664 C27.44343361 190.79225861 20.93420523 190.80168163 14.42443466 190.79127312 C11.95668471 190.79045744 9.48891926 190.79724675 7.02121353 190.81204414 C-11.18751166 190.9044987 -24.92667726 189.77059654 -39.12939453 177.16113281 C-49.73008813 166.03843537 -53.44327855 153.5384687 -53.40405273 138.50756836 C-53.40916367 137.48189758 -53.4142746 136.45622681 -53.41954041 135.3994751 C-53.43336127 132.03220673 -53.43248512 128.6651448 -53.43017578 125.29785156 C-53.43406713 122.94049505 -53.4384027 120.58313923 -53.44316101 118.2257843 C-53.45060733 113.29250818 -53.45034366 108.35930365 -53.44506836 103.42602539 C-53.4392792 97.12843673 -53.4561994 90.83114271 -53.47941303 84.53360271 C-53.49420149 79.66661386 -53.49501506 74.7996951 -53.49190331 69.93268776 C-53.49241405 67.61204254 -53.49760513 65.29139314 -53.50771523 62.97076988 C-53.57957734 44.16836226 -52.94641057 28.29853248 -39.31689453 13.78613281 C-27.93345285 3.21579411 -15.12893733 0.01796469 0 0 Z M-17.56689453 39.72363281 C-19.65207836 42.97651959 -20.25423755 45.48025353 -20.27656555 49.26445007 C-20.28372086 50.09842819 -20.29087616 50.93240631 -20.29824829 51.79165649 C-20.30093719 52.70337616 -20.3036261 53.61509583 -20.30639648 54.55444336 C-20.31296768 55.51738815 -20.31953888 56.48033295 -20.3263092 57.47245789 C-20.34604457 60.66425656 -20.35770615 63.85600815 -20.36767578 67.04785156 C-20.37175131 68.13837137 -20.37582684 69.22889118 -20.38002586 70.35245705 C-20.40088887 76.12583858 -20.4151889 81.89919634 -20.42456055 87.67260742 C-20.4356178 93.63003223 -20.4700095 99.58708279 -20.50973225 105.54437542 C-20.53590516 110.12983383 -20.54425307 114.71520322 -20.54784203 119.30072975 C-20.55270719 121.49631079 -20.56431912 123.69188788 -20.58288002 125.88739586 C-20.60728232 128.96551331 -20.60630401 132.04266461 -20.59936523 135.12084961 C-20.61217529 136.02244812 -20.62498535 136.92404663 -20.63818359 137.85296631 C-20.59015024 143.71947954 -19.53634517 148.2974683 -16.12939453 153.16113281 C-9.83772012 158.38188392 -3.86752158 158.31198029 3.92431641 158.32226562 C4.82742554 158.32723053 5.73053467 158.33219543 6.66101074 158.33731079 C9.64234181 158.3518895 12.62361965 158.35872752 15.60498047 158.36425781 C17.68377686 158.3700131 19.76257325 158.37577078 21.84136963 158.38153076 C26.19909919 158.39202876 30.55681036 158.39787919 34.91455078 158.40136719 C40.48389099 158.40684722 46.05298615 158.43086999 51.6222496 158.45933914 C55.91693825 158.47801242 60.21156844 158.48317364 64.50629425 158.48470306 C66.55869129 158.48771988 68.61108754 158.49571541 70.66344452 158.50888824 C73.54225522 158.52604571 76.42047457 158.52404478 79.29931641 158.51757812 C80.13807312 158.52679291 80.97682983 158.53600769 81.84100342 158.54550171 C87.90925374 158.50304975 94.78358964 157.9100153 99.50118637 153.70915604 C102.53747451 150.1382897 103.99150432 147.66102486 104.01777649 143.05072021 C104.02493179 142.18998398 104.0320871 141.32924774 104.03945923 140.44242859 C104.04214813 139.49591934 104.04483704 138.5494101 104.04760742 137.57421875 C104.05417862 136.57894669 104.06074982 135.58367462 104.06752014 134.5582428 C104.08728236 131.2539971 104.09892251 127.94979691 104.10888672 124.64550781 C104.11296225 123.51847694 104.11703777 122.39144608 104.1212368 121.23026276 C104.14211042 115.26467572 104.15640632 109.29911177 104.16577148 103.33349609 C104.17683612 97.16846585 104.21123331 91.00379653 104.25094318 84.83889389 C104.27707809 80.1016777 104.28546058 75.36454788 104.28905296 70.62726593 C104.29392731 68.3546734 104.30556528 66.08208493 104.32409096 63.80956268 C104.34841429 60.6279587 104.34752943 57.44729332 104.34057617 54.265625 C104.35338623 53.32721268 104.36619629 52.38880035 104.37939453 51.42195129 C104.33480144 45.82187999 103.62838963 42.59298396 99.87060547 38.16113281 C95.96293662 34.63469995 93.0675946 33.04533073 87.80525208 33.01396179 C86.97968811 33.00680649 86.15412415 32.99965118 85.30354309 32.99227905 C84.40117416 32.98959015 83.49880524 32.98690125 82.5690918 32.98413086 C81.61590057 32.97755966 80.66270935 32.97098846 79.68063354 32.96421814 C76.52130048 32.94448351 73.36201498 32.93282133 70.20263672 32.92285156 C69.12314947 32.91877604 68.04366222 32.91470051 66.93146324 32.91050148 C61.21643642 32.88963874 55.50143362 32.87533862 49.78637695 32.8659668 C43.88948456 32.85490987 37.99297029 32.82051849 32.09621143 32.7807951 C27.5570761 32.75462074 23.01803068 32.74627414 18.47882652 32.74268532 C16.30557391 32.73782049 14.13232528 32.72620951 11.9591465 32.70764732 C8.91215906 32.68324202 5.86614751 32.68422386 2.8190918 32.69116211 C1.48072014 32.67194702 1.48072014 32.67194702 0.11531067 32.65234375 C-7.06477468 32.71172137 -12.5460123 34.44526944 -17.56689453 39.72363281 Z " fill="#000000" transform="translate(299.12939453125,289.8388671875)"/>
<path d="M0 0 C1.38102402 -0.01073296 1.38102402 -0.01073296 2.78994751 -0.02168274 C3.7930748 -0.02437164 4.79620209 -0.02706055 5.82972717 -0.02983093 C6.89207581 -0.03640213 7.95442444 -0.04297333 9.04896545 -0.04974365 C12.56841607 -0.06946819 16.08782393 -0.08114028 19.60731506 -0.09111023 C20.81203524 -0.09518576 22.01675541 -0.09926128 23.25798225 -0.10346031 C29.64013116 -0.12432202 36.02225858 -0.13862075 42.4044342 -0.147995 C48.97451111 -0.15903187 55.54424676 -0.19340046 62.11420345 -0.23316669 C67.18368121 -0.25940793 72.25307879 -0.26769374 77.32261848 -0.27127647 C79.74293371 -0.2761266 82.16324572 -0.28769525 84.58349419 -0.30631447 C101.69924662 -0.4297546 115.65467374 -0.30099362 129.39247131 11.14717102 C130.10145569 11.72080383 130.81044006 12.29443665 131.54090881 12.88545227 C140.40724706 20.81759779 145.680319 32.80235812 146.57987404 44.60625648 C146.65732644 47.27839573 146.67424603 49.94389152 146.66712952 52.61714172 C146.67224045 53.62330536 146.67735138 54.62946899 146.68261719 55.66612244 C146.69643496 58.96846079 146.69556213 62.27058857 146.69325256 65.57295227 C146.69714409 67.88546831 146.7014797 70.19798363 146.70623779 72.51049805 C146.71368346 77.34961772 146.71342093 82.18866441 146.70814514 87.02778625 C146.70235618 93.20430884 146.71927602 99.38053101 146.74248981 105.55700397 C146.75728035 110.33134687 146.75809156 115.10561833 146.75498009 119.87998009 C146.75549074 122.15596804 146.76067989 124.43196025 146.77079201 126.7079258 C146.8458915 145.97537049 145.83589356 162.11288274 131.91590881 176.81904602 C125.39475871 182.83546314 118.01372069 187.03252495 109.39247131 189.14717102 C108.73480774 189.31899399 108.07714417 189.49081696 107.39955139 189.66784668 C103.00404609 190.36848405 98.65344739 190.31175154 94.20887756 190.32417297 C93.18539719 190.33074417 92.16191681 190.33731537 91.10742188 190.34408569 C87.72327087 190.36377949 84.33916425 190.37547476 80.95497131 190.38545227 C79.79529846 190.3895278 78.63562561 190.39360332 77.44081116 190.39780235 C71.29856038 190.41864984 65.15633183 190.43295536 59.01405334 190.44233704 C52.69398292 190.45337779 46.37426685 190.48775497 40.05432129 190.52750874 C35.17442709 190.55375588 30.29461615 190.56203624 25.41465759 190.56561852 C23.08644731 190.57046622 20.75824029 190.58202784 18.43009949 190.60065651 C-0.15356874 190.74007094 -16.36120908 189.40772811 -30.69346619 176.21748352 C-40.02914741 166.11970587 -44.23397008 154.17620933 -44.12510681 140.60810852 C-44.13211609 139.5122644 -44.13912537 138.41642029 -44.14634705 137.28736877 C-44.16381747 133.69870456 -44.15234265 130.11084195 -44.13877869 126.52217102 C-44.14147673 124.00833486 -44.14536174 121.49449972 -44.15037537 118.98066711 C-44.1562556 113.7255398 -44.14814204 108.47061725 -44.12901306 103.2155304 C-44.10724967 97.1674431 -44.11430316 91.11989545 -44.13631868 85.07182121 C-44.15676136 79.21823414 -44.15446626 73.36484971 -44.14279175 67.51124573 C-44.14013541 65.03626936 -44.14335545 62.56127909 -44.15270996 60.08631897 C-44.16294044 56.61925994 -44.14728246 53.15321742 -44.12510681 49.68623352 C-44.13320374 48.67707886 -44.14130066 47.66792419 -44.14964294 46.62818909 C-44.00359584 34.21809722 -38.81937075 22.4762298 -30.35752869 13.39717102 C-22.32917176 5.88277072 -11.14853672 0.05970456 0 0 Z M-8.92002869 40.08467102 C-11.96233631 45.60589597 -11.75611466 50.9737201 -11.75279236 57.12495422 C-11.75615097 58.01991608 -11.75950958 58.91487793 -11.76296997 59.83695984 C-11.77245559 62.79063817 -11.77442194 65.74425966 -11.77549744 68.69795227 C-11.77871188 70.75672428 -11.78207609 72.81549605 -11.7855835 74.87426758 C-11.79156893 79.18911773 -11.79342402 83.50394787 -11.79283142 87.81880188 C-11.79272988 93.33662039 -11.80637661 98.85430999 -11.82360363 104.37209797 C-11.83474521 108.62471094 -11.83674996 112.87729298 -11.83622169 117.12991905 C-11.83739876 119.1635959 -11.84180517 121.19727362 -11.84955406 123.23093605 C-11.85939666 126.08111614 -11.85645897 128.93101928 -11.85044861 131.78120422 C-11.85606812 132.61420547 -11.86168762 133.44720673 -11.86747742 134.30545044 C-11.83330318 140.71166321 -11.49138381 146.79235212 -7.35752869 151.95967102 C-1.22856682 156.83498159 3.56234042 157.58903184 11.14222717 157.55122375 C12.58971092 157.56151863 12.58971092 157.56151863 14.06643677 157.57202148 C17.24688047 157.59027829 20.42683035 157.58645349 23.60731506 157.58076477 C25.82399658 157.58532708 28.04067669 157.5906328 30.25735474 157.59664917 C34.90002697 157.60557808 39.54252717 157.60315952 44.18519592 157.59321594 C50.1281153 157.58172644 56.07044049 157.60193906 62.01328182 157.63113308 C66.59014646 157.64949872 71.16686881 157.64920185 75.74376106 157.64349556 C77.93456925 157.64334239 80.12538712 157.64938294 82.3161602 157.66178703 C85.38225723 157.67670172 88.44725768 157.66601581 91.51332092 157.64888 C92.41380157 157.65854797 93.31428223 157.66821594 94.24205017 157.67817688 C100.12479262 157.60949935 103.57454618 156.5806876 108.39247131 153.14717102 C111.6949277 148.88874042 113.510625 145.45935781 113.53291321 140.06835938 C113.53862335 139.23990509 113.5443335 138.41145081 113.55021667 137.55789185 C113.55133453 136.65238083 113.55245239 135.74686981 113.55360413 134.81391907 C113.55856903 133.85751526 113.56353394 132.90111145 113.56864929 131.91572571 C113.58327301 128.74677311 113.59007336 125.57787059 113.59559631 122.40888977 C113.60134769 120.20794676 113.60710543 118.00700377 113.61286926 115.80606079 C113.62337991 111.18839789 113.62922213 106.57075241 113.63270569 101.95307922 C113.63818983 96.0381234 113.66221605 90.12339783 113.69067764 84.20851421 C113.70930788 79.66088185 113.71450984 75.11330489 113.71604156 70.56563759 C113.71906785 68.3851629 113.72709556 66.20468919 113.74022675 64.02425194 C113.75729463 60.97219233 113.75540499 57.92069463 113.74891663 54.86860657 C113.75813141 53.96916824 113.76734619 53.06972992 113.77684021 52.14303589 C113.73832576 46.35521321 112.97520144 41.91391246 108.85731506 37.50263977 C104.04417253 33.8205122 104.04417253 33.8205122 98.28205872 33 C97.42132248 32.9928447 96.56058624 32.98568939 95.67376709 32.97831726 C94.25400322 32.97428391 94.25400322 32.97428391 92.80555725 32.97016907 C91.81028519 32.96359787 90.81501312 32.95702667 89.7895813 32.95025635 C86.4853356 32.93049413 83.18113541 32.91885398 79.87684631 32.90888977 C78.74981544 32.90481424 77.62278458 32.90073872 76.46160126 32.89653969 C70.49601422 32.87566607 64.53045028 32.86137017 58.56483459 32.852005 C52.39980435 32.84094037 46.23513503 32.80654318 40.07023239 32.76683331 C35.3330162 32.7406984 30.59588638 32.7323159 25.85860443 32.72872353 C23.5860119 32.72384918 21.31342343 32.71221121 19.04090118 32.69368553 C15.8592972 32.6693622 12.67863182 32.67024706 9.4969635 32.67720032 C8.55855118 32.66439026 7.62013885 32.6515802 6.65328979 32.63838196 C-0.41729209 32.69468466 -4.41438038 34.36127992 -8.92002869 40.08467102 Z " fill="#000000" transform="translate(75.60752868652344,75.85282897949219)"/>
<path d="M0 0 C1.50924545 -0.0076664 1.50924545 -0.0076664 3.04898071 -0.01548767 C6.35131907 -0.02930545 9.65344685 -0.02843261 12.95581055 -0.02612305 C15.26832658 -0.03001457 17.58084191 -0.03435018 19.89335632 -0.03910828 C24.73247599 -0.04655394 29.57152269 -0.04629142 34.41064453 -0.04101562 C40.58716712 -0.03522666 46.76338928 -0.05214651 52.93986225 -0.0753603 C57.71420515 -0.09015084 62.48847661 -0.09096204 67.26283836 -0.08785057 C69.53882631 -0.08836122 71.81481853 -0.09355037 74.09078407 -0.10366249 C93.35822877 -0.17876198 109.49574101 0.83123596 124.2019043 14.7512207 C134.67109322 26.09869729 137.67333743 38.39302314 137.69116211 53.40405273 C137.69612701 54.40977829 137.70109192 55.41550385 137.70620728 56.45170593 C137.72077978 59.77030123 137.7276235 63.0888487 137.7331543 66.4074707 C137.73891074 68.72427368 137.7446684 71.04107666 137.75042725 73.35787964 C137.76092394 78.21490703 137.76677501 83.07191794 137.77026367 87.92895508 C137.77573894 94.12908482 137.79975214 100.32899393 137.82823563 106.52905464 C137.84693316 111.31625997 137.85207144 116.10341296 137.85359955 120.8906517 C137.85661164 123.17501911 137.86459092 125.45938591 137.87778473 127.74371719 C137.97465571 145.80816007 136.83371443 159.17500272 126.3425293 174.4621582 C117.63925204 183.16543546 106.48937223 190.35542176 93.83984375 190.42182922 C92.9008876 190.42898453 91.96193146 190.43613983 90.99452209 190.44351196 C89.97112228 190.44620087 88.94772247 190.44888977 87.89331055 190.45166016 C86.80984848 190.45823135 85.72638641 190.46480255 84.61009216 190.47157288 C81.02090382 190.49129726 77.43175737 190.50296876 73.8425293 190.51293945 C72.61449585 190.51701498 71.3864624 190.52109051 70.12121582 190.52528954 C64.28742291 190.54399991 58.45364638 190.55856353 52.61982918 190.5669015 C46.57789693 190.57568181 40.53621696 190.59491619 34.49438477 190.63134766 C27.99934047 190.66988246 21.50452337 190.6885992 15.0093689 190.6931057 C12.54077915 190.69796019 10.07219265 190.70954144 7.60366821 190.72814369 C4.13614948 190.75264272 0.66948412 190.75154965 -2.7980957 190.74462891 C-3.80530167 190.75743896 -4.81250763 190.77024902 -5.85023499 190.78344727 C-19.59403462 190.68419301 -30.28494747 185.17977276 -40.2199707 175.9621582 C-49.69427302 165.95157462 -52.93465553 154.45027558 -52.87402344 140.95678711 C-52.88088669 139.87244888 -52.88774994 138.78811066 -52.89482117 137.6709137 C-52.91300556 134.1142132 -52.90926323 130.55795737 -52.90356445 127.0012207 C-52.90813043 124.51077126 -52.91343724 122.02032308 -52.91944885 119.52987671 C-52.92836373 114.3200772 -52.92597541 109.11043111 -52.91601562 103.90063477 C-52.90453169 97.24757264 -52.9247372 90.59524681 -52.95393276 83.9422245 C-52.97234152 78.8015714 -52.97199287 73.66104448 -52.96629524 68.52036667 C-52.96614258 66.06853872 -52.97214081 63.61670191 -52.98458672 61.16490555 C-52.99958189 57.72671112 -52.98875601 54.289484 -52.97167969 50.85131836 C-52.98134766 49.85353867 -52.99101563 48.85575897 -53.00097656 47.82774353 C-52.88436582 36.52915947 -49.22040986 27.2319717 -42.4699707 18.2746582 C-41.6037207 16.9752832 -41.6037207 16.9752832 -40.7199707 15.6496582 C-29.71690839 4.03531465 -15.51087888 -0.04129185 0 0 Z M-18.4699707 41.2746582 C-20.30428338 47.1433277 -20.76296565 52.4581547 -20.74462891 58.57714844 C-20.74973984 59.47094208 -20.75485077 60.36473572 -20.76011658 61.28561401 C-20.77393178 64.21822953 -20.77306203 67.15060792 -20.77075195 70.08325195 C-20.77464305 72.13534125 -20.77897857 74.18742974 -20.78373718 76.23951721 C-20.79118185 80.53226334 -20.79092064 84.8249272 -20.78564453 89.11767578 C-20.77984944 94.60287842 -20.79679055 100.08774344 -20.8199892 105.57289028 C-20.83476107 109.80839487 -20.83559359 114.04381877 -20.83247948 118.27934456 C-20.83299086 120.30103283 -20.83819399 122.32272584 -20.8482914 124.34438896 C-20.86070685 127.17740356 -20.85383381 130.00976828 -20.84228516 132.84277344 C-20.84992889 133.66746628 -20.85757263 134.49215912 -20.865448 135.34184265 C-20.8113179 141.38684962 -20.09220831 147.9925748 -16.19505787 152.87038326 C-10.19723113 158.32615144 -2.93441023 158.572152 4.71899414 158.54931641 C5.61264175 158.55442734 6.50628937 158.55953827 7.42701721 158.56480408 C10.36506958 158.57864163 13.30288582 158.57774763 16.2409668 158.57543945 C18.29448533 158.57932972 20.34800307 158.58366507 22.40151978 158.58842468 C26.70024222 158.59587445 30.99888252 158.59560471 35.29760742 158.59033203 C40.79068578 158.58454054 46.28342661 158.60146687 51.7764492 158.6246767 C56.01624499 158.63944994 60.25596017 158.64028083 64.49577713 158.63716698 C66.52025648 158.63767843 68.54474055 158.64288294 70.56919479 158.6529789 C73.40710771 158.66539504 76.24437189 158.65852057 79.08227539 158.64697266 C79.90853928 158.65461639 80.73480316 158.66226013 81.58610535 158.6701355 C88.00207425 158.61278941 94.54623582 157.65304431 99.6862793 153.5559082 C100.35143555 152.67418945 100.35143555 152.67418945 101.0300293 151.7746582 C101.4940918 151.1868457 101.9581543 150.5990332 102.4362793 149.9934082 C104.28686436 147.08534597 104.65719127 144.56595128 104.67720032 141.20930481 C104.68435562 140.38374084 104.69151093 139.55817688 104.69888306 138.70759583 C104.70157196 137.8052269 104.70426086 136.90285797 104.70703125 135.97314453 C104.71360245 135.01995331 104.72017365 134.06676208 104.72694397 133.08468628 C104.7466786 129.92535321 104.75834078 126.76606772 104.76831055 123.60668945 C104.77238607 122.52720221 104.7764616 121.44771496 104.78066063 120.33551598 C104.80152337 114.62048916 104.81582349 108.90548636 104.82519531 103.19042969 C104.83625224 97.29353729 104.87064362 91.39702302 104.91036701 85.50026417 C104.93654137 80.96112883 104.94488797 76.42208342 104.94847679 71.88287926 C104.95334162 69.70962664 104.9649526 67.53637802 104.98351479 65.36319923 C105.00792009 62.3162118 105.00693825 59.27020024 105 56.22314453 C105.01281006 55.33089676 105.02562012 54.43864899 105.03881836 53.5193634 C104.99060839 47.68969824 103.93754567 43.09733179 100.5300293 38.2746582 C96.31513175 34.91994383 92.83167971 33.15646095 87.45121765 33.13421631 C86.20853622 33.12565109 86.20853622 33.12565109 84.94075012 33.11691284 C83.5824836 33.11523605 83.5824836 33.11523605 82.19677734 33.11352539 C81.24037354 33.10856049 80.28396973 33.10359558 79.29858398 33.09848022 C76.12963139 33.08385651 72.96072886 33.07705615 69.79174805 33.0715332 C67.59080504 33.06578183 65.38986204 33.06002409 63.18891907 33.05426025 C58.57125617 33.0437496 53.95361068 33.03790738 49.3359375 33.03442383 C43.42098167 33.02893968 37.50625611 33.00491346 31.59137249 32.97645187 C27.04374012 32.95782163 22.49616317 32.95261968 17.94849586 32.95108795 C15.76802118 32.94806166 13.58754746 32.94003396 11.40711021 32.92690277 C8.35505061 32.90983489 5.3035529 32.91172453 2.25146484 32.91821289 C0.90230736 32.90439072 0.90230736 32.90439072 -0.47410583 32.89028931 C-8.1940834 32.94166107 -13.5163895 35.08268169 -18.4699707 41.2746582 Z " fill="#000000" transform="translate(84.469970703125,289.725341796875)"/>
</svg>
