<?xml version="1.0" encoding="UTF-8"?>
<svg version="1.1" xmlns="http://www.w3.org/2000/svg" width="512" height="512">
<path d="M0 0 C41.57844198 -0.69845209 80.72261673 14.01265939 111.390625 42.12109375 C111.92929199 42.61448242 112.46795898 43.10787109 113.02294922 43.61621094 C142.96125496 71.43066537 160.19510068 110.64492583 162.25439453 151.30493164 C162.50164092 158.13825917 162.21443939 164.92425157 161.7421875 171.7421875 C161.69698975 172.44110107 161.65179199 173.14001465 161.60522461 173.86010742 C161.390625 176.12109375 161.390625 176.12109375 160.92797852 178.7043457 C159.64867793 186.83502769 161.91690574 191.51764273 166.078125 198.43359375 C167.2803114 200.53494834 168.48212557 202.63651592 169.68359375 204.73828125 C170.30024902 205.79499023 170.9169043 206.85169922 171.55224609 207.94042969 C174.43320367 212.92490715 177.15587102 217.9929304 179.890625 223.05859375 C180.83724051 224.79758391 181.78509779 226.53589887 182.734375 228.2734375 C183.17330078 229.08006836 183.61222656 229.88669922 184.06445312 230.71777344 C184.96923728 232.35744488 185.89059692 233.98805187 186.82617188 235.61035156 C187.50776367 236.79709473 187.50776367 236.79709473 188.203125 238.0078125 C188.61175781 238.70737061 189.02039063 239.40692871 189.44140625 240.12768555 C190.92797351 243.24955327 190.92934829 245.75407317 190.390625 249.12109375 C187.90386587 252.62503507 183.97238266 253.61736126 180.08984375 255.01171875 C178.6227749 255.56177516 177.15598668 256.1125805 175.68945312 256.6640625 C173.38855058 257.51940386 171.08584199 258.36830112 168.77758789 259.20361328 C156.88801367 263.27253918 156.88801367 263.27253918 148.390625 272.12109375 C147.3559391 275.22515146 147.2540656 277.40347375 147.23291016 280.65893555 C147.22264801 281.79409103 147.21238586 282.92924652 147.20181274 284.09880066 C147.19451141 285.32689957 147.18721008 286.55499847 147.1796875 287.8203125 C147.1516126 290.41732394 147.12294809 293.01432907 147.09375 295.61132812 C147.05139387 299.70821743 147.01460633 303.80506826 146.98925781 307.90209961 C146.96415192 311.85421757 146.91570749 315.80591125 146.8671875 319.7578125 C146.86393463 320.97579025 146.86068176 322.19376801 146.85733032 323.44865417 C146.71946653 333.02641615 145.338719 340.17299975 138.390625 347.12109375 C133.22103697 350.24438652 128.48948084 351.25074026 122.50854492 351.23461914 C121.56794724 351.23454361 120.62734955 351.23446808 119.6582489 351.23439026 C118.6559877 351.22922897 117.6537265 351.22406769 116.62109375 351.21875 C115.06688469 351.21662758 115.06688469 351.21662758 113.48127747 351.21446228 C110.18019696 351.20887617 106.87918492 351.19632617 103.578125 351.18359375 C101.33658952 351.17857696 99.09505298 351.17401436 96.85351562 351.16992188 C91.36583799 351.15976327 85.8783079 351.14018503 80.390625 351.12109375 C80.390625 364.32109375 80.390625 377.52109375 80.390625 391.12109375 C83.360625 391.78109375 86.330625 392.44109375 89.390625 393.12109375 C94.4274371 395.73636157 97.89440128 399.04418761 100.390625 404.12109375 C102.48726897 410.98189406 102.5426116 417.09397549 101.390625 424.12109375 C102.586875 424.36859375 103.783125 424.61609375 105.015625 424.87109375 C112.1719685 426.6791452 116.64975678 430.66471808 120.4765625 436.88671875 C122.65545271 442.21289481 122.17764155 449.03778208 120.7734375 454.5390625 C118.42512191 459.91109417 114.36239617 463.17069977 109.390625 466.12109375 C106.48530724 467.089533 104.64716461 467.24811088 101.62576294 467.25252151 C100.63932234 467.25636266 99.65288174 467.2602038 98.636549 467.26416135 C97.55008646 467.26329487 96.46362392 467.26242838 95.34423828 467.26153564 C93.61622577 467.26599233 93.61622577 467.26599233 91.85330391 467.27053905 C88.6506214 467.27772602 85.44797153 467.28039888 82.24528217 467.28113651 C78.79329641 467.28298617 75.3413223 467.29053292 71.88934326 467.29727173 C64.33997508 467.31085761 56.7906122 467.31687978 49.24123383 467.32128239 C44.52998237 467.32404362 39.81873297 467.32828068 35.10748291 467.33278656 C22.06997812 467.34497812 9.03247497 467.35527859 -4.0050354 467.35866165 C-4.83954172 467.35888122 -5.67404805 467.35910078 -6.53384244 467.359327 C-7.78862943 467.35965442 -7.78862943 467.35965442 -9.06876564 467.35998845 C-10.76394272 467.36043192 -12.4591198 467.36087848 -14.15429688 467.36132812 C-14.9951668 467.36154955 -15.83603673 467.36177098 -16.70238757 467.36199912 C-30.3380991 467.36595009 -43.97375729 467.38341372 -57.60944819 467.40668765 C-71.60024332 467.43037556 -85.59101165 467.44286228 -99.58182716 467.44402957 C-107.44079112 467.44494762 -115.29968553 467.45073279 -123.15863037 467.46884918 C-129.8482097 467.48421547 -136.53769797 467.48939117 -143.22729158 467.48111108 C-146.64235208 467.47719256 -150.05722901 467.47819227 -153.47226715 467.49216843 C-157.16933487 467.50476739 -160.86592482 467.4990769 -164.56298828 467.48858643 C-166.19268209 467.50067103 -166.19268209 467.50067103 -167.855299 467.51299977 C-168.8417396 467.50640993 -169.8281802 467.49982008 -170.84451294 467.49303055 C-171.69839663 467.49362764 -172.55228031 467.49422472 -173.43203926 467.49483991 C-176.11994503 467.03345289 -177.00574691 466.29861592 -178.609375 464.12109375 C-179.25088037 458.98905079 -179.25088037 458.98905079 -177.37966245 456.45729214 C-175.0867368 454.72661074 -173.76767195 454.74468659 -170.90977573 454.74191952 C-169.93788541 454.73369637 -168.96599509 454.72547323 -167.96465355 454.7170009 C-166.89443693 454.72321272 -165.82422031 454.72942453 -164.72157288 454.73582458 C-163.58660431 454.73058889 -162.45163574 454.72535319 -161.28227419 454.71995884 C-157.45899101 454.70593082 -153.63604214 454.71331583 -149.81274414 454.72045898 C-147.07990042 454.71639378 -144.34707569 454.70778609 -141.61424255 454.6993103 C-135.71947198 454.68331622 -129.82477017 454.67806119 -123.92997932 454.67983818 C-115.40270787 454.68221896 -106.87554655 454.66624854 -98.34830385 454.64538563 C-84.50833364 454.61183917 -70.66837327 454.59019081 -56.82836914 454.57739258 C-55.5854014 454.57623834 -55.5854014 454.57623834 -54.3173232 454.57506079 C-50.95968501 454.57195844 -47.60204681 454.56887562 -44.24440858 454.56582075 C-35.00318728 454.5572918 -25.7619694 454.54639095 -16.52075195 454.53442383 C-15.27974947 454.5328218 -15.27974947 454.5328218 -14.01367623 454.53118741 C-0.22739522 454.51310565 13.55886234 454.48711905 27.34512049 454.45629269 C35.8526084 454.43772024 44.36004368 454.4268218 52.86755217 454.42577077 C58.69517224 454.42466868 64.52275622 454.41673335 70.35036104 454.40338712 C73.71488821 454.39595603 77.07926949 454.39297834 80.44381332 454.39650536 C84.08790454 454.39988813 87.73177026 454.39116474 91.37583923 454.37937927 C92.44382513 454.38336037 93.51181104 454.38734146 94.61216015 454.39144319 C95.58665821 454.3858278 96.56115628 454.3802124 97.56518459 454.37442684 C98.40653751 454.37377474 99.24789042 454.37312263 100.11473888 454.37245077 C102.6356244 454.09403514 104.23603143 453.43971155 106.390625 452.12109375 C108.4722152 449.44476349 108.38650091 448.00355707 108.265625 444.55859375 C107.70629194 441.1626698 107.70629194 441.1626698 105.74081802 439.42977381 C102.64704388 437.70703849 100.44993158 437.74554145 96.91253662 437.74471283 C96.26078413 437.74046171 95.60903165 437.7362106 94.93752909 437.73183066 C92.74427487 437.72118643 90.55164551 437.73196741 88.35839844 437.74255371 C86.77387045 437.73926417 85.18934476 437.73465143 83.60482407 437.72882605 C79.24331501 437.71658258 74.88199959 437.72299502 70.52049065 437.73233104 C65.81967616 437.73911307 61.11889793 437.72860227 56.41809082 437.720047 C48.27028914 437.70746667 40.12254052 437.70551218 31.97473145 437.71040344 C20.18994722 437.71720126 8.40524327 437.70471245 -3.37952662 437.68689626 C-22.50431631 437.65823068 -41.62909735 437.64072894 -60.75390625 437.63232422 C-61.89899107 437.63181704 -63.0440759 437.63130986 -64.22386026 437.63078731 C-72.35236507 437.62725993 -80.48087 437.62413058 -88.609375 437.62109375 C-97.89453138 437.61762479 -107.17968763 437.61397585 -116.46484375 437.60986328 C-118.18038444 437.60910936 -118.18038444 437.60910936 -119.93058252 437.6083402 C-138.98275415 437.59960412 -158.03489598 437.57918417 -177.08704758 437.55038118 C-188.84598025 437.53317484 -200.60482877 437.52662815 -212.36377239 437.53368723 C-220.41674414 437.537858 -228.46966274 437.53154456 -236.52262211 437.5168885 C-241.1732015 437.50880865 -245.82364923 437.50575605 -250.47422791 437.51571083 C-254.7278719 437.52474025 -258.98127052 437.52013456 -263.23489332 437.5044964 C-264.77722847 437.50129445 -266.31958412 437.50321736 -267.86190462 437.51066178 C-269.95199941 437.5200347 -272.04123401 437.51110724 -274.13128662 437.49747467 C-275.87550714 437.49706609 -275.87550714 437.49706609 -277.65496445 437.49664927 C-280.92056289 437.08153651 -282.32667162 436.46785332 -284.609375 434.12109375 C-285.11958228 430.03943548 -284.92299302 428.59152078 -282.609375 425.12109375 C-279.89074545 424.80501257 -277.3947151 424.68369904 -274.67138672 424.6887207 C-273.85179474 424.67852905 -273.03220276 424.6683374 -272.18777466 424.65783691 C-269.47146891 424.62757781 -266.75551502 424.61842145 -264.0390625 424.609375 C-262.15860815 424.59253786 -260.27816513 424.57438894 -258.3977356 424.55497742 C-253.44280535 424.50736641 -248.48792099 424.47762901 -243.53283691 424.45153809 C-238.4788303 424.4217884 -233.42498199 424.37523898 -228.37109375 424.33007812 C-218.45060345 424.24391882 -208.53008067 424.17662987 -198.609375 424.12109375 C-198.94540922 421.66605985 -198.94540922 421.66605985 -199.609375 419.12109375 C-201.74649469 417.57487468 -201.74649469 417.57487468 -204.421875 416.68359375 C-205.29457031 416.33425781 -206.16726562 415.98492187 -207.06640625 415.625 C-210.11450834 415.0209982 -211.06331036 415.42908877 -213.609375 417.12109375 C-214.5375 417.82234375 -215.465625 418.52359375 -216.421875 419.24609375 C-220.31248093 421.53468547 -222.14980985 421.68445708 -226.609375 421.12109375 C-228.97596177 419.30362673 -230.71388158 417.7379732 -232.671875 415.55859375 C-233.1884668 415.00792236 -233.70505859 414.45725098 -234.23730469 413.88989258 C-235.25320239 412.80076692 -236.2611758 411.70418431 -237.26025391 410.59960938 C-238.37931877 409.37321473 -239.54197527 408.18676324 -240.71484375 407.01171875 C-243.26328425 404.3724787 -244.54518423 402.40460299 -245.359375 398.80859375 C-244.58421946 394.99741235 -243.5455439 393.43169218 -241.359375 390.30859375 C-238.90100453 386.61658821 -238.90100453 386.61658821 -239.1015625 382.328125 C-240.14477069 379.83521715 -241.33656145 377.50189608 -242.609375 375.12109375 C-242.609375 374.46109375 -242.609375 373.80109375 -242.609375 373.12109375 C-243.27324219 373.08371094 -243.93710938 373.04632813 -244.62109375 373.0078125 C-253.6206977 372.33776899 -253.6206977 372.33776899 -257.609375 369.12109375 C-259.8311828 364.67747815 -258.83929438 358.6256855 -258.859375 353.74609375 C-258.88 352.50085938 -258.900625 351.255625 -258.921875 349.97265625 C-258.92703125 348.77640625 -258.9321875 347.58015625 -258.9375 346.34765625 C-258.9468457 345.25018066 -258.95619141 344.15270508 -258.96582031 343.02197266 C-258.56799515 339.78432979 -257.85886521 338.4411041 -255.609375 336.12109375 C-253.48828125 335.29296875 -253.48828125 335.29296875 -251.171875 334.87109375 C-250.41003906 334.7215625 -249.64820313 334.57203125 -248.86328125 334.41796875 C-246.609375 334.12109375 -246.609375 334.12109375 -242.609375 334.12109375 C-242.40441406 333.43402344 -242.19945312 332.74695313 -241.98828125 332.0390625 C-241.71886719 331.13800781 -241.44945312 330.23695313 -241.171875 329.30859375 C-240.90503906 328.41527344 -240.63820312 327.52195312 -240.36328125 326.6015625 C-239.80549627 324.7663632 -239.21592925 322.94075649 -238.609375 321.12109375 C-239.82745784 319.01337167 -239.82745784 319.01337167 -241.546875 316.87109375 C-243.57498465 313.91721169 -244.61673184 312.09114092 -245.484375 308.55859375 C-244.34588196 304.08594253 -242.19964276 302.23416578 -238.84375 299.17578125 C-236.04060038 296.59805974 -233.62205673 293.77489919 -231.15234375 290.8828125 C-227.04997975 286.19884753 -227.04997975 286.19884753 -223.421875 285.55859375 C-218.81554277 286.23821654 -216.96763514 287.97648761 -213.44921875 290.83984375 C-211.63235511 292.35612168 -211.63235511 292.35612168 -209.046875 292.18359375 C-208.2425 291.83296875 -207.438125 291.48234375 -206.609375 291.12109375 C-204.815 290.78078125 -204.815 290.78078125 -202.984375 290.43359375 C-201.07194589 289.76271102 -201.07194589 289.76271102 -199.609375 288.12109375 C-198.48838041 284.51479333 -197.85231254 281.00971145 -197.3125 277.2734375 C-196.609375 274.12109375 -196.609375 274.12109375 -193.609375 272.12109375 C-188.95647114 271.67476728 -184.2813071 271.79698358 -179.609375 271.80859375 C-178.31257813 271.79248047 -177.01578125 271.77636719 -175.6796875 271.75976562 C-174.43960938 271.75912109 -173.19953125 271.75847656 -171.921875 271.7578125 C-170.21451172 271.75334106 -170.21451172 271.75334106 -168.47265625 271.7487793 C-165.609375 272.12109375 -165.609375 272.12109375 -163.76049805 273.49755859 C-162.24376303 275.63675008 -161.87496571 277.48333459 -161.421875 280.05859375 C-161.26332031 280.91324219 -161.10476562 281.76789063 -160.94140625 282.6484375 C-160.609375 285.12109375 -160.609375 285.12109375 -160.609375 289.12109375 C-159.743125 289.24484375 -158.876875 289.36859375 -157.984375 289.49609375 C-154.609375 290.12109375 -154.609375 290.12109375 -151.796875 291.55859375 C-148.67344351 292.45538043 -148.67344351 292.45538043 -146.44140625 290.9140625 C-144.88263314 289.79916113 -143.32924027 288.67670011 -141.78125 287.546875 C-139.609375 286.12109375 -139.609375 286.12109375 -136.359375 285.43359375 C-132.61637262 286.36934434 -131.28407018 288.34381793 -128.609375 291.12109375 C-127.51520327 292.15482964 -126.41601295 293.18327306 -125.3125 294.20703125 C-124.16127168 295.30318942 -123.01023256 296.39954632 -121.859375 297.49609375 C-121.27027344 298.03492188 -120.68117187 298.57375 -120.07421875 299.12890625 C-117.11647557 301.98465829 -115.73397922 303.70694158 -114.5234375 307.73046875 C-114.62241401 311.63554182 -115.37078939 312.95719796 -117.734375 315.99609375 C-120.1501307 319.53155227 -120.1501307 319.53155227 -120.37890625 323.65625 C-119.59616897 325.91626608 -118.6866445 327.98836182 -117.609375 330.12109375 C-117.279375 331.11109375 -116.949375 332.10109375 -116.609375 333.12109375 C-113.91431072 334.04429046 -113.91431072 334.04429046 -110.734375 334.62109375 C-103.85833863 336.01286979 -103.85833863 336.01286979 -101.609375 339.12109375 C-101.23706055 342.07617188 -101.23706055 342.07617188 -101.24609375 345.65234375 C-101.24706055 347.58013672 -101.24706055 347.58013672 -101.24804688 349.546875 C-101.25634521 350.21541504 -101.26464355 350.88395508 -101.27319336 351.57275391 C-101.29679308 353.61400827 -101.29375153 355.6539563 -101.28710938 357.6953125 C-101.34241466 367.72065325 -101.34241466 367.72065325 -103.609375 371.12109375 C-105.71929855 371.55615885 -107.84906602 371.89808614 -109.984375 372.18359375 C-114.88600736 373.11728433 -114.88600736 373.11728433 -118.390625 376.39453125 C-120.0888361 380.53088828 -121.25590839 383.81208083 -119.609375 388.12109375 C-118.33680862 390.08668195 -116.97070311 391.95191106 -115.5703125 393.828125 C-114.07810482 397.38879943 -114.53406222 399.42983824 -115.609375 403.12109375 C-117.6077144 405.81965303 -119.9576541 408.03754795 -122.421875 410.30859375 C-123.05158203 410.91123047 -123.68128906 411.51386719 -124.33007812 412.13476562 C-125.54406877 413.29525406 -126.76490595 414.44863477 -127.9934082 415.59375 C-129.33146491 416.85842484 -130.61848169 418.17685434 -131.890625 419.5078125 C-133.609375 421.12109375 -133.609375 421.12109375 -136.296875 421.74609375 C-139.87904953 421.07021176 -141.09453802 420.11566741 -143.921875 417.93359375 C-147.1771215 415.51629421 -147.1771215 415.51629421 -151.08203125 415.390625 C-153.47563772 416.2019865 -153.47563772 416.2019865 -155.6640625 417.25390625 C-157.609375 418.12109375 -157.609375 418.12109375 -160.609375 418.12109375 C-160.939375 420.10109375 -161.269375 422.08109375 -161.609375 424.12109375 C-140.819375 423.79109375 -120.029375 423.46109375 -98.609375 423.12109375 C-98.939375 422.13109375 -99.269375 421.14109375 -99.609375 420.12109375 C-100.26061708 412.36880827 -99.95239406 405.51654474 -95.1328125 399.1796875 C-91.09070982 394.75921447 -87.3483765 392.74714417 -81.609375 391.12109375 C-80.619375 391.12109375 -79.629375 391.12109375 -78.609375 391.12109375 C-78.41531894 378.38573025 -78.29731531 365.65211413 -78.27515602 352.91522408 C-78.26250139 347.00000073 -78.22411617 341.08732329 -78.12597656 335.17285156 C-78.03213868 329.4596304 -78.00713409 323.74979384 -78.02891159 318.03588486 C-78.02528461 315.86133877 -77.99726694 313.68668627 -77.94395828 311.51279068 C-77.2530744 300.35617081 -77.2530744 300.35617081 -80.99259567 290.2414341 C-84.73438856 286.6482418 -89.00595835 284.43184009 -93.609375 282.12109375 C-95.02675345 281.07116623 -96.42266223 279.98862273 -97.7578125 278.8359375 C-98.30824219 278.36736328 -98.85867187 277.89878906 -99.42578125 277.41601562 C-100.19728516 276.7440918 -100.19728516 276.7440918 -100.984375 276.05859375 C-101.52191406 275.60677734 -102.05945313 275.15496094 -102.61328125 274.68945312 C-105.09915292 272.54900543 -107.28217972 270.59530265 -109.15782166 267.87690735 C-111.95581171 263.9824174 -114.08080598 261.4981374 -118.83905029 260.32444763 C-122.79404977 260.06761256 -126.69571847 260.08376708 -130.65234375 260.19921875 C-132.10865293 260.20627403 -133.56499182 260.20861476 -135.02131653 260.20648193 C-138.8360433 260.21016689 -142.64827511 260.26303367 -146.46234131 260.33099365 C-152.5755304 260.43599941 -158.68845913 260.48509695 -164.80248451 260.49721527 C-166.93114763 260.51149274 -169.05727552 260.55878576 -171.18534851 260.60919189 C-172.48051895 260.61859802 -173.77568939 260.62800415 -175.11010742 260.63769531 C-176.24735764 260.65817932 -177.38460785 260.67866333 -178.55632019 260.69976807 C-183.18717959 259.82203754 -185.18906637 256.93016842 -187.99633789 253.35449219 C-188.3546167 252.81856445 -188.71289551 252.28263672 -189.08203125 251.73046875 C-189.50009033 251.11268555 -189.91814941 250.49490234 -190.34887695 249.85839844 C-190.78546631 249.20258789 -191.22205566 248.54677734 -191.671875 247.87109375 C-192.6448428 246.43292313 -193.6188351 244.99544518 -194.59375 243.55859375 C-195.09197266 242.82253906 -195.59019531 242.08648437 -196.10351562 241.328125 C-198.50174521 237.81321004 -200.96032042 234.34182433 -203.421875 230.87109375 C-208.47878594 223.73109677 -213.50122924 216.5676358 -218.50756836 209.39208984 C-221.2183207 205.51264129 -223.94167529 201.64482736 -226.71875 197.8125 C-227.42427002 196.8373645 -227.42427002 196.8373645 -228.14404297 195.8425293 C-229.01384025 194.64430037 -229.88763823 193.44896156 -230.76611328 192.25708008 C-233.609375 188.34049008 -233.609375 188.34049008 -233.609375 186.12109375 C-234.71450439 186.1368042 -235.81963379 186.15251465 -236.95825195 186.16870117 C-241.05632241 186.22297932 -245.15436107 186.25743599 -249.25268555 186.28588867 C-251.02682843 186.30098016 -252.80093398 186.32145566 -254.57495117 186.34741211 C-257.12427987 186.38378016 -259.67311559 186.40081613 -262.22265625 186.4140625 C-263.01650223 186.42954636 -263.81034821 186.44503021 -264.62825012 186.46098328 C-270.07371107 186.46264949 -270.07371107 186.46264949 -272.64135742 184.82543945 C-274.33902484 181.83643158 -273.42185051 179.31296183 -272.609375 176.12109375 C-269.5914869 174.10916835 -268.97204576 173.86570519 -265.58447266 173.81469727 C-264.77998688 173.79870987 -263.9755011 173.78272247 -263.14663696 173.76625061 C-262.28098114 173.76088791 -261.41532532 173.75552521 -260.5234375 173.75 C-259.62950287 173.74097153 -258.73556824 173.73194305 -257.81454468 173.72264099 C-255.92327221 173.70813398 -254.0319495 173.69925063 -252.140625 173.69555664 C-249.25174054 173.68366523 -246.36499575 173.63449007 -243.4765625 173.58398438 C-241.63803125 173.57451939 -239.79948689 173.56728471 -237.9609375 173.5625 C-237.09933014 173.54296768 -236.23772278 173.52343536 -235.3500061 173.50331116 C-230.9907754 173.5359882 -229.19356266 173.65528301 -225.68164062 176.45556641 C-224.99779297 177.33519043 -224.31394531 178.21481445 -223.609375 179.12109375 C-222.91497314 179.95797729 -222.91497314 179.95797729 -222.20654297 180.81176758 C-221.84189941 181.31216553 -221.47725586 181.81256348 -221.1015625 182.328125 C-220.67818604 182.9061084 -220.25480957 183.4840918 -219.81860352 184.07958984 C-219.1581604 184.99732178 -219.1581604 184.99732178 -218.484375 185.93359375 C-218.00991943 186.58666504 -217.53546387 187.23973633 -217.04663086 187.91259766 C-213.21373617 193.21657034 -209.49382333 198.59543196 -205.80395508 203.99951172 C-201.00425401 211.02822075 -196.08957991 217.97376809 -191.16943359 224.91845703 C-188.4377439 228.77531218 -185.71101162 232.63566552 -182.984375 236.49609375 C-182.47527588 237.21595459 -181.96617676 237.93581543 -181.44165039 238.67749023 C-180.73190063 239.68211304 -180.73190063 239.68211304 -180.0078125 240.70703125 C-179.59192871 241.29532715 -179.17604492 241.88362305 -178.74755859 242.48974609 C-177.68052834 244.01911035 -176.64378432 245.56947977 -175.609375 247.12109375 C-173.1677997 247.4159011 -170.97909866 247.51260345 -168.53536987 247.4818573 C-167.7986216 247.48442057 -167.06187332 247.48698385 -166.30279934 247.4896248 C-163.82127611 247.49458664 -161.34035437 247.47803084 -158.85888672 247.46166992 C-157.0852154 247.46082417 -155.31154302 247.46129778 -153.53787231 247.46299744 C-148.71160708 247.46386083 -143.88556395 247.44617962 -139.05935049 247.42527556 C-134.01981312 247.40656587 -128.98027109 247.40476284 -123.94070435 247.40119934 C-114.39257687 247.39186205 -104.84455202 247.36722554 -95.29646981 247.33715087 C-84.42844634 247.30365917 -73.56041807 247.28713403 -62.69235587 247.27206457 C-40.33130528 247.24067742 -17.97034588 247.18788428 4.390625 247.12109375 C4.79397568 246.2900563 4.79397568 246.2900563 5.20547485 245.44223022 C5.73919205 244.35586777 5.73919205 244.35586777 6.28369141 243.24755859 C6.63509186 242.52853363 6.98649231 241.80950867 7.34854126 241.06869507 C9.73881942 236.6013872 13.69739574 233.96770838 18.140625 231.74609375 C26.22780444 230.19086693 32.8591009 230.42139879 40.15625 234.48828125 C44.6261305 237.75473238 47.64651269 241.88875682 49.390625 247.12109375 C50.2420763 255.40927156 50.08539503 262.08070233 45.2421875 269.05859375 C40.89633899 273.89953893 35.789291 276.69114895 29.3125 277.32421875 C22.13547165 277.47911864 17.0928049 275.93986868 11.140625 271.93359375 C8.390625 269.12109375 8.390625 269.12109375 4.390625 261.12109375 C-10.459375 261.12109375 -25.309375 261.12109375 -40.609375 261.12109375 C-36.49873085 267.36978191 -32.38738388 273.61799512 -28.27416992 279.86499023 C-26.87400348 281.99198794 -25.474263 284.11926613 -24.07495117 286.24682617 C-22.06800449 289.29809555 -20.05954724 292.34836563 -18.05078125 295.3984375 C-17.42160294 296.3557225 -16.79242462 297.31300751 -16.1441803 298.29930115 C-15.56365402 299.1801387 -14.98312775 300.06097626 -14.38500977 300.96850586 C-13.87204849 301.74794052 -13.35908722 302.52737518 -12.83058167 303.33042908 C-11.7320091 305.06038621 -11.7320091 305.06038621 -10.609375 306.12109375 C-8.75762794 306.27895683 -6.9002839 306.37216731 -5.04296875 306.4375 C-3.91826172 306.47939453 -2.79355469 306.52128906 -1.63476562 306.56445312 C0.14124023 306.62342773 0.14124023 306.62342773 1.953125 306.68359375 C3.14099609 306.72677734 4.32886719 306.76996094 5.55273438 306.81445312 C8.49857284 306.92092921 11.4444993 307.02294216 14.390625 307.12109375 C14.67550781 306.19554687 14.96039063 305.27 15.25390625 304.31640625 C17.70382934 297.42968085 22.07599705 294.22100202 28.390625 291.12109375 C34.18879714 288.87664002 40.75437602 289.65593885 46.37109375 292.015625 C51.47105217 294.80728503 55.30872438 298.39681464 58.390625 303.30859375 C60.65274677 311.932933 60.26563972 319.25954837 55.80859375 327.0625 C52.55858041 331.78083892 47.92924874 334.72133248 42.390625 336.12109375 C34.9955691 336.96653402 28.45937522 336.740388 22.390625 332.12109375 C18.09003498 328.15648732 16.17938968 324.6936018 14.390625 319.12109375 C13.45790771 319.1682251 12.52519043 319.21535645 11.56420898 319.26391602 C8.07671573 319.41805338 4.5928738 319.53044001 1.10327148 319.61547852 C-0.40154367 319.66053093 -1.9059693 319.72180029 -3.40942383 319.80004883 C-5.58251843 319.91025217 -7.75038738 319.96044568 -9.92578125 320 C-11.22974854 320.04713135 -12.53371582 320.0942627 -13.87719727 320.14282227 C-19.54021953 318.59250185 -21.48243041 314.88105787 -24.609375 310.12109375 C-25.45128136 308.89271034 -25.45128136 308.89271034 -26.31019592 307.63951111 C-28.08128199 305.03140697 -29.80992374 302.39899401 -31.53125 299.7578125 C-32.15791565 298.80340775 -32.7845813 297.84900299 -33.43023682 296.86567688 C-35.41020402 293.84898328 -37.38505237 290.82898387 -39.359375 287.80859375 C-41.34885784 284.77093794 -43.33942666 281.73400182 -45.33135986 278.69795227 C-46.5650373 276.81700609 -47.79715988 274.93503895 -49.02752686 273.05192566 C-49.58530823 272.20036392 -50.1430896 271.34880219 -50.71777344 270.47143555 C-51.44888336 269.35299507 -51.44888336 269.35299507 -52.19476318 268.21195984 C-53.17499589 266.76312752 -54.21178905 265.35159222 -55.2901001 263.97419739 C-56.609375 262.12109375 -56.609375 262.12109375 -56.609375 260.12109375 C-76.904375 260.61609375 -76.904375 260.61609375 -97.609375 261.12109375 C-88.99253076 269.11148294 -88.99253076 269.11148294 -79.859375 275.93359375 C-78.7765625 276.66320312 -77.69375 277.3928125 -76.578125 278.14453125 C-75.5984375 278.79679687 -74.61875 279.4490625 -73.609375 280.12109375 C-66.77393196 284.79197983 -66.77393196 284.79197983 -65.609375 287.12109375 C-65.5176756 288.51490622 -65.48743756 289.9130203 -65.48912048 291.30984497 C-65.48705424 292.62383616 -65.48705424 292.62383616 -65.48494625 293.96437263 C-65.48854436 294.93148611 -65.49214247 295.89859959 -65.49584961 296.89501953 C-65.49572907 297.92612791 -65.49560854 298.95723629 -65.49548435 300.01959038 C-65.49623277 303.36855069 -65.50385779 306.71745585 -65.51171875 310.06640625 C-65.51318839 312.12947564 -65.51420896 314.1925454 -65.51477051 316.25561523 C-65.52002084 323.91911375 -65.53398195 331.58260429 -65.546875 339.24609375 C-65.5675 356.36484375 -65.588125 373.48359375 -65.609375 391.12109375 C-21.389375 391.12109375 22.830625 391.12109375 68.390625 391.12109375 C68.390625 374.62109375 68.390625 358.12109375 68.390625 341.12109375 C70.97024023 338.54147852 71.99948789 338.86130276 75.5871582 338.83398438 C76.67201004 338.82057007 77.75686188 338.80715576 78.87458801 338.79333496 C80.05163803 338.78805786 81.22868805 338.78278076 82.44140625 338.77734375 C83.64750046 338.76272095 84.85359467 338.74809814 86.09623718 338.73303223 C89.96516595 338.68638944 93.83404254 338.65227862 97.703125 338.62109375 C102.78274327 338.57998372 107.86199777 338.52628079 112.94140625 338.46484375 C114.11238358 338.45956665 115.2833609 338.45428955 116.48982239 338.44885254 C117.58413071 338.43543823 118.67843903 338.42202393 119.8059082 338.40820312 C120.76584183 338.40091187 121.72577545 338.39362061 122.71479797 338.3861084 C125.65133893 338.09527257 127.76789054 337.46885048 130.390625 336.12109375 C132.64490711 332.73967059 132.64096343 331.5907985 132.64599609 327.63085938 C132.65295502 326.50538696 132.65991394 325.37991455 132.66708374 324.22033691 C132.66558823 322.3923053 132.66558823 322.3923053 132.6640625 320.52734375 C132.68436577 317.9440062 132.70521681 315.3606729 132.7265625 312.77734375 C132.75120819 308.70703393 132.76644617 304.63678635 132.77148438 300.56640625 C132.77752041 296.63648949 132.81491862 292.70709524 132.8515625 288.77734375 C132.84651703 287.57484985 132.84147156 286.37235596 132.83627319 285.13342285 C132.95808872 274.56497787 135.09522499 265.97780565 142.21875 257.97265625 C148.50791107 252.61103333 155.56976881 249.63290866 163.265625 246.80859375 C164.214375 246.44958984 165.163125 246.09058594 166.140625 245.72070312 C173.09272321 243.12109375 173.09272321 243.12109375 175.390625 243.12109375 C168.77092138 230.20842944 161.98133603 217.4236802 154.75708008 204.83764648 C153.74712133 203.07462188 152.74403298 201.30763738 151.74902344 199.53613281 C150.88571209 198.00128812 150.00533339 196.47582523 149.10253906 194.96386719 C146.39406458 190.16046584 146.1302848 186.67912693 147.140625 181.24609375 C152.86066332 141.86050341 143.36996343 102.73147325 119.55297852 70.80883789 C96.27612545 40.6276551 61.61990645 19.61787823 23.65087891 14.44628906 C6.48790905 12.73436186 -11.88548276 12.76062342 -28.609375 17.12109375 C-29.29950684 17.2927002 -29.98963867 17.46430664 -30.70068359 17.64111328 C-44.51459762 21.11867679 -56.71713539 26.84054921 -69.07421875 33.85546875 C-69.80378784 34.26780762 -70.53335693 34.68014648 -71.28503418 35.10498047 C-73.06067757 36.10882638 -74.83515087 37.11474152 -76.609375 38.12109375 C-75.33521729 38.114729 -74.06105957 38.10836426 -72.74829102 38.10180664 C-67.93744659 38.08717566 -63.12776671 38.11911202 -58.31713867 38.16381836 C-56.25077316 38.17681033 -54.18429109 38.17783041 -52.11791992 38.16577148 C-38.01888627 38.09392492 -27.17784288 39.66671656 -14.609375 46.12109375 C-12.50835757 47.13784586 -10.4068444 48.15357463 -8.3046875 49.16796875 C-5.4897816 50.5287658 -2.69030361 51.89423123 0.078125 53.34765625 C5.5179215 55.91673188 5.5179215 55.91673188 11.33447266 55.28735352 C14.22396084 53.97711447 14.22396084 53.97711447 16.82617188 52.41918945 C21.97419439 49.81332162 27.42034772 50.32590141 32.87109375 51.78515625 C39.28068302 54.25451225 43.36106439 58.12144683 46.45703125 64.22265625 C49.26872639 71.35906633 48.8256297 78.3456921 45.828125 85.37109375 C42.89231449 90.66412438 38.13067589 93.5347485 33.015625 96.49609375 C25.80911856 98.21192862 18.95927578 97.54502134 12.390625 94.12109375 C7.4489421 90.86407547 4.26754559 86.75185552 2.390625 81.12109375 C2.32092448 78.72618389 2.30614497 76.32941684 2.328125 73.93359375 C2.33714844 72.66128906 2.34617187 71.38898438 2.35546875 70.078125 C2.37287109 68.61439453 2.37287109 68.61439453 2.390625 67.12109375 C1.68712481 67.01520243 0.98362461 66.9093111 0.25880623 66.80021095 C-2.98649513 66.03180066 -5.53575961 64.78216269 -8.50027466 63.25521851 C-26.95456522 54.18741969 -42.90454421 51.00595231 -63.39436102 50.9796834 C-66.41194115 50.97007622 -69.42866333 50.92438477 -72.4459182 50.88118494 C-79.5671604 50.78191203 -86.68626253 50.75303073 -93.80810547 50.76708984 C-101.09887774 50.77982175 -108.37802326 50.65024457 -115.66596496 50.45633948 C-121.99770137 50.29405544 -128.32566297 50.22991519 -134.65945542 50.24016702 C-138.4128166 50.24473876 -142.155973 50.2127438 -145.90722275 50.08049393 C-161.6938531 49.20177252 -161.6938531 49.20177252 -175.41363907 55.59929085 C-180.40863507 61.61699949 -183.94212973 68.15462482 -187.24098015 75.24620628 C-188.94414978 78.82442863 -190.95543471 81.98343375 -193.1796875 85.2578125 C-193.77894043 86.19367188 -194.37819336 87.12953125 -194.99560547 88.09375 C-196.22588249 90.0146543 -197.45673335 91.93519113 -198.68798828 93.85546875 C-202.03087906 99.07348043 -205.35743685 104.30086794 -208.65625 109.546875 C-209.30062012 110.56885986 -209.94499023 111.59084473 -210.60888672 112.64379883 C-211.83338457 114.58766127 -213.05394555 116.53401083 -214.27001953 118.4831543 C-214.81255371 119.34336182 -215.35508789 120.20356934 -215.9140625 121.08984375 C-216.6253833 122.22583008 -216.6253833 122.22583008 -217.35107422 123.38476562 C-218.609375 125.12109375 -218.609375 125.12109375 -220.609375 126.12109375 C-222.19656065 126.22631243 -223.78804113 126.26981078 -225.37866211 126.28222656 C-226.8654673 126.29663788 -226.8654673 126.29663788 -228.38230896 126.31134033 C-229.99324181 126.31771515 -229.99324181 126.31771515 -231.63671875 126.32421875 C-232.73657608 126.32991882 -233.83643341 126.3356189 -234.96961975 126.3414917 C-237.29899124 126.35094931 -239.62837616 126.35747869 -241.95776367 126.36132812 C-245.52871898 126.37104435 -249.09910149 126.4020655 -252.66992188 126.43359375 C-254.92968407 126.44012251 -257.18945039 126.44537348 -259.44921875 126.44921875 C-260.52114975 126.46156555 -261.59308075 126.47391235 -262.69749451 126.4866333 C-263.69185013 126.4836322 -264.68620575 126.4806311 -265.71069336 126.47753906 C-267.02401894 126.48300751 -267.02401894 126.48300751 -268.36387634 126.48858643 C-270.609375 126.12109375 -270.609375 126.12109375 -272.4233551 124.82147217 C-273.609375 123.12109375 -273.609375 123.12109375 -273.484375 119.55859375 C-272.609375 116.12109375 -272.609375 116.12109375 -269.609375 114.12109375 C-267.61616516 113.88058472 -267.61616516 113.88058472 -265.3215332 113.89404297 C-264.46086746 113.89419403 -263.60020172 113.89434509 -262.7134552 113.89450073 C-261.32582222 113.90998459 -261.32582222 113.90998459 -259.91015625 113.92578125 C-258.95997116 113.92861115 -258.00978607 113.93144104 -257.0308075 113.93435669 C-253.99436885 113.9455566 -250.95822458 113.97066087 -247.921875 113.99609375 C-245.86393655 114.00612379 -243.80599348 114.0152496 -241.74804688 114.0234375 C-236.7017094 114.04549533 -231.65559212 114.08002393 -226.609375 114.12109375 C-226.34398926 113.40083008 -226.07860352 112.68056641 -225.80517578 111.93847656 C-224.59028171 109.07610873 -223.16505931 106.65153298 -221.4765625 104.04296875 C-220.84322998 103.05941406 -220.20989746 102.07585937 -219.55737305 101.0625 C-218.87328369 100.00933594 -218.18919434 98.95617187 -217.484375 97.87109375 C-216.40121609 96.19178525 -215.31806399 94.5124723 -214.2353363 92.83288574 C-213.11044339 91.08895743 -211.98376413 89.34619242 -210.85693359 87.60351562 C-207.99634794 83.17583458 -205.158988 78.73336844 -202.32202148 74.29052734 C-200.32569816 71.16620313 -198.32329227 68.04584092 -196.3203125 64.92578125 C-193.96820759 61.25794877 -191.63951568 57.57738962 -189.3359375 53.87890625 C-188.83876221 53.08871094 -188.34158691 52.29851563 -187.8293457 51.484375 C-186.92567159 50.04727452 -186.03022304 48.60494998 -185.14526367 47.15625 C-182.7046011 43.29949828 -180.74165204 41.05437992 -176.609375 39.12109375 C-174.00467992 38.86859722 -171.65217032 38.77329246 -169.05615234 38.83154297 C-168.31231293 38.83580795 -167.56847351 38.84007294 -166.80209351 38.84446716 C-165.19189805 38.85474346 -163.58173335 38.87141643 -161.97166061 38.89379501 C-159.41400984 38.92617757 -156.85731416 38.9347452 -154.29946899 38.93606567 C-147.02912373 38.94166129 -139.75955064 38.97040135 -132.48974609 39.0625 C-128.03553743 39.11722007 -123.58301427 39.12751734 -119.12852859 39.11035538 C-117.44053809 39.11228596 -115.75247702 39.1305435 -114.0648613 39.1661644 C-105.46882863 39.3423419 -99.20835637 39.43262107 -92.26708984 33.74902344 C-90.70430538 32.21672729 -89.15073854 30.67493582 -87.609375 29.12109375 C-84.78150635 27.08688383 -81.85155092 25.27771806 -78.859375 23.49609375 C-78.08916016 23.03372314 -77.31894531 22.57135254 -76.52539062 22.0949707 C-53.0945434 8.25232364 -27.21147784 0.91293919 0 0 Z M17.390625 66.12109375 C15.1926503 68.83192922 14.46664623 70.61066547 13.953125 74.05859375 C14.51826331 78.01456191 15.82898641 80.07482084 18.390625 83.12109375 C21.30417042 84.88455545 22.98861734 85.12946891 26.390625 85.05859375 C30.16098948 83.88035485 31.85052492 82.09663956 34.390625 79.12109375 C35.94086964 76.02060447 35.68054515 73.54215157 35.390625 70.12109375 C33.02088645 66.1715295 30.81742025 64.36967703 26.390625 63.12109375 C22.57755147 63.12109375 20.64233622 64.15651822 17.390625 66.12109375 Z M17.515625 247.80859375 C15.85293791 251.22633943 15.7324276 254.44250164 16.390625 258.12109375 C18.20579716 261.21360928 19.67706642 262.70798089 22.765625 264.49609375 C26.11714113 265.29407378 28.09374482 265.15136881 31.390625 264.12109375 C34.92088176 261.06153789 37.22079167 259.03171873 37.640625 254.30859375 C37.3484867 250.58383043 36.78814514 248.98265004 34.390625 246.12109375 C27.43762972 242.58360492 23.56466405 242.36445861 17.515625 247.80859375 Z M-185.609375 285.12109375 C-186.0425 286.66796875 -186.0425 286.66796875 -186.484375 288.24609375 C-186.84702753 289.54128135 -187.22420078 290.83242444 -187.609375 292.12109375 C-187.90908203 293.62542969 -187.90908203 293.62542969 -188.21484375 295.16015625 C-189.86173916 298.65692579 -191.4086807 299.36924593 -194.97070312 300.68359375 C-195.9984082 301.02390625 -195.9984082 301.02390625 -197.046875 301.37109375 C-202.53328499 303.29785162 -202.53328499 303.29785162 -207.609375 306.12109375 C-212.19514728 306.73840925 -214.76089754 306.31905835 -218.421875 303.62109375 C-219.26685547 302.925 -219.26685547 302.925 -220.12890625 302.21484375 C-221.57069899 300.92302307 -221.57069899 300.92302307 -223.609375 301.12109375 C-225.41631256 302.90721686 -225.41631256 302.90721686 -227.234375 305.12109375 C-227.86601562 305.86359375 -228.49765625 306.60609375 -229.1484375 307.37109375 C-229.63054687 307.94859375 -230.11265625 308.52609375 -230.609375 309.12109375 C-229.65008846 311.77757955 -228.84666379 313.84729899 -226.984375 315.99609375 C-224.85956952 319.27988403 -225.11661521 321.24061043 -225.609375 325.12109375 C-226.71712666 327.96474743 -227.97745882 330.66960868 -229.34375 333.3984375 C-230.48460666 335.85268779 -231.07401036 338.00302523 -231.671875 340.62109375 C-232.3203125 342.52734375 -232.3203125 342.52734375 -233.609375 344.12109375 C-237.62456658 345.74917143 -241.29492924 346.37882351 -245.609375 347.12109375 C-245.609375 351.74109375 -245.609375 356.36109375 -245.609375 361.12109375 C-243.69125 361.45109375 -241.773125 361.78109375 -239.796875 362.12109375 C-234.0517135 363.57420251 -234.0517135 363.57420251 -232.3203125 365.71484375 C-231.671875 367.62109375 -231.671875 367.62109375 -231.1875 369.73828125 C-230.26160032 373.55448939 -228.33901144 376.90689891 -226.59765625 380.41015625 C-225.44820541 383.56319532 -225.25728891 385.78741783 -225.609375 389.12109375 C-226.79113595 391.34978387 -228.18843356 393.18556772 -229.7109375 395.19140625 C-230.86336965 397.10414073 -230.86336965 397.10414073 -229.984375 399.16015625 C-228.5025909 401.27338244 -226.982773 402.74276946 -224.984375 404.37109375 C-224.35273438 404.891875 -223.72109375 405.41265625 -223.0703125 405.94921875 C-222.58820313 406.3359375 -222.10609375 406.72265625 -221.609375 407.12109375 C-221.15046875 406.77175781 -220.6915625 406.42242187 -220.21875 406.0625 C-219.60515625 405.60746094 -218.9915625 405.15242188 -218.359375 404.68359375 C-217.75609375 404.23113281 -217.1528125 403.77867187 -216.53125 403.3125 C-214.46465357 402.03137823 -213.00459875 401.50704746 -210.609375 401.12109375 C-208.67407227 401.60253906 -208.67407227 401.60253906 -206.67578125 402.44921875 C-205.94423828 402.75472656 -205.21269531 403.06023437 -204.45898438 403.375 C-203.70423828 403.70371094 -202.94949219 404.03242188 -202.171875 404.37109375 C-201.42099609 404.68433594 -200.67011719 404.99757813 -199.89648438 405.3203125 C-191.37254836 408.93380165 -191.37254836 408.93380165 -188.609375 411.12109375 C-187.71875 413.78515625 -187.71875 413.78515625 -187.359375 416.74609375 C-187.17768793 420.24386564 -187.17768793 420.24386564 -185.609375 423.12109375 C-183.58973301 423.19353428 -181.56770376 423.20486563 -179.546875 423.18359375 C-178.44214844 423.17457031 -177.33742188 423.16554688 -176.19921875 423.15625 C-175.34457031 423.14464844 -174.48992187 423.13304687 -173.609375 423.12109375 C-173.53203125 422.24066406 -173.4546875 421.36023438 -173.375 420.453125 C-172.82423954 416.69376764 -172.1578644 413.59884864 -170.609375 410.12109375 C-166.89896538 407.45459142 -162.95489489 406.40745412 -158.609375 405.12109375 C-156.97264592 404.33248792 -155.34600579 403.52229957 -153.734375 402.68359375 C-150.663936 401.31464351 -149.81558092 401.08936976 -146.359375 401.62109375 C-143.47533276 403.1942077 -141.07059535 404.94942873 -138.609375 407.12109375 C-134.2969156 405.52388656 -132.18793827 402.80475556 -129.609375 399.12109375 C-129.4954833 395.59045106 -131.91591785 392.93709001 -133.8671875 390.09765625 C-135.64714013 385.35736136 -133.08704257 380.48562994 -131.171875 376.12109375 C-129.81292015 373.00563905 -128.62127512 370.17077677 -127.828125 366.859375 C-126.609375 364.12109375 -126.609375 364.12109375 -123.82421875 362.9140625 C-122.74269531 362.71425781 -121.66117187 362.51445312 -120.546875 362.30859375 C-116.76648483 361.86533601 -116.76648483 361.86533601 -113.609375 360.12109375 C-113.53678554 357.93469922 -113.52563717 355.74608986 -113.546875 353.55859375 C-113.55589844 352.36105469 -113.56492188 351.16351563 -113.57421875 349.9296875 C-113.58582031 349.00285156 -113.59742188 348.07601562 -113.609375 347.12109375 C-114.42921875 347.00894531 -115.2490625 346.89679688 -116.09375 346.78125 C-124.70743314 345.20482234 -124.70743314 345.20482234 -127.12109375 342.3046875 C-128.12117945 339.94583558 -128.85243248 337.56829628 -129.609375 335.12109375 C-130.53208262 333.23877021 -131.46999586 331.36383499 -132.421875 329.49609375 C-134.49275708 324.88629742 -135.29080948 322.07198417 -133.609375 317.12109375 C-132.08289156 314.3167398 -130.41798608 311.76444841 -128.609375 309.12109375 C-131.249375 306.48109375 -133.889375 303.84109375 -136.609375 301.12109375 C-141.3130099 302.70085673 -141.3130099 302.70085673 -143.546875 304.74609375 C-146.39074269 306.64200555 -148.22787507 306.36410044 -151.609375 306.12109375 C-154.48484359 305.07283214 -157.11213765 303.74506055 -159.8515625 302.3828125 C-162.33054093 301.24866231 -164.46798128 300.69128391 -167.109375 300.12109375 C-169.015625 299.4765625 -169.015625 299.4765625 -170.609375 298.12109375 C-172.20927385 293.86730864 -172.9940865 289.61398167 -173.609375 285.12109375 C-177.569375 285.12109375 -181.529375 285.12109375 -185.609375 285.12109375 Z M27.390625 307.12109375 C25.76960711 310.36312954 25.83155393 313.6171483 26.390625 317.12109375 C28.28508906 320.37720385 29.69463343 322.46986085 33.29296875 323.8515625 C37.25099425 324.61885727 39.08465982 324.27407634 42.765625 322.43359375 C45.9341932 319.76994404 45.9341932 319.76994404 47.390625 316.12109375 C47.390625 310.95677811 47.21310383 309.0839958 43.828125 305.12109375 C37.67259788 301.53969615 32.56976433 301.78501081 27.390625 307.12109375 Z M-86.609375 409.12109375 C-87.8639479 413.18000608 -87.86540757 415.33793531 -86.546875 419.37109375 C-84.18475356 422.72378224 -82.38493193 423.57437687 -78.609375 425.12109375 C-75.34440271 425.56938628 -75.34440271 425.56938628 -71.85400391 425.5087738 C-70.87261161 425.51685211 -70.87261161 425.51685211 -69.8713932 425.52509362 C-67.69271314 425.53933009 -65.51464438 425.53228063 -63.3359375 425.52514648 C-61.76844802 425.53085228 -60.20096269 425.53781735 -58.63348389 425.54594421 C-54.38557784 425.56386619 -50.13787846 425.56270926 -45.88994598 425.55700183 C-42.34114663 425.55390905 -38.79238692 425.56000331 -35.24359322 425.56604058 C-26.87134623 425.58008059 -18.49920129 425.57852845 -10.12695312 425.56713867 C-1.49380033 425.5556534 7.13904196 425.56974111 15.77215385 425.59653515 C23.18973921 425.61869345 30.60722711 425.62532937 38.02484322 425.61945873 C42.452734 425.61608881 46.88042567 425.61850675 51.30828857 425.63570976 C55.47152123 425.65117934 59.63429376 425.6472235 63.79750824 425.62840462 C65.32369652 425.62471897 66.84991889 425.62782658 68.37607574 425.63829041 C70.4629976 425.65150473 72.54839696 425.63995191 74.63525391 425.62229919 C75.80182526 425.62208991 76.96839661 425.62188063 78.1703186 425.621665 C82.12562085 425.00684444 84.28159844 423.60134786 87.390625 421.12109375 C89.87448559 417.39530286 89.7710462 415.53397973 89.390625 411.12109375 C87.73923195 407.58239435 86.67457271 406.31039222 83.390625 404.12109375 C80.36144608 403.80909373 80.36144608 403.80909373 76.84416199 403.84693909 C75.84211329 403.83908407 75.84211329 403.83908407 74.81982118 403.83107036 C72.57667929 403.81604366 70.33376498 403.81536464 68.09057617 403.81469727 C66.48412184 403.8070775 64.87767117 403.79865032 63.27122498 403.78947449 C58.90336346 403.76750306 54.53557197 403.75872692 50.16766143 403.75364804 C47.43902424 403.75000725 44.71040546 403.7437686 41.98177528 403.73664665 C32.46302101 403.71214187 22.94432131 403.69909828 13.42553711 403.69555664 C4.55213373 403.69192172 -4.32092368 403.66203222 -13.19422132 403.62015206 C-20.81130975 403.58546108 -28.42828348 403.5700084 -36.04545039 403.56931061 C-40.59529789 403.56851731 -45.14479319 403.55975478 -49.6945591 403.53131294 C-53.97516393 403.50515295 -58.2551241 403.50291522 -62.53577232 403.51896858 C-64.10551228 403.52078481 -65.67528913 403.51407652 -67.24494934 403.49814987 C-69.39138205 403.47770157 -71.53555649 403.48822951 -73.68196106 403.50636292 C-75.48190883 403.50334592 -75.48190883 403.50334592 -77.31821918 403.50026798 C-81.78809078 404.3434403 -83.43062336 405.89046198 -86.609375 409.12109375 Z " fill="#000000" transform="translate(299.609375,6.87890625)"/>
<path d="M0 0 C5.23368442 3.10922901 9.16157467 7.87075277 11.5625 13.4375 C13.27971511 20.80490677 12.44842079 26.9450541 8.875 33.5625 C4.25478719 39.30654836 0.02417624 43.10505781 -7.4375 44.4375 C-15.20354373 45.14350398 -20.81921808 43.03473155 -26.75 38.125 C-30.33041038 35.00938935 -31.10687366 33.09875267 -33.4375 28.4375 C-57.5275 28.1075 -81.6175 27.7775 -106.4375 27.4375 C-107.0975 28.7575 -107.7575 30.0775 -108.4375 31.4375 C-109.28671834 32.76897592 -110.16090382 34.08473924 -111.0546875 35.38671875 C-111.83307983 36.52330933 -111.83307983 36.52330933 -112.62719727 37.68286133 C-113.18334717 38.48876709 -113.73949707 39.29467285 -114.3125 40.125 C-114.88605225 40.95990967 -115.45960449 41.79481934 -116.05053711 42.6550293 C-120.47602192 49.08189822 -124.95646983 55.46925018 -129.47802734 61.82885742 C-129.94031738 62.47959229 -130.40260742 63.13032715 -130.87890625 63.80078125 C-131.27795166 64.36063721 -131.67699707 64.92049316 -132.08813477 65.49731445 C-133.91030019 68.11731601 -135.66725925 70.78213888 -137.4375 73.4375 C-98.3325 72.9425 -98.3325 72.9425 -58.4375 72.4375 C-57.1175 69.7975 -55.7975 67.1575 -54.4375 64.4375 C-49.09938548 59.09938548 -43.67362677 56.33087914 -36.125 55.9375 C-29.18719538 56.16621883 -23.36266793 58.38153187 -18.515625 63.4453125 C-12.87944205 70.7186724 -12.74479307 77.39215293 -13.4375 86.4375 C-14.91595679 92.43607946 -18.41567267 95.70625908 -23.33984375 99.2109375 C-29.29758617 102.69460811 -34.64050032 103.30306966 -41.4375 102.4375 C-48.83504959 100.15888516 -53.63417463 96.14594843 -57.4375 89.4375 C-57.7675 88.4475 -58.0975 87.4575 -58.4375 86.4375 C-97.5425 85.9425 -97.5425 85.9425 -137.4375 85.4375 C-122.92969944 106.86585507 -122.92969944 106.86585507 -107.61328125 127.76953125 C-106.4375 129.4375 -106.4375 129.4375 -106.4375 131.4375 C-75.4175 131.4375 -44.3975 131.4375 -12.4375 131.4375 C-11.7775 129.7875 -11.1175 128.1375 -10.4375 126.4375 C-9.55418912 124.9590604 -8.62546901 123.50705423 -7.65942383 122.08129883 C-7.10156693 121.25306107 -6.54371002 120.4248233 -5.96894836 119.57148743 C-5.36689072 118.68809189 -4.76483307 117.80469635 -4.14453125 116.89453125 C-3.52027756 115.97089279 -2.89602386 115.04725433 -2.25285339 114.09562683 C-0.25630127 111.14407815 1.74684144 108.19706787 3.75 105.25 C5.07919074 103.2860879 6.40797117 101.32189803 7.73632812 99.35742188 C14.73506145 89.01962168 14.73506145 89.01962168 16.85993958 85.96240234 C18.03883029 84.21410378 19.16127252 82.42690793 20.23612976 80.61279297 C24.35963294 73.93288151 24.35963294 73.93288151 27.63612366 72.58351135 C30.00978858 72.28132568 32.17145592 72.30597469 34.55859375 72.4609375 C35.39213882 72.47508698 36.2256839 72.48923645 37.08448792 72.5038147 C39.7267714 72.55946195 42.36031877 72.6847696 45 72.8125 C46.79870488 72.86270244 48.59754385 72.90832258 50.39648438 72.94921875 C54.7884823 73.05901805 59.17401491 73.23128911 63.5625 73.4375 C64.00722656 72.04724609 64.00722656 72.04724609 64.4609375 70.62890625 C66.92425046 63.49228677 70.92663823 59.69062755 77.5625 56.4375 C83.98203735 54.42823536 90.55891762 54.82525091 96.71484375 57.46875 C102.86650053 60.69414298 106.37209261 64.97918543 108.5625 71.4375 C110.17585014 78.28871291 109.772255 84.13513434 106.5625 90.4375 C103.13304102 95.82664983 98.76736034 99.68101525 92.5625 101.4375 C84.91618692 102.44935862 78.07402273 101.76072411 71.5625 97.4375 C67.67959805 94.04947771 66.07136497 90.29563923 64.5625 85.4375 C54.41913651 83.53513504 42.1528382 81.6246324 32.5625 86.4375 C22.78922288 94.30272863 16.69031308 107.22012742 10.93896484 118.12695312 C9.25807608 121.27822297 7.40997883 124.24552793 5.41397095 127.20690918 C4.87853983 128.00332573 4.34310871 128.79974228 3.79145241 129.62029266 C3.38589811 130.21997108 2.98034382 130.81964951 2.5625 131.4375 C15.77551523 131.49212289 28.9878055 131.50389776 42.20088482 131.46084595 C48.33624415 131.44220433 54.47087111 131.43836812 60.60620117 131.46826172 C66.52641298 131.49656426 72.44540053 131.48611418 78.36554909 131.44869995 C80.62498531 131.44124874 82.8845122 131.44780335 85.14386559 131.46853638 C88.30782187 131.49518661 91.46779667 131.47220719 94.6315918 131.4375 C96.03529022 131.4666172 96.03529022 131.4666172 97.46734619 131.49632263 C100.06841403 131.43795995 102.11067053 131.31344889 104.5625 130.4375 C106.31218316 128.54504667 107.39790392 126.74860119 108.51881123 124.43310547 C110.7724967 120.12390223 115.10766195 117.21010572 119.5625 115.4375 C127.3958116 114.60786355 135.16614043 114.35016286 141.5625 119.4375 C146.17785391 123.80449406 149.18768678 128.03367297 149.8984375 134.48828125 C149.99435549 142.49743374 149.42988932 148.04911523 144.0546875 154.1484375 C139.20666042 158.77097494 133.73402405 161.28418212 127.01171875 161.53125 C119.34197577 161.06571173 114.33558263 158.64805785 109.25 152.9375 C107.27896666 150.56145981 105.91294338 148.20639212 104.5625 145.4375 C103.45390279 145.43695523 102.34530558 145.43641047 101.20311451 145.43584919 C74.24627543 145.4214629 47.28959799 145.37848418 20.33285236 145.30540943 C7.29683366 145.27073527 -5.73907904 145.24540072 -18.77514648 145.24194336 C-30.13549792 145.23890685 -41.49566068 145.21845848 -52.85593921 145.17697543 C-58.87287965 145.15561546 -64.88955165 145.14306033 -70.90653038 145.15134621 C-76.56765176 145.15886719 -82.22822833 145.14314263 -87.8892498 145.10943985 C-89.96894475 145.10118306 -92.04869363 145.10148415 -94.12838364 145.11090279 C-96.96491289 145.12247916 -99.79964309 145.10347619 -102.6360321 145.07673645 C-103.46191273 145.08740971 -104.28779335 145.09808297 -105.13870066 145.10907966 C-109.42759199 145.03347732 -110.95955881 144.8293386 -114.40090656 142.00796032 C-117.75572549 137.77371858 -117.75572549 137.77371858 -118.91015625 136.046875 C-119.32821533 135.4290918 -119.74627441 134.81130859 -120.17700195 134.17480469 C-120.61359131 133.51899414 -121.05018066 132.86318359 -121.5 132.1875 C-122.4729678 130.74932938 -123.4469601 129.31185143 -124.421875 127.875 C-125.16920898 126.77091797 -125.16920898 126.77091797 -125.93164062 125.64453125 C-128.32987274 122.12961258 -130.7886118 118.65835233 -133.25 115.1875 C-134.24496407 113.78137197 -135.23975168 112.37511907 -136.234375 110.96875 C-136.74677734 110.24429688 -137.25917969 109.51984375 -137.78710938 108.7734375 C-140.86534193 104.4165545 -143.9346747 100.05347118 -147 95.6875 C-147.59594971 94.84155273 -148.19189941 93.99560547 -148.8059082 93.12402344 C-149.90027796 91.56374012 -150.98782523 89.99863814 -152.06689453 88.42773438 C-153.1554745 86.84702474 -154.27387572 85.28685985 -155.40234375 83.734375 C-156.88222612 80.45071148 -156.53268791 78.86260506 -155.4375 75.4375 C-153.90570753 72.74425506 -152.1014116 70.29353198 -150.25 67.8125 C-149.15159169 66.30002505 -148.0539676 64.78698034 -146.95703125 63.2734375 C-146.09198975 62.08959473 -146.09198975 62.08959473 -145.20947266 60.88183594 C-142.2303573 56.772315 -139.33842209 52.60238954 -136.4375 48.4375 C-135.26215496 46.75750723 -134.08637517 45.07781855 -132.91015625 43.3984375 C-131.18238276 40.93074199 -129.45510993 38.46270884 -127.72998047 35.99316406 C-126.114208 33.68114141 -124.49500129 31.37156081 -122.875 29.0625 C-122.39869141 28.37929687 -121.92238281 27.69609375 -121.43164062 26.9921875 C-113.57532583 15.81677528 -113.57532583 15.81677528 -109.4375 14.4375 C-106.95816483 14.34671043 -104.5076102 14.31140751 -102.02856445 14.32397461 C-101.27710144 14.32382858 -100.52563843 14.32368256 -99.75140381 14.3235321 C-97.26783358 14.32422871 -94.78433837 14.33200933 -92.30078125 14.33984375 C-90.57871034 14.34170882 -88.85663889 14.34313231 -87.13456726 14.34413147 C-82.60210709 14.3479496 -78.06967896 14.35777389 -73.53723145 14.36883545 C-68.91219516 14.37906469 -64.28715371 14.38363234 -59.66210938 14.38867188 C-50.5872255 14.39939677 -41.51236542 14.41646477 -32.4375 14.4375 C-32.29578369 13.65125244 -32.15406738 12.86500488 -32.00805664 12.05493164 C-30.95263714 7.21318906 -27.54688551 4.07706783 -23.71875 1.1015625 C-16.7998579 -3.03218236 -7.33349874 -3.25151288 0 0 Z M-19.4375 14.4375 C-21.92136059 18.16329089 -21.8179212 20.02461402 -21.4375 24.4375 C-20.19793745 27.22651573 -19.15299246 28.88100587 -16.75 30.75 C-13.26847941 31.78504666 -9.9918693 32.14978432 -6.4375 31.4375 C-3.74644802 29.26175584 -1.98217072 27.52684144 -0.4375 24.4375 C-0.31477984 19.8968539 -0.57391988 16.45347661 -3.5625 12.9375 C-9.99165698 9.58315723 -13.84777583 9.75773093 -19.4375 14.4375 Z M76.5625 73.4375 C74.98794261 76.58661479 75.21450882 78.95758816 75.5625 82.4375 C77.46243229 85.64363573 78.89724007 87.83652918 82.5 89.13671875 C85.99589345 89.75247271 88.07197841 89.64460911 91.375 88.25 C94.93371354 85.30135164 96.36899147 83.74368256 97.0625 79.0625 C96.40303371 74.28136936 94.93815893 72.81315893 91.5625 69.4375 C85.18727759 66.24988879 81.02536585 68.97463415 76.5625 73.4375 Z M-45.4375 74.4375 C-47.19329061 77.94908123 -46.3889506 81.72419974 -45.4375 85.4375 C-42.79678556 88.54422287 -40.9011333 89.30262486 -37 90.4375 C-32.55268306 90.4375 -30.80772405 89.25908293 -27.4375 86.4375 C-24.95363941 82.71170911 -25.0570788 80.85038598 -25.4375 76.4375 C-27.08889305 72.8988006 -28.15355229 71.62679847 -31.4375 69.4375 C-37.77033764 68.31087158 -41.40883716 69.14988002 -45.4375 74.4375 Z M117.75 132.125 C116.00305888 135.52693797 115.7507556 138.75174164 116.5625 142.4375 C118.85449403 145.39800874 118.85449403 145.39800874 121.5625 147.4375 C121.8925 147.7675 122.2225 148.0975 122.5625 148.4375 C127.51145634 148.9407837 129.64282663 148.97258269 134 146.4375 C136.73919053 143.23064279 137.57515832 141.54926725 137.80078125 137.43359375 C137.39011813 133.99344862 135.8055938 131.98371458 133.5625 129.4375 C127.73907165 125.3047444 122.55537669 127.6510286 117.75 132.125 Z " fill="#000000" transform="translate(252.4375,78.5625)"/>
<path d="M0 0 C0.69309049 -0.00297112 1.38618098 -0.00594224 2.10027421 -0.0090034 C4.43405921 -0.01770887 6.76779304 -0.0192002 9.10159302 -0.02069092 C10.77025462 -0.02531776 12.43891516 -0.03034224 14.10757446 -0.03573608 C18.64890168 -0.04887442 23.19021411 -0.05530776 27.73155737 -0.05974674 C30.56687082 -0.06267498 33.4021802 -0.0667793 36.23749161 -0.07125092 C45.10296577 -0.08492923 53.96843066 -0.09459442 62.83391464 -0.09845281 C73.07826453 -0.10293542 83.32248111 -0.12049136 93.56679046 -0.1494534 C101.4785079 -0.17104685 109.39018776 -0.18115583 117.30193436 -0.18249393 C122.03049279 -0.18354358 126.75892597 -0.18948532 131.48745346 -0.20731354 C135.93452269 -0.22375403 140.38137197 -0.22596939 144.82846069 -0.21717453 C146.46192131 -0.21640201 148.09539356 -0.22077511 149.72882462 -0.23063278 C151.95652482 -0.24328986 154.18343868 -0.23751023 156.41113281 -0.22705078 C157.65848646 -0.22851734 158.90584011 -0.2299839 160.19099236 -0.2314949 C163.56983216 0.16853431 164.93074731 0.7855908 167.33255005 3.14044189 C168.27005005 5.01544189 168.27005005 5.01544189 168.33255005 7.14044189 C166.07101159 11.77121113 166.07101159 11.77121113 163.33255005 13.14044189 C161.11186909 13.24143557 158.88807007 13.27557929 156.6651001 13.28088379 C155.97200961 13.28385491 155.27891912 13.28682603 154.56482589 13.28988719 C152.23104088 13.29859266 149.89730706 13.30008399 147.56350708 13.30157471 C145.89484548 13.30620155 144.22618494 13.31122603 142.55752563 13.31661987 C138.01619842 13.32975821 133.47488599 13.33619155 128.93354273 13.34063053 C126.09822928 13.34355877 123.2629199 13.34766309 120.42760849 13.3521347 C111.56213433 13.36581302 102.69666944 13.37547821 93.83118546 13.3793366 C83.58683557 13.38381921 73.34261898 13.40137515 63.09830964 13.43033719 C55.1865922 13.45193064 47.27491234 13.46203961 39.36316574 13.46337771 C34.63460731 13.46442737 29.90617412 13.47036911 25.17764664 13.48819733 C20.73057741 13.50463782 16.28372813 13.50685318 11.8366394 13.49805832 C10.20317879 13.4972858 8.56970654 13.5016589 6.93627548 13.51151657 C4.70857527 13.52417365 2.48166141 13.51839402 0.25396729 13.50793457 C-0.99338636 13.50940113 -2.24074001 13.51086769 -3.52589226 13.51237869 C-6.90473206 13.11234948 -8.26564721 12.49529299 -10.66744995 10.14044189 C-11.60494995 8.26544189 -11.60494995 8.26544189 -11.66744995 6.14044189 C-8.70588529 0.07628568 -6.48763375 0.01548093 0 0 Z " fill="#000000" transform="translate(177.66744995117188,491.85955810546875)"/>
<path d="M0 0 C8.55495531 5.10269016 14.77176267 12.656108 17.58203125 22.31640625 C19.57783205 32.5628887 18.02850552 42.07774008 12.58203125 51.00390625 C7.3270731 58.33489725 0.18978054 63.75175941 -8.79296875 65.31640625 C-18.23095459 66.26614067 -26.26721801 65.35776987 -34.046875 59.66796875 C-41.95724189 52.99587292 -47.11860053 45.97242057 -48.18359375 35.4609375 C-48.67216538 23.88660666 -46.1413811 15.28913406 -38.71875 6.29296875 C-28.82914897 -3.85741283 -12.71179816 -6.05022566 0 0 Z M-30.60546875 16.12890625 C-35.10643087 22.68745105 -37.00332262 28.43147956 -35.79296875 36.31640625 C-33.72540074 43.09842885 -30.39596507 47.67249795 -24.25 51.25 C-18.35366727 53.80913964 -13.06530432 54.14046192 -7.04296875 51.81640625 C-0.87484276 48.66138252 3.0622892 43.87679369 5.20703125 37.31640625 C6.07813102 29.97283264 5.79862453 23.33112493 1.20703125 17.31640625 C-3.55728562 12.25855327 -8.07516072 9.32597011 -15.10546875 8.94140625 C-21.64167372 9.11541503 -26.03861488 11.56205238 -30.60546875 16.12890625 Z " fill="#000000" transform="translate(134.79296875,329.68359375)"/>
<path d="M0 0 C8.50711584 4.83653287 15.96732501 11.24639942 23 18 C24.34191406 19.24716797 24.34191406 19.24716797 25.7109375 20.51953125 C49.01185054 42.80878 61.83843222 73.75158951 63.875 105.6875 C63.9366333 106.54972168 63.9982666 107.41194336 64.06176758 108.30029297 C64.35004335 114.31767669 64.35004335 114.31767669 62.69140625 117.55078125 C61 119 61 119 58.0625 119.5 C54.26019516 118.87921554 53.31953632 118.03854333 51 115 C50.53125 111.77734375 50.53125 111.77734375 50.5 107.9375 C49.61373746 81.06975132 38.93384219 56.53800455 22 36 C21.1646875 34.95199219 21.1646875 34.95199219 20.3125 33.8828125 C13.78564338 25.90160196 5.54572296 20.10983828 -2.828125 14.234375 C-4.39820313 13.12835938 -4.39820313 13.12835938 -6 12 C-7.18335938 11.21882813 -7.18335938 11.21882813 -8.390625 10.421875 C-10 9 -10 9 -10.5 5.5 C-10 2 -10 2 -8.375 0 C-5.12943106 -1.36655534 -3.40545472 -0.85341516 0 0 Z " fill="#000000" transform="translate(371,52)"/>
<path d="M0 0 C1.03124496 -0.00953201 2.06248993 -0.01906403 3.12498474 -0.02888489 C4.80153893 -0.02751778 4.80153893 -0.02751778 6.51196289 -0.02612305 C8.22833702 -0.03255074 8.22833702 -0.03255074 9.97938538 -0.03910828 C12.40291684 -0.04485963 14.82646558 -0.04534594 17.25 -0.04101562 C20.96587481 -0.03785773 24.68095237 -0.0612987 28.39672852 -0.08666992 C30.74763897 -0.08894296 33.09855156 -0.08964639 35.44946289 -0.08862305 C37.12298073 -0.10243767 37.12298073 -0.10243767 38.83030701 -0.11653137 C40.38190269 -0.10718819 40.38190269 -0.10718819 41.96484375 -0.09765625 C42.87592392 -0.09828568 43.78700409 -0.0989151 44.72569275 -0.0995636 C47.513496 0.34983973 48.40436196 1.00733606 50.04711914 3.2746582 C50.68747589 8.39751221 50.68747589 8.39751221 48.83360291 10.93690491 C46.47533814 12.70281878 45.01991036 12.66085979 42.08837891 12.67871094 C41.08045792 12.69139511 40.07253693 12.70407928 39.03407288 12.71714783 C37.94654221 12.71421219 36.85901154 12.71127655 35.73852539 12.70825195 C34.06112526 12.71611473 34.06112526 12.71611473 32.34983826 12.72413635 C29.98355948 12.73056335 27.61724878 12.72921085 25.25097656 12.72070312 C21.6271073 12.71219924 18.00481671 12.74093756 14.38110352 12.77270508 C12.08357795 12.77431726 9.78604958 12.77373923 7.48852539 12.77075195 C5.86026573 12.78760292 5.86026573 12.78760292 4.19911194 12.80479431 C3.18803879 12.79541336 2.17696564 12.78603241 1.13525391 12.77636719 C-0.19686378 12.77611794 -0.19686378 12.77611794 -1.55589294 12.77586365 C-4.75188404 12.10758821 -5.97793366 10.82737093 -7.95288086 8.2746582 C-7.70427509 2.05951386 -6.13970973 0.03107605 0 0 Z " fill="#000000" transform="translate(446.952880859375,431.725341796875)"/>
<path d="M0 0 C1.78277344 -0.0299707 1.78277344 -0.0299707 3.6015625 -0.06054688 C4.74367188 -0.05990234 5.88578125 -0.05925781 7.0625 -0.05859375 C8.10535156 -0.06044678 9.14820313 -0.0622998 10.22265625 -0.06420898 C13.69330995 0.56274191 14.90563636 1.64133529 17 4.4375 C16.85205998 8.1360004 16.64194427 9.79555573 14 12.4375 C9.37144189 12.89982157 4.71145203 12.76147889 0.0625 12.75 C-1.88946289 12.77416992 -1.88946289 12.77416992 -3.88085938 12.79882812 C-5.74774414 12.79979492 -5.74774414 12.79979492 -7.65234375 12.80078125 C-8.79695068 12.80376221 -9.94155762 12.80674316 -11.12084961 12.80981445 C-14 12.4375 -14 12.4375 -15.86938477 11.10229492 C-17.65751381 8.46933185 -17.44990673 6.52257469 -17 3.4375 C-12.35104237 -1.22310743 -6.14462059 -0.03665446 0 0 Z " fill="#000000" transform="translate(72,151.5625)"/>
<path d="M0 0 C3.10995797 0.65695875 5.6053012 1.80458278 8.29296875 3.484375 C9.70738749 6.31321247 9.61197207 8.35814245 9.29296875 11.484375 C7.73046875 13.421875 7.73046875 13.421875 5.29296875 14.484375 C0.05605773 14.28675572 -4.08466751 12.79555687 -8.70703125 10.484375 C-10.22853283 7.44137184 -9.94602518 4.83029 -9.70703125 1.484375 C-5.93565091 -1.02987856 -4.31424781 -0.59118567 0 0 Z " fill="#000000" transform="translate(350.70703125,42.515625)"/>
<path d="M0 0 C1.56041016 0.12761719 1.56041016 0.12761719 3.15234375 0.2578125 C6.27467478 0.91999814 7.82039581 1.62231985 10.0625 3.875 C10.625 7.375 10.625 7.375 10.0625 10.875 C7.2440908 13.18609554 5.68792266 13.89025421 2.01953125 13.80078125 C0.98183594 13.59839844 -0.05585938 13.39601563 -1.125 13.1875 C-2.17042969 12.99800781 -3.21585937 12.80851562 -4.29296875 12.61328125 C-6.9375 11.875 -6.9375 11.875 -8.9375 9.875 C-9.4971954 3.71835056 -9.4971954 3.71835056 -7.7890625 1.14453125 C-5.09593224 -0.70202431 -3.20831825 -0.30933106 0 0 Z " fill="#000000" transform="translate(322.9375,35.125)"/>
<path d="M0 0 C2 2 2 2 2.3125 4.9375 C2 8 2 8 0.9375 9.875 C-2.09814371 11.63763183 -4.57798172 11.37331109 -8 11 C-10.31282587 7.53076119 -10.42478586 6.07794425 -10 2 C-7.65131237 -2.28290097 -4.2151329 -0.99630414 0 0 Z " fill="#000000" transform="translate(101,463)"/>
<path d="M0 0 C1 1 1 1 1.25 4.4375 C1.1675 5.613125 1.085 6.78875 1 8 C-2.23253796 10.15502531 -3.25150923 10.46856135 -7 10 C-8.875 8.9375 -8.875 8.9375 -10 7 C-9.9375 3.4375 -9.9375 3.4375 -9 0 C-5.79032072 -2.86578508 -3.58848064 -1.8427333 0 0 Z " fill="#000000" transform="translate(124,404)"/>
<path d="M0 0 C3.0625 0.3125 3.0625 0.3125 4.9375 1.5 C6.46909584 3.96757108 6.49072025 5.45769831 6.0625 8.3125 C4.9375 10.125 4.9375 10.125 3.0625 11.3125 C0.0625 11.75 0.0625 11.75 -2.9375 11.3125 C-4.875 9.625 -4.875 9.625 -5.9375 7.3125 C-5.61764525 2.8345335 -4.76027546 0.50641228 0 0 Z " fill="#000000" transform="translate(72.9375,355.6875)"/>
<path d="M0 0 C1 1 1 1 1.3125 4.375 C1 8 1 8 -0.625 10.0625 C-3.96810888 11.38214824 -5.78946147 10.38636891 -9 9 C-10.32 2.64 -10.32 2.64 -9 0 C-5.85440657 -1.57279672 -3.33684358 -0.7415208 0 0 Z " fill="#000000" transform="translate(124,310)"/>
<path d="M0 0 C2 2 2 2 2.25 5.5 C2 9 2 9 0 11 C-3.09771665 11.32954432 -5.17331023 11.45334601 -7.9375 9.9375 C-9.64787795 6.81857551 -8.80513863 4.34442199 -8 1 C-5.23749964 -0.38125018 -3.05268901 -0.19079306 0 0 Z " fill="#000000" transform="translate(156,389)"/>
<path d="M0 0 C2 2 2 2 2.25 5.5 C2 9 2 9 0 11 C-3.09771665 11.32954432 -5.17331023 11.45334601 -7.9375 9.9375 C-9.64787795 6.81857551 -8.80513863 4.34442199 -8 1 C-5.23749964 -0.38125018 -3.05268901 -0.19079306 0 0 Z " fill="#000000" transform="translate(90,389)"/>
<path d="M0 0 C3.0625 0.3125 3.0625 0.3125 5 1.375 C6.71037795 4.49392449 5.86763863 6.96807801 5.0625 10.3125 C2.29999964 11.69375018 0.11518901 11.50329306 -2.9375 11.3125 C-4.9375 9.3125 -4.9375 9.3125 -5.1875 5.8125 C-4.87458101 1.43163414 -4.40975115 0.46912246 0 0 Z " fill="#000000" transform="translate(165.9375,355.6875)"/>
<path d="M0 0 C2 2 2 2 2.25 5.5 C2 9 2 9 0 11 C-3.09771665 11.32954432 -5.17331023 11.45334601 -7.9375 9.9375 C-9.64787795 6.81857551 -8.80513863 4.34442199 -8 1 C-5.23749964 -0.38125018 -3.05268901 -0.19079306 0 0 Z " fill="#000000" transform="translate(156,323)"/>
<path d="M0 0 C2 2 2 2 2.25 5.5 C2 9 2 9 0 11 C-3.09771665 11.32954432 -5.17331023 11.45334601 -7.9375 9.9375 C-9.64787795 6.81857551 -8.80513863 4.34442199 -8 1 C-5.23749964 -0.38125018 -3.05268901 -0.19079306 0 0 Z " fill="#000000" transform="translate(90,323)"/>
</svg>
