<?xml version="1.0" encoding="UTF-8"?>
<svg version="1.1" xmlns="http://www.w3.org/2000/svg" width="512" height="512">
<path d="M0 0 C4.58404724 3.42903381 8.76270339 7.0504113 12.81070232 11.09354019 C13.41831402 11.69282837 14.02592571 12.29211655 14.65194988 12.90956497 C16.63512217 14.86887554 18.61077026 16.83554427 20.58536053 18.80350113 C21.97435525 20.18351422 23.36341998 21.56345686 24.75255108 22.94333267 C27.65340657 25.82776235 30.54989698 28.71649967 33.44400311 31.60770035 C37.13733671 35.29564475 40.84656865 38.96714507 44.55994225 42.63489532 C47.4313358 45.47643088 50.29129678 48.32926861 53.14829731 51.1852684 C54.51043907 52.54322842 55.87666604 53.89710436 57.24717045 55.24662399 C66.7860329 64.65091395 75.21581752 73.19035494 75.51114178 87.35037613 C75.28484691 105.69911819 60.76295478 116.39544655 48.69473553 128.53006363 C47.74571204 129.48520041 47.74571204 129.48520041 46.77751637 130.45963287 C43.43847046 133.81936081 40.09628667 137.17593138 36.75162029 140.53006363 C33.31481601 143.97799521 29.88986869 147.43746623 26.46731758 150.89953804 C23.81359955 153.57943996 21.15099628 156.25038027 18.48595142 158.91901398 C17.21919235 160.1906212 15.95579214 161.4655843 14.69595432 162.74404907 C12.93333881 164.53113107 11.15838115 166.30503644 9.38003826 168.07645035 C8.8712463 168.59805237 8.36245434 169.11965439 7.83824444 169.65706253 C1.02277576 176.3768134 -7.25477548 179.34057107 -16.67635822 180.10037613 C-26.21332722 179.78309927 -34.97728112 175.78047994 -41.59042072 168.93631363 C-48.67426137 160.17747617 -49.89718189 150.84687816 -48.80135822 139.78787613 C-47.45927682 133.72740789 -44.80871362 129.55202427 -40.64510822 124.99490738 C-39.92516682 124.20189224 -39.20522541 123.40887711 -38.4634676 122.59183121 C-37.64072346 121.69887344 -37.64072346 121.69887344 -36.80135822 120.78787613 C-37.43140766 120.7842305 -38.0614571 120.78058487 -38.71059895 120.77682877 C-45.26450286 120.73503901 -51.81770417 120.66571814 -58.37118244 120.5803566 C-60.81740004 120.55211978 -63.26370934 120.53091882 -65.71004963 120.51688004 C-69.22533936 120.49548882 -72.73952334 120.44885575 -76.25448322 120.39725113 C-77.34940083 120.39602249 -78.44431843 120.39479385 -79.57241535 120.39352798 C-80.59317158 120.37380936 -81.6139278 120.35409073 -82.66561604 120.33377457 C-84.01130665 120.3204509 -84.01130665 120.3204509 -85.38418293 120.30685806 C-88.55738361 119.62555297 -89.77584589 118.26711711 -91.80135822 115.78787613 C-92.51018125 112.88002732 -92.14107611 110.84533713 -91.80135822 107.78787613 C-89.98972555 105.11356124 -88.92374745 104.82867254 -85.80135822 103.78787613 C-83.50753462 103.68787973 -81.21087529 103.64955647 -78.91488361 103.64261246 C-78.21861362 103.63925385 -77.52234364 103.63589523 -76.80497456 103.63243484 C-74.50296972 103.62293473 -72.20103769 103.62098226 -69.89901447 103.61990738 C-68.29862659 103.61669434 -66.69823901 103.61333023 -65.09785175 103.60982132 C-61.74291013 103.60383255 -58.38799427 103.60198118 -55.03304768 103.60257339 C-50.73441375 103.60267505 -46.43594488 103.58901844 -42.13735008 103.57180119 C-38.83194438 103.56068257 -35.52657861 103.55865414 -32.22115612 103.55918312 C-30.63632799 103.55800297 -29.05149883 103.55357919 -27.46668911 103.54585075 C-25.25008419 103.53605279 -23.03383806 103.5389279 -20.81722736 103.54495621 C-19.55608616 103.54353119 -18.29494495 103.54210617 -16.99558735 103.54063797 C-13.96530029 103.77518677 -12.30442448 104.12739955 -9.80135822 105.78787613 C-7.93992774 108.18114389 -7.802478 109.76679162 -7.64120197 112.80350113 C-8.60797832 118.91317811 -14.38922896 122.85676402 -18.67635822 126.85037613 C-20.51387277 128.58409802 -22.34485389 130.32477627 -24.16854572 132.07303238 C-24.98436115 132.83494888 -25.80017658 133.59686539 -26.64071369 134.38187027 C-30.83412467 139.05148216 -32.3809219 143.39611427 -32.15292072 149.54178238 C-31.4156572 154.25207711 -29.25118767 157.54516517 -25.61385822 160.66287613 C-21.2145299 162.42260746 -16.62658841 163.88705258 -12.03087139 162.09905529 C-6.91906197 159.64791371 -3.19074902 156.74881122 0.76651287 152.72171402 C1.36918987 152.12444 1.97186687 151.52716599 2.59280682 150.91179276 C4.5625617 148.95444484 6.51756428 146.98308904 8.47207928 145.01053238 C9.84525223 143.63751455 11.21909331 142.26516464 12.59356976 140.89345169 C15.46262868 138.02577299 18.32462398 135.15128184 21.18155193 132.27151871 C24.84152113 128.5830994 28.5169211 124.91052572 32.19748783 121.24267292 C35.03240108 118.41471568 37.85989532 115.57943521 40.68511105 112.74179268 C42.03782486 111.38456837 43.3926269 110.02942199 44.74955654 108.67641258 C46.64288054 106.78600162 48.52620665 104.88616424 50.40713787 102.98343277 C50.96712475 102.42794754 51.52711163 101.87246231 52.1040678 101.3001442 C56.92814082 96.38290706 58.37882148 92.80729806 58.56192303 85.94803238 C57.52074631 79.75694934 53.5445649 75.69532176 49.27774334 71.46292496 C48.38687023 70.56175697 48.38687023 70.56175697 47.47799969 69.64238358 C45.52268212 67.66884211 43.55655947 65.7065067 41.58926678 63.74490738 C40.21990239 62.37097923 38.85090977 60.99668046 37.48227215 59.62202835 C34.6157202 56.74655401 31.74357422 53.87681285 28.86758709 51.01077652 C25.18940715 47.34408708 21.5273223 43.66178327 17.86951351 39.9747858 C15.04720572 37.13410048 12.21561103 34.30281692 9.38125134 31.47416115 C8.02744024 30.12050307 6.67671545 28.7637508 5.32920361 27.40382195 C3.4413098 25.50099086 1.54102643 23.61143353 -0.36288166 21.72464371 C-0.91274738 21.16511002 -1.46261311 20.60557632 -2.02914143 20.02908707 C-6.13397269 16.00085955 -10.32696928 13.09362236 -16.24276447 12.57303238 C-21.33434351 13.23878212 -24.83387882 14.2927157 -28.80135822 17.78787613 C-31.67444794 21.90597139 -32.16282379 25.47292967 -32.29745197 30.34646988 C-30.40547672 39.65737172 -22.05859675 45.62923952 -15.4478426 51.76053238 C-8.33252875 58.59606133 -8.33252875 58.59606133 -7.67635822 62.73709488 C-7.80216545 65.80757762 -7.92180954 67.37131354 -9.80135822 69.78787613 C-13.09784361 71.87622618 -15.74112403 72.0400338 -19.60163593 72.04616165 C-20.78630451 72.05298965 -21.97097309 72.05981766 -23.19154072 72.06685257 C-24.48775852 72.06429962 -25.78397633 72.06174667 -27.11947346 72.05911636 C-28.50109889 72.06350446 -29.88272168 72.06880692 -31.2643404 72.07495499 C-34.23760248 72.08644935 -37.21079333 72.09191398 -40.18407726 72.09283638 C-44.88632784 72.0947777 -49.58843118 72.11283398 -54.29063129 72.13359451 C-65.97002848 72.18277381 -77.64946562 72.21367047 -89.32894611 72.23489761 C-98.40601782 72.25141988 -107.48296328 72.27423033 -116.55995041 72.31791836 C-121.2334817 72.33969633 -125.90677318 72.34775245 -130.58035171 72.34552562 C-133.48910195 72.34719304 -136.39769577 72.36124555 -139.30638981 72.3787384 C-141.29612591 72.38700165 -143.28590635 72.38040825 -145.27564716 72.37337112 C-146.46313557 72.38301895 -147.65062397 72.39266678 -148.87409687 72.40260696 C-149.90407512 72.40461829 -150.93405336 72.40662962 -151.99524307 72.4087019 C-155.23076348 72.8458992 -157.09551253 74.01651582 -159.80135822 75.78787613 C-160.46135822 75.78787613 -161.12135822 75.78787613 -161.80135822 75.78787613 C-164.76660765 81.52069169 -165.4155928 86.37936199 -164.80135822 92.78787613 C-163.45042942 95.71334053 -163.45042942 95.71334053 -161.80135822 97.78787613 C-161.80135822 98.44787613 -161.80135822 99.10787613 -161.80135822 99.78787613 C-160.62573322 100.25193863 -160.62573322 100.25193863 -159.42635822 100.72537613 C-156.80135822 101.78787613 -156.80135822 101.78787613 -154.80135822 102.78787613 C-152.0058731 102.92075418 -149.23120787 102.99785041 -146.43417072 103.03396988 C-144.72713436 103.06690928 -143.02010324 103.10012091 -141.31307697 103.13357925 C-138.61828954 103.18098983 -135.92352321 103.22541744 -133.22860432 103.26468277 C-130.63023356 103.30442704 -128.0323001 103.35596702 -125.43417072 103.40896988 C-124.62988636 103.41738403 -123.825602 103.42579819 -122.99694538 103.43446732 C-115.93475144 103.59033492 -115.93475144 103.59033492 -112.80135822 105.78787613 C-110.7045642 108.48375416 -110.80625001 109.88082013 -110.98885822 113.35037613 C-111.80931802 116.82155219 -112.08824817 117.70667154 -114.80135822 119.78787613 C-116.73400593 120.17555618 -116.73400593 120.17555618 -118.94637775 120.19192886 C-119.77799427 120.20461304 -120.60961079 120.21729721 -121.4664278 120.23036575 C-122.36328297 120.22743011 -123.26013813 120.22449448 -124.18417072 120.22146988 C-125.11301075 120.22671173 -126.04185078 120.23195358 -126.99883747 120.23735428 C-128.96750611 120.24378123 -130.93621311 120.2424288 -132.90487385 120.23392105 C-135.8945188 120.22546617 -138.88221732 120.25407303 -141.87167072 120.285923 C-143.78833682 120.28753668 -145.70500627 120.28695431 -147.62167072 120.28396988 C-148.5063805 120.29520386 -149.39109028 120.30643784 -150.30260944 120.31801224 C-159.08023317 120.22119906 -167.37416241 116.87679848 -173.80135822 110.78787613 C-181.55871935 101.13585998 -182.77025005 91.79735011 -181.80135822 79.78787613 C-180.92915502 76.412214 -179.65476606 73.72650303 -177.80135822 70.78787613 C-177.45073322 70.166548 -177.10010822 69.54521988 -176.73885822 68.90506363 C-172.47099666 62.05870237 -165.50233859 57.80765186 -157.80135822 55.78787613 C-153.87288712 55.47780038 -149.952035 55.47669562 -146.012784 55.46902847 C-144.24119671 55.45396004 -144.24119671 55.45396004 -142.43381977 55.43858719 C-139.20906295 55.4130592 -135.98440161 55.39616519 -132.75957441 55.38315916 C-129.38428155 55.36748831 -126.00907691 55.34071078 -122.63384724 55.31512833 C-116.24858144 55.26841032 -109.86329892 55.23163256 -103.47794998 55.19845545 C-96.20582687 55.16018462 -88.93379254 55.11078752 -81.66174436 55.0604713 C-66.70834799 54.95725531 -51.75489771 54.86796145 -36.80135822 54.78787613 C-37.34985432 54.19257095 -37.89835041 53.59726578 -38.4634676 52.98392105 C-39.183409 52.19090591 -39.90335041 51.39789078 -40.64510822 50.58084488 C-41.71535236 49.40944962 -41.71535236 49.40944962 -42.8072176 48.2143898 C-48.47050056 41.32318395 -49.47446144 33.99321687 -49.18026447 25.25271988 C-48.20097579 16.29778108 -44.87545783 8.55288969 -37.80135822 2.78787613 C-26.50518476 -4.07372526 -11.97333276 -8.05678863 0 0 Z " fill="#000000" transform="translate(181.80135822296143,168.2121238708496)"/>
<path d="M0 0 C0.90632836 -0.00382555 1.81265673 -0.00765109 2.74644959 -0.01159257 C5.76625789 -0.0218647 8.78587399 -0.01794144 11.80569458 -0.01396179 C13.9778155 -0.01831147 16.14993489 -0.02349547 18.322052 -0.02944946 C24.210509 -0.04282321 30.09890175 -0.04341992 35.98737097 -0.04088616 C40.90778497 -0.03981535 45.82818604 -0.04470267 50.74859726 -0.04949158 C62.35911093 -0.06058117 73.96959224 -0.06102726 85.58010864 -0.05497742 C97.54753658 -0.04893737 109.51482681 -0.06125073 121.4822377 -0.08254749 C131.76697884 -0.10017511 142.05168261 -0.106163 152.3364383 -0.10290974 C158.47465915 -0.10109859 164.61279613 -0.10371637 170.75100327 -0.11762428 C176.52453956 -0.13021681 182.29789285 -0.12824489 188.07142639 -0.11521339 C190.1861337 -0.11285118 192.30085395 -0.11556952 194.41554642 -0.12383652 C197.31077022 -0.1343357 200.20538353 -0.1261778 203.10058594 -0.11352539 C203.92979109 -0.12089968 204.75899624 -0.12827396 205.61332881 -0.13587171 C215.25857353 -0.04769501 223.62499196 2.52690203 230.67727661 9.26069641 C238.25472054 17.71444338 240.53363316 25.86076595 240.14993286 36.95210266 C239.5058678 45.0917216 235.72867393 51.69058152 229.86477661 57.26069641 C221.55149875 63.79028247 213.1083584 65.41014754 202.81143188 65.40786743 C201.47120995 65.41338246 201.47120995 65.41338246 200.10391283 65.41900891 C197.10948137 65.43002326 194.11508465 65.43388581 191.12063599 65.43769836 C188.97352997 65.44396481 186.82642504 65.45061177 184.67932129 65.45761108 C177.62656405 65.47863571 170.57380665 65.4890133 163.52102661 65.49897766 C161.09036752 65.50302608 158.65970854 65.50714303 156.22904968 65.51132774 C144.80654977 65.5303774 133.3840563 65.54460784 121.96154356 65.55293971 C108.79114971 65.56270588 95.62092421 65.58901032 82.45058966 65.62944061 C72.26183352 65.65964079 62.07312552 65.67441237 51.8843255 65.67772073 C45.80348901 65.6800671 39.72283241 65.68897386 33.64204407 65.7141819 C27.91611774 65.73753522 22.19048882 65.74166657 16.46452713 65.73142052 C14.37042372 65.73092678 12.27630531 65.73719893 10.18224716 65.75097656 C-17.66747154 65.92386168 -17.66747154 65.92386168 -26.88522339 57.01069641 C-33.7541692 50.19741467 -37.23118937 42.28847513 -37.35787964 32.56147766 C-36.76321796 22.16215027 -32.93486115 14.3612241 -25.32272339 7.26069641 C-17.6313687 1.18776305 -9.55023335 -0.04329479 0 0 Z M-17.69772339 22.44819641 C-20.25644402 26.87675135 -21.78503578 31.29020647 -20.98287964 36.44429016 C-19.09149613 42.36465629 -15.68039215 45.51266996 -10.17888355 48.37679482 C-6.24679777 49.59366526 -2.59288803 49.54343108 1.50083923 49.52812195 C2.38968125 49.53265306 3.27852326 49.53718417 4.19429988 49.54185259 C7.17280916 49.5545133 10.15113598 49.55287514 13.12966919 49.55122375 C15.26518489 49.55720797 17.40069842 49.56401327 19.53620911 49.57157898 C25.33792959 49.58925735 31.1395911 49.59393515 36.94133592 49.59521055 C41.78474383 49.59710945 46.628138 49.60446692 51.47154063 49.61155474 C62.89925723 49.62784339 74.32694232 49.63272327 85.75466919 49.63130188 C97.54203141 49.6301004 109.32921054 49.65120247 121.11652642 49.68278921 C131.23727175 49.70894333 141.35795724 49.71966953 151.4787361 49.71839106 C157.52307328 49.71788116 163.56724777 49.72357988 169.61155128 49.74474716 C175.29725894 49.76411474 180.98264849 49.76426391 186.66836739 49.7497139 C188.75327774 49.74762286 190.83820792 49.7523442 192.92308426 49.76443481 C195.77335038 49.77989138 198.62252023 49.7705762 201.47276306 49.75517273 C202.29427646 49.76545986 203.11578986 49.77574698 203.9621976 49.78634584 C209.62164917 49.71893891 213.9459607 48.42723371 218.67727661 45.26069641 C223.40558345 40.16867366 224.03459716 36.82044288 223.95462036 30.02241516 C223.56337631 26.12650605 222.32224182 24.11447466 219.67727661 21.26069641 C213.73304518 16.77219513 209.35923893 16.11191946 202.09422302 16.11352539 C201.20708986 16.1098487 200.3199567 16.10617201 199.40594071 16.10238391 C196.42126628 16.09133531 193.43662665 16.08750123 190.45193481 16.08369446 C188.31671538 16.07743069 186.18149704 16.07078397 184.04627991 16.06378174 C178.23619214 16.04636387 172.4261126 16.03581777 166.61600518 16.02757621 C162.98682719 16.0224276 159.35765176 16.0163518 155.72847557 16.01006508 C144.37592476 15.9910106 133.02338046 15.97678014 121.67081672 15.96845311 C108.56204305 15.95867947 95.45343818 15.93235757 82.344724 15.89195222 C72.2155338 15.86180116 62.086392 15.84698518 51.95715779 15.8436721 C45.90607322 15.84132044 39.85516893 15.83234469 33.80413246 15.80721092 C28.11025786 15.78394311 22.41668241 15.77969195 16.7227726 15.78997231 C14.63463344 15.79046809 12.54647962 15.78413519 10.45838547 15.77041626 C7.60364837 15.75271215 4.74998655 15.75979646 1.89524841 15.77294922 C1.07237078 15.76197997 0.24949314 15.75101073 -0.59832019 15.73970908 C-7.41559162 15.81534116 -12.65681898 17.80525814 -17.69772339 22.44819641 Z " fill="#000000" transform="translate(272.3227233886719,367.7393035888672)"/>
<path d="M0 0 C2.14563547 -0.0001552 4.29127121 -0.00164766 6.43690491 -0.00440979 C10.91094509 -0.00578762 15.38466227 0.00666803 19.85864258 0.02954102 C25.59077768 0.05804436 31.32238168 0.05514739 37.05455685 0.0424509 C41.47520995 0.03549897 45.89574022 0.0432755 50.31637764 0.05570793 C52.43067517 0.06021866 54.54498589 0.06056255 56.65928459 0.05664253 C59.60768647 0.05373206 62.55535318 0.07022552 65.50366211 0.09204102 C66.37385483 0.08753937 67.24404755 0.08303772 68.14060974 0.07839966 C72.83091661 0.13605824 75.98558509 0.42994608 79.78515625 3.49609375 C81.21177844 6.34933812 81.09549493 8.33063924 80.78515625 11.49609375 C79.34259033 14.1580658 79.34259033 14.1580658 76.78515625 16.49609375 C73.71217503 17.23136012 70.70045445 17.14535185 67.55371094 17.09204102 C66.61988083 17.09609955 65.68605072 17.10015808 64.72392273 17.1043396 C62.69686626 17.10985855 60.66975313 17.1038435 58.6427536 17.08767891 C55.43055612 17.06229075 52.21964409 17.06704771 49.00738525 17.07957458 C42.18316833 17.10034534 35.3593471 17.0806409 28.53515625 17.05859375 C20.63998825 17.03747513 12.74523418 17.0329759 4.85007477 17.05909538 C1.69245786 17.0624491 -1.46436427 17.04125331 -4.62188721 17.01869202 C-6.56986665 17.02120467 -8.51784511 17.02476608 -10.46582031 17.02954102 C-11.33779556 17.01665543 -12.20977081 17.00376984 -13.10816956 16.99049377 C-18.91122859 17.03773704 -23.38847379 18.17176436 -28.21484375 21.49609375 C-31.78275909 25.61291914 -33.12092497 29.04880469 -33.21484375 34.49609375 C-31.98787103 40.67814859 -29.38507227 44.01410312 -24.21484375 47.49609375 C-20.04657781 48.82300205 -15.8438054 48.64422577 -11.51153564 48.64326477 C-10.62354806 48.64694146 -9.73556047 48.65061815 -8.82066417 48.65440625 C-5.8390958 48.66543724 -2.85756228 48.66928593 0.12402344 48.6730957 C2.25939037 48.67936073 4.39475621 48.68600757 6.53012085 48.69300842 C13.5474166 48.7140443 20.56471256 48.7244095 27.58203125 48.734375 C29.99763246 48.73842255 32.41323356 48.74253948 34.82883453 48.74672508 C46.17604256 48.7657747 57.52324409 48.78000694 68.87046504 48.78833705 C81.97073862 48.79811286 95.07084338 48.82444244 108.17105746 48.86483794 C118.29602158 48.89498831 128.42093727 48.90980486 138.54594541 48.91311806 C144.59366167 48.91546953 150.64119753 48.92444297 156.68886566 48.94957924 C162.3786497 48.97284627 168.06813438 48.97709854 173.75795364 48.96681786 C175.8444811 48.96632208 177.93102323 48.97265486 180.01750565 48.9863739 C182.86999998 49.00407804 185.7214182 48.99699374 188.57391357 48.98384094 C189.39610909 48.99481019 190.21830461 49.00577943 191.06541514 49.01708108 C196.73831678 48.95409464 201.03398896 47.64805947 205.78515625 44.49609375 C209.33227327 40.8602988 210.07093852 37.9297959 210.28515625 32.99609375 C210.07093852 28.0623916 209.33227327 25.1318887 205.78515625 21.49609375 C200.08649507 17.6939152 195.04296277 16.92342292 188.31152344 17.01367188 C187.39994476 17.00975937 186.48836609 17.00584686 185.54916382 17.0018158 C183.58383624 16.99586891 181.61846431 16.9989597 179.6531601 17.01023865 C176.54265803 17.02756304 173.43308003 17.01996045 170.3225708 17.00598145 C163.72670212 16.98070189 157.13105365 16.98614609 150.53515625 16.99609375 C142.87602365 17.00761813 135.21734125 17.00653441 127.55826569 16.97203064 C124.49356433 16.96492841 121.42957437 16.98161943 118.3649292 16.99914551 C116.49035252 16.99343983 114.61577877 16.98662364 112.74121094 16.97851562 C111.88919098 16.98983017 111.03717102 17.00114471 110.15933228 17.01280212 C104.39060495 16.9530312 104.39060495 16.9530312 101.26080322 14.59094238 C99.67396641 12.33824713 99.21732631 11.22502261 99.22265625 8.49609375 C99.20074219 7.83609375 99.17882812 7.17609375 99.15625 6.49609375 C100.1738748 3.25992046 101.94388146 2.28692337 104.78515625 0.49609375 C107.7947374 -0.08070837 110.75020959 -0.04064403 113.80712891 -0.00561523 C115.15697372 -0.01371971 115.15697372 -0.01371971 116.53408813 -0.02198792 C119.50613416 -0.03448321 122.47721243 -0.01797076 125.44921875 0 C127.52322439 -0.00015505 129.59723033 -0.00164503 131.67123413 -0.00440979 C136.020699 -0.00579443 140.36983441 0.00676888 144.71923828 0.02954102 C150.2705086 0.05781935 155.82122717 0.05521797 161.37253761 0.0424509 C165.65876904 0.03546198 169.94487513 0.04332135 174.23109055 0.05570793 C176.27623385 0.06019877 178.32139074 0.06058011 180.36653519 0.05664253 C206.80515137 0.02958424 206.80515137 0.02958424 216.77734375 8.46484375 C224.4346286 16.21151325 227.28606383 24.10082525 227.28491211 34.83374023 C227.00783258 44.41292148 223.29171929 51.49502732 216.34765625 58.05859375 C208.44870831 64.45740536 200.71874694 65.64671402 190.82319641 65.63653564 C189.91943132 65.63950677 189.01566623 65.64247789 188.08451432 65.64553905 C185.05543831 65.65421217 182.02640189 65.65573313 178.99731445 65.65722656 C176.82563696 65.66185573 174.65396028 65.66688053 172.48228455 65.67227173 C166.58127124 65.68538861 160.68026931 65.69183936 154.77924371 65.69628239 C151.09141083 65.6992144 147.40358106 65.70331946 143.71574974 65.70778656 C132.17418632 65.72145992 120.63262999 65.73112724 109.09105903 65.73498845 C95.77406517 65.73946825 82.45720597 65.75701324 69.14024097 65.78598905 C58.84282703 65.80761591 48.54544197 65.81769328 38.24800557 65.81902957 C32.09967201 65.82007692 25.951435 65.82596987 19.80312538 65.84384918 C14.01732786 65.86034702 8.2316993 65.86247695 2.44588661 65.85371017 C0.3263402 65.85294071 -1.79321536 65.85727052 -3.9127388 65.86716843 C-6.8146807 65.87992168 -9.71602723 65.87399268 -12.6179657 65.86358643 C-13.44921721 65.87164283 -14.28046872 65.87969923 -15.13690966 65.88799977 C-26.02306809 65.79720825 -34.15506257 62.34975992 -41.9375 54.83203125 C-48.36165252 47.91856981 -50.40144156 39.83842393 -50.21484375 30.49609375 C-49.16944598 22.46784486 -46.78597906 16.38407088 -41.21484375 10.49609375 C-40.71210938 9.94179687 -40.209375 9.3875 -39.69140625 8.81640625 C-29.10916889 -1.55934843 -13.6723742 -0.08078182 0 0 Z " fill="#000000" transform="translate(285.21484375,78.50390625)"/>
<path d="M0 0 C1.08969523 -0.00551503 1.08969523 -0.00551503 2.20140451 -0.01114148 C4.64245042 -0.02217878 7.08345375 -0.02602228 9.52452087 -0.02983093 C11.27226395 -0.0360957 13.02000569 -0.04274251 14.76774597 -0.04974365 C20.51470512 -0.07079013 26.26166454 -0.08114864 32.00865173 -0.09111023 C33.9880417 -0.09515798 35.96743153 -0.09927491 37.94682121 -0.10346031 C47.24906154 -0.12251563 56.55129392 -0.13674426 65.85355002 -0.14507228 C76.58347933 -0.15483735 87.31320195 -0.1811364 98.04305845 -0.22157317 C106.34044825 -0.25176694 114.63777892 -0.26654437 122.93522257 -0.26985329 C127.88868181 -0.27220065 132.84192032 -0.28111974 137.79532051 -0.30631447 C142.45996773 -0.32965633 147.12424987 -0.33380389 151.78894043 -0.32355309 C153.49567825 -0.32305905 155.2024344 -0.3293403 156.90911674 -0.34310913 C169.1345013 -0.43617315 178.9196768 0.55424245 188.15708923 9.28779602 C195.79761335 17.38777259 197.49748541 25.19803591 197.22349548 36.15888977 C196.74916914 44.54458433 193.13630025 51.55010802 186.91099548 57.14717102 C180.14011295 62.23887469 173.91760349 64.39287406 165.37857056 64.41459656 C164.64067112 64.41912767 163.90277169 64.42365878 163.14251167 64.4283272 C160.68075366 64.44094307 158.21921769 64.43935267 155.75743103 64.43769836 C153.98791725 64.44368538 152.21840607 64.45049133 150.44889832 64.45805359 C145.64920161 64.47570336 140.84957625 64.48040855 136.04985023 64.48168516 C133.04897113 64.48310792 130.0481101 64.48737991 127.04723549 64.4926796 C116.57187882 64.51117666 106.09657302 64.51935063 95.62120056 64.51777649 C85.86682666 64.51657526 76.11267408 64.53767489 66.35835618 64.56926382 C57.9751385 64.59544207 49.59199304 64.60614313 41.20873481 64.60486567 C36.20562284 64.60435648 31.2027076 64.61001577 26.19963646 64.63122177 C21.49225614 64.65063016 16.7852597 64.65071085 12.0778656 64.63618851 C10.35458628 64.63410252 8.63128277 64.63878874 6.90804482 64.65090942 C-5.42140638 64.73198312 -14.09950149 63.56254291 -23.37025452 54.86201477 C-30.1495476 48.09812918 -32.22653734 41.72587107 -32.52650452 32.20967102 C-32.25861663 22.24424161 -29.21261433 15.36837561 -22.38197327 8.12763977 C-15.82020285 2.46014812 -8.54091199 0.02798491 0 0 Z M-11.73353577 20.64717102 C-15.94383625 26.05437967 -16.91762875 30.42610779 -16.08900452 37.14717102 C-13.28213719 42.65694763 -9.75331971 46.24486672 -3.86136436 48.24025249 C-0.10143751 49.14418199 3.09749647 49.40125859 6.95625305 49.40786743 C7.62967007 49.41169298 8.30308709 49.41551853 8.99691069 49.41946 C11.23446692 49.42970937 13.47176267 49.42581337 15.70933533 49.42182922 C17.32136267 49.42618019 18.93338794 49.43136462 20.54541016 49.43731689 C24.9111866 49.4506772 29.27687631 49.45128884 33.6426692 49.4487536 C37.29312636 49.4476818 40.94356611 49.45257261 44.59401953 49.45735902 C53.20945712 49.46844407 61.8248511 49.46889733 70.44029236 49.46284485 C79.31476689 49.45680604 88.18908284 49.46911601 97.06353033 49.49041492 C104.69518172 49.50805454 112.32678275 49.51402853 119.95845377 49.51077718 C124.51103125 49.50896784 129.0634956 49.51156547 133.61605453 49.52549171 C137.89906699 49.5381038 142.181833 49.53609412 146.46484184 49.52308083 C148.03169909 49.52072279 149.59857386 49.52342188 151.165411 49.53170395 C164.9225542 49.74845403 164.9225542 49.74845403 176.84849548 43.70967102 C180.6343297 39.00605882 181.35910972 35.58668327 181.22740173 29.61592102 C180.59924606 24.71475575 177.88689621 22.02786192 174.34849548 18.83467102 C170.21216032 15.97105437 166.94300573 16.01829706 162.02285767 16.00672913 C161.31807323 16.003758 160.61328879 16.00078688 159.88714725 15.99772573 C157.5196778 15.98903699 155.15225892 15.98753033 152.78477478 15.98603821 C151.08965446 15.98141016 149.39453518 15.97638552 147.69941711 15.97099304 C143.08983517 15.95786581 138.4802678 15.95142346 133.87067008 15.94698238 C130.99128062 15.94405219 128.11189516 15.93994749 125.23250771 15.93547821 C116.22500587 15.92180246 107.21751315 15.91213617 98.21000165 15.90827632 C87.80947125 15.90379516 77.40907225 15.88624488 67.00858182 15.85727572 C58.97112403 15.83566499 50.93370323 15.82557236 42.89621669 15.8242352 C38.09495133 15.82318674 33.29380948 15.81727021 28.49257469 15.79941559 C23.97572112 15.78294543 19.45908403 15.78077426 14.94221115 15.7895546 C13.28540149 15.79032554 11.62858024 15.78597474 9.97179985 15.77609634 C7.70763687 15.76338939 5.44424206 15.76924629 3.18008423 15.77967834 C1.91374995 15.77821178 0.64741568 15.77674522 -0.65729237 15.77523422 C-5.06971198 16.25346233 -8.43970293 17.64281993 -11.73353577 20.64717102 Z " fill="#000000" transform="translate(315.08900451660156,271.8528289794922)"/>
<path d="M0 0 C0.73719387 -0.00453111 1.47438774 -0.00906223 2.23392081 -0.01373065 C4.6933449 -0.02634651 7.15254674 -0.02475611 9.61199951 -0.02310181 C11.37989078 -0.02908888 13.14777944 -0.03589484 14.91566467 -0.04345703 C19.71129643 -0.06110755 24.50685679 -0.06581206 29.30251789 -0.0670886 C32.30139468 -0.06851147 35.30025338 -0.07278368 38.29912567 -0.07808304 C48.7691513 -0.09658126 59.23912605 -0.10475404 69.70916748 -0.10317993 C79.4555691 -0.10197909 89.20174906 -0.12307083 98.94809461 -0.15466726 C107.32623242 -0.18085634 115.70429797 -0.1915461 124.08247638 -0.19026911 C129.08170793 -0.18976019 134.08074253 -0.19540473 139.07993317 -0.21662521 C143.78485426 -0.23605155 148.48939142 -0.23610208 153.1943264 -0.22159195 C154.91557313 -0.21950809 156.63684417 -0.2241794 158.35804939 -0.23631287 C169.79465433 -0.31167547 180.06256882 0.23981827 188.8727417 8.42367554 C197.40493939 18.246108 198.33020571 27.78349064 197.4743042 40.26742554 C195.51409674 48.63963693 189.4993478 55.50774119 182.4118042 60.14242554 C176.80052034 63.53529484 171.54253608 64.51806545 165.02453613 64.53485107 C163.93099599 64.54164774 163.93099599 64.54164774 162.81536412 64.54858172 C160.38357836 64.56119596 157.95201741 64.55960729 155.52020264 64.55795288 C153.77201552 64.56394006 152.02383104 64.57074604 150.27565002 64.57830811 C145.5337354 64.5959576 140.79189299 64.60066309 136.04994869 64.60193968 C133.08457377 64.60336261 130.11921712 64.60763493 127.15384674 64.61293411 C116.80053037 64.63143202 106.44726545 64.63960516 96.09393311 64.63803101 C86.45659359 64.63683018 76.81947824 64.65792163 67.18219543 64.68951833 C58.89747498 64.71570858 50.61282762 64.72639712 42.32806611 64.72512019 C37.38472501 64.7246113 32.4415831 64.73025401 27.49828339 64.75147629 C22.84589056 64.77090459 18.19388599 64.77095184 13.54147911 64.75644302 C11.839583 64.75435941 10.1376623 64.75902904 8.43580818 64.77116394 C-4.2997988 64.85604975 -13.96518419 63.56144981 -23.54522705 54.49008179 C-30.53826791 46.64187617 -31.90546719 39.12738753 -31.7991333 28.87680054 C-31.11663949 19.86788226 -27.00112934 13.37555507 -20.5256958 7.26742554 C-14.19700808 1.86052494 -8.40015284 0.02139029 0 0 Z M-10.6819458 20.02133179 C-11.1253833 20.61816772 -11.5688208 21.21500366 -12.0256958 21.82992554 C-12.4897583 22.4293396 -12.9538208 23.02875366 -13.4319458 23.64633179 C-16.16619644 27.69888185 -15.96021241 31.50383603 -15.5256958 36.26742554 C-13.70034989 41.54064706 -10.91850377 44.06433639 -6.5256958 47.26742554 C-3.04028698 48.42922848 -0.31676506 48.39921712 3.36244202 48.40786743 C4.06722645 48.41083855 4.77201089 48.41380968 5.49815243 48.41687083 C7.86562188 48.42555956 10.23304077 48.42706622 12.6005249 48.42855835 C14.29564523 48.4331864 15.9907645 48.43821104 17.68588257 48.44360352 C22.29546451 48.45673075 26.90503189 48.4631731 31.5146296 48.46761417 C34.39401906 48.47054436 37.27340453 48.47464907 40.15279198 48.47911835 C49.16029381 48.4927941 58.16778654 48.50246039 67.17529804 48.50632024 C77.57582843 48.5108014 87.97622743 48.52835168 98.37671787 48.55732083 C106.41417565 48.57893156 114.45159646 48.58902419 122.48908299 48.59036136 C127.29034835 48.59140982 132.0914902 48.59732634 136.89272499 48.61518097 C141.40957856 48.63165113 145.92621565 48.6338223 150.44308853 48.62504196 C152.09989819 48.62427102 153.75671944 48.62862181 155.41349983 48.63850021 C157.67766281 48.65120717 159.94105763 48.64535027 162.20521545 48.63491821 C163.47154973 48.63638477 164.73788401 48.63785133 166.04259205 48.63936234 C170.46259124 48.16031273 173.85106639 46.78270454 177.11883545 43.73226929 C181.49351796 38.01153062 182.22482759 34.41884128 181.4743042 27.26742554 C180.15164316 23.03650377 177.80411347 20.19558405 174.0368042 17.89242554 C168.79483429 15.50135154 164.40395831 15.14119302 158.66955566 15.12698364 C157.99784749 15.12401252 157.32613932 15.1210414 156.63407636 15.11798024 C154.39037653 15.10933057 152.14673029 15.10778817 149.90301514 15.10629272 C148.29128405 15.1016619 146.67955405 15.09663689 145.06782532 15.09124756 C140.69369007 15.07814691 136.31957015 15.07168315 131.94541836 15.0672369 C129.21038801 15.06430237 126.47536181 15.06019684 123.74033356 15.05573273 C115.17653319 15.04206387 106.61274236 15.03239425 98.04893184 15.02853084 C88.17538319 15.02405162 78.30197309 15.00650747 68.42846656 14.97753024 C60.78837037 14.95588883 53.14831309 14.94582524 45.50818658 14.94448972 C40.94886204 14.94344344 36.38966784 14.93757348 31.83037567 14.9196701 C27.53919625 14.90314687 23.24824457 14.90105447 18.9570446 14.90980911 C17.38695858 14.91057722 15.81686009 14.90626678 14.24680519 14.89635086 C1.00530193 14.54747957 1.00530193 14.54747957 -10.6819458 20.02133179 Z " fill="#000000" transform="translate(314.52569580078125,175.73257446289063)"/>
</svg>
