<?xml version="1.0" encoding="UTF-8"?>
<svg version="1.1" xmlns="http://www.w3.org/2000/svg" width="512" height="512">
<path d="M0 0 C0.81185257 -0.00511093 1.62370514 -0.01022186 2.4601593 -0.01548767 C5.14156483 -0.02937801 7.82271318 -0.02842735 10.50415039 -0.02612305 C12.36975703 -0.03001024 14.23536279 -0.03434496 16.10096741 -0.03910828 C20.01070017 -0.04656925 23.92034262 -0.04628006 27.83007812 -0.04101562 C32.8382552 -0.03522065 37.84606249 -0.05215324 42.85417843 -0.0753603 C46.70693622 -0.09009785 50.55960496 -0.09096932 54.41238594 -0.08785057 C56.25875137 -0.08836375 58.1051218 -0.09360096 59.95145988 -0.10366249 C62.53429007 -0.11601025 65.11639994 -0.10924542 67.69921875 -0.09765625 C68.46042023 -0.10529999 69.2216217 -0.11294373 70.00588989 -0.12081909 C74.47667695 -0.07651861 77.36426186 0.49961854 80.91430664 3.2746582 C82.0785664 5.60317772 82.06888656 7.03746004 82.11962891 9.63256836 C82.13957413 10.53335114 82.15951935 11.43413391 82.18006897 12.36221313 C82.20513771 13.82320938 82.20513771 13.82320938 82.23071289 15.3137207 C82.25149399 16.30971283 82.27227509 17.30570496 82.29368591 18.33187866 C82.35919706 21.52106674 82.41807368 24.71033878 82.47680664 27.8996582 C82.51999037 30.05852114 82.56360461 32.2173755 82.60766602 34.3762207 C82.71488001 39.6756105 82.81664349 44.97508426 82.91430664 50.2746582 C83.93266602 50.6149707 84.95102539 50.9552832 86.00024414 51.3059082 C96.93472806 55.0276753 107.42721426 59.44200979 117.91430664 64.2746582 C119.20062988 62.97262451 119.20062988 62.97262451 120.51293945 61.64428711 C123.69843058 58.42257281 126.89055496 55.2075008 130.0847168 51.99438477 C131.46576612 50.60328319 132.84501439 49.21039114 134.22241211 47.81567383 C136.2035299 45.81027413 138.19105337 43.81142043 140.17993164 41.8137207 C140.7936261 41.18970367 141.40732056 40.56568665 142.03961182 39.92276001 C142.6199115 39.34230927 143.20021118 38.76185852 143.7980957 38.16381836 C144.30439514 37.6530777 144.81069458 37.14233704 145.33233643 36.61611938 C148.25835766 34.13494504 150.30800765 33.2863178 154.16430664 33.2121582 C163.55727985 35.87350061 170.78003269 45.97710173 177.56274414 52.75512695 C178.66746044 53.85662322 179.77224893 54.9580471 180.87710571 56.05940247 C183.17659344 58.35294245 185.47404608 60.64849881 187.77026367 62.9453125 C190.71067711 65.8858282 193.65795115 68.81936432 196.60696983 71.75124645 C198.88375541 74.01692058 201.1559887 76.28711793 203.42695999 78.55861855 C204.51219992 79.64268038 205.5990573 80.72512557 206.68757248 81.80589867 C208.2046297 83.31315797 209.71521976 84.8266216 211.22436523 86.34179688 C212.084039 87.20004562 212.94371277 88.05829437 213.82943726 88.94255066 C216.7643376 92.22549169 217.8918098 94.10482249 217.97680664 98.5246582 C215.28395885 108.02882689 204.88840409 115.41956464 197.97680664 122.2746582 C196.9004001 123.34603708 195.8242265 124.41765003 194.74829102 125.48950195 C192.13963919 128.08725458 189.52786193 130.68183782 186.91430664 133.2746582 C187.19628906 133.90855469 187.47827148 134.54245117 187.76879883 135.19555664 C189.07298091 138.13610806 190.36865961 141.08033671 191.66430664 144.0246582 C192.10774414 145.02110352 192.55118164 146.01754883 193.00805664 147.04418945 C196.06173985 154.00479089 198.63316551 161.02469482 200.91430664 168.2746582 C201.46918762 168.28052444 202.0240686 168.28639069 202.59576416 168.29243469 C208.37106369 168.35636912 214.14580599 168.4407886 219.9206543 168.53710938 C222.075853 168.57036361 224.2311389 168.59839397 226.38647461 168.62109375 C229.48467161 168.6546302 232.58206919 168.70694623 235.67993164 168.76293945 C236.64360657 168.76932938 237.60728149 168.7757193 238.60015869 168.78230286 C239.95110626 168.81199409 239.95110626 168.81199409 241.3293457 168.84228516 C242.51515228 168.85893974 242.51515228 168.85893974 243.72491455 168.87593079 C246.49069224 169.37962832 247.87251494 170.36561419 249.91430664 172.2746582 C250.876943 175.16256728 251.05127264 177.02994345 251.07543945 180.03393555 C251.085047 180.99858734 251.09465454 181.96323914 251.10455322 182.9571228 C251.11092804 184.51809189 251.11092804 184.51809189 251.11743164 186.1105957 C251.12313171 187.18209869 251.12883179 188.25360168 251.13470459 189.35757446 C251.14415402 191.62549858 251.15068834 193.89343642 251.15454102 196.16137695 C251.164249 199.62906858 251.19527448 203.09616814 251.22680664 206.5637207 C251.23333654 208.76684218 251.23858707 210.9699679 251.24243164 213.1730957 C251.26095184 214.7279921 251.26095184 214.7279921 251.27984619 216.31430054 C251.25090127 225.67895473 251.25090127 225.67895473 247.91430664 229.2746582 C244.34055423 231.30564919 241.97252254 231.45629573 238.00024414 230.63012695 C237.0734082 230.44772461 236.14657227 230.26532227 235.19165039 230.07739258 C234.23387695 229.87436523 233.27610352 229.67133789 232.28930664 229.4621582 C202.87008295 223.43628963 173.74454912 226.19525093 146.04345703 237.63256836 C141.53956542 239.45864537 137.86840781 240.92412878 132.91430664 240.2746582 C130.10180664 238.6496582 130.10180664 238.6496582 127.91430664 236.2746582 C127.01006417 232.32381948 126.82675226 228.63687222 126.95727539 224.59887695 C127.5692522 197.66783113 121.70280341 175.21641451 103.91430664 154.2746582 C103.13958008 153.29883789 102.36485352 152.32301758 101.56665039 151.31762695 C87.7014092 134.72099389 64.85889559 125.12404756 43.91430664 122.2746582 C15.72282356 120.09087882 -8.82855878 127.1826414 -30.74194336 145.24731445 C-49.87009701 161.79316736 -61.01625859 185.17911826 -63.08569336 210.2746582 C-64.48811849 235.24976108 -56.71698539 260.45874731 -40.08569336 279.2746582 C-39.64225586 279.85989258 -39.19881836 280.44512695 -38.74194336 281.0480957 C-25.24453474 298.57826665 -1.67316868 308.94432884 19.72680664 311.99731445 C29.96914421 312.88849824 39.96284133 312.62198586 50.08227539 310.7121582 C54.6896828 310.0003932 58.97650794 309.46194485 62.91430664 312.2746582 C65.99991334 317.26621888 64.64944944 322.08949362 63.38745117 327.55737305 C62.77993632 329.86812593 62.13283759 332.16474019 61.47680664 334.4621582 C54.01879214 362.1275229 55.18249254 390.38832499 64.14868164 417.5715332 C65.33287323 421.75245452 65.46299687 424.95372267 64.91430664 429.2746582 C62.71019518 432.32385709 61.50977308 433.17735341 57.76477051 433.7893219 C56.5244104 433.79552048 55.28405029 433.80171906 54.00610352 433.80810547 C53.31944107 433.81672104 52.63277863 433.82533661 51.92530823 433.83421326 C49.66083838 433.85687297 47.39760601 433.85013583 45.13305664 433.84106445 C43.55651481 433.84629983 41.97997613 433.852576 40.40344238 433.85984802 C37.10141242 433.87025194 33.79981341 433.86569086 30.49780273 433.85107422 C26.2671439 433.83387931 22.03784229 433.85738868 17.8073349 433.89256382 C14.55245981 433.91452791 11.29791005 433.91309902 8.04298401 433.90479851 C6.4832663 433.90397856 4.92352481 433.91085045 3.36387634 433.92556953 C1.18257273 433.9430008 -0.9962849 433.92849077 -3.17749023 433.90576172 C-4.41785034 433.90479996 -5.65821045 433.9038382 -6.93615723 433.90284729 C-10.08569336 433.2746582 -10.08569336 433.2746582 -12.48907471 431.02886963 C-14.13631014 428.18734286 -14.5762033 426.80741549 -14.53979492 423.57617188 C-14.5394928 422.67561569 -14.53919067 421.77505951 -14.53887939 420.84721375 C-14.50791168 419.40944328 -14.50791168 419.40944328 -14.47631836 417.94262695 C-14.47065857 416.95087967 -14.46499878 415.95913239 -14.45916748 414.93733215 C-14.4368268 411.77844406 -14.38663374 408.62070184 -14.33569336 405.4621582 C-14.31562542 403.31699232 -14.29737516 401.17180862 -14.28100586 399.02661133 C-14.23696981 393.77557117 -14.17008086 388.52519656 -14.08569336 383.2746582 C-14.6743367 383.15457397 -15.26298004 383.03448975 -15.86946106 382.9107666 C-20.21816958 381.99043325 -24.27014056 380.99688799 -28.34741211 379.1809082 C-29.23879883 378.79032227 -30.13018555 378.39973633 -31.04858398 377.99731445 C-31.94770508 377.59383789 -32.84682617 377.19036133 -33.77319336 376.7746582 C-35.58862423 375.97036965 -37.40500668 375.16822497 -39.22241211 374.3684082 C-40.01349365 374.01456055 -40.8045752 373.66071289 -41.61962891 373.29614258 C-44.40082826 372.14412415 -47.22136078 371.19805076 -50.08569336 370.2746582 C-50.92753174 371.14268066 -51.76937012 372.01070313 -52.63671875 372.9050293 C-55.77534674 376.13443129 -58.93071838 379.34703287 -62.09130859 382.55493164 C-63.45463044 383.94333537 -64.81342329 385.33620187 -66.16748047 386.73364258 C-68.1192382 388.74632554 -70.08694036 390.7421801 -72.05834961 392.7355957 C-72.65656021 393.35961273 -73.25477081 393.98362976 -73.87110901 394.6265564 C-77.62983458 398.38772908 -80.60649362 400.63068774 -86.08569336 401.2746582 C-90.88941629 399.35656053 -94.27755453 396.5238539 -97.87573242 392.90454102 C-98.41959595 392.36914703 -98.96345947 391.83375305 -99.52380371 391.28213501 C-101.30747896 389.52173276 -103.07986027 387.75047304 -104.85131836 385.9777832 C-106.0931943 384.74301351 -107.33536613 383.50854136 -108.57781982 382.27435303 C-111.17517085 379.69042371 -113.76653568 377.10066053 -116.35424805 374.50708008 C-119.66511559 371.1903119 -122.9938794 367.89217137 -126.32782364 364.59862137 C-128.89645506 362.05587977 -131.45348534 359.50171299 -134.00737762 356.94417572 C-135.22979944 355.72344322 -136.45619285 354.50667403 -137.68665314 353.29404449 C-139.40772153 351.59519519 -141.11206713 349.88110233 -142.81323242 348.16235352 C-143.32025696 347.66859222 -143.82728149 347.17483093 -144.34967041 346.66610718 C-147.77838384 343.15479292 -149.20241186 340.08608937 -150.08569336 335.2746582 C-148.34826574 329.89033125 -144.62723098 326.42052978 -140.66772461 322.5637207 C-139.74185799 321.64422134 -139.74185799 321.64422134 -138.79728699 320.70614624 C-136.83789311 318.76345029 -134.86829468 316.83148877 -132.89819336 314.8996582 C-131.56221745 313.57874056 -130.2269234 312.25713291 -128.89233398 310.93481445 C-125.6312912 307.70672298 -122.36105949 304.48821301 -119.08569336 301.2746582 C-120.28335291 297.55955866 -121.58588312 293.97402905 -123.17944336 290.41137695 C-123.76532227 289.08009766 -123.76532227 289.08009766 -124.36303711 287.72192383 C-125.17380363 285.89187097 -125.98886581 284.06371479 -126.80834961 282.23754883 C-127.19893555 281.34616211 -127.58952148 280.45477539 -127.99194336 279.53637695 C-128.34579102 278.74191162 -128.69963867 277.94744629 -129.06420898 277.12890625 C-130.45097891 273.25397146 -131.26410424 269.30202277 -132.08569336 265.2746582 C-132.63835373 265.28354065 -133.1910141 265.2924231 -133.76042175 265.30157471 C-139.51921228 265.39015726 -145.27780887 265.45043741 -151.03710938 265.49438477 C-153.18562686 265.51448406 -155.33408976 265.54176813 -157.48242188 265.57641602 C-160.57297241 265.62500733 -163.66279891 265.64764399 -166.75366211 265.6652832 C-168.19143257 265.69625092 -168.19143257 265.69625092 -169.6582489 265.72784424 C-170.55880508 265.72814636 -171.45936127 265.72844849 -172.38720703 265.72875977 C-173.17552414 265.73764221 -173.96384125 265.74652466 -174.77604675 265.75567627 C-178.21566976 265.0393239 -179.73660301 263.89061083 -182.08569336 261.2746582 C-182.58413442 258.26355071 -182.76067425 255.81632715 -182.71679688 252.8059082 C-182.72395218 251.95343506 -182.73110748 251.10096191 -182.73847961 250.22265625 C-182.75538192 247.40611097 -182.7359556 244.59115398 -182.71459961 241.7746582 C-182.71542817 239.81697457 -182.71788706 237.85929101 -182.72190857 235.90161133 C-182.72476762 231.79918471 -182.71005485 227.69730374 -182.68261719 223.5949707 C-182.64853432 218.33542435 -182.65455165 213.0768538 -182.67327976 207.81726074 C-182.68384647 203.77490094 -182.67491491 199.73276836 -182.65989494 195.69042969 C-182.65471026 193.75114619 -182.6551984 191.81183898 -182.6614399 189.87255859 C-182.66688811 187.16232249 -182.64653018 184.45348496 -182.61914062 181.7434082 C-182.62892944 180.54010864 -182.62892944 180.54010864 -182.63891602 179.3125 C-182.57896274 175.82510298 -182.3607354 173.66974142 -180.34465027 170.77374268 C-177.76061662 169.05893143 -176.48350191 168.7867702 -173.40893555 168.82055664 C-172.48828308 168.82085876 -171.56763062 168.82116089 -170.61907959 168.82147217 C-169.14075653 168.85243988 -169.14075653 168.85243988 -167.63256836 168.8840332 C-166.61721008 168.88969299 -165.60185181 168.89535278 -164.5557251 168.90118408 C-161.31523335 168.92356067 -158.07585046 168.97376066 -154.83569336 169.0246582 C-152.63779267 169.04472149 -150.43987464 169.06297256 -148.24194336 169.0793457 C-142.85614886 169.12342949 -137.47100033 169.19035447 -132.08569336 169.2746582 C-131.956772 168.66915634 -131.82785065 168.06365448 -131.69502258 167.43980408 C-131.52141708 166.63885818 -131.34781158 165.83791229 -131.16894531 165.01269531 C-130.99877396 164.22156845 -130.8286026 163.43044159 -130.65327454 162.61534119 C-129.82394059 159.19519984 -128.60402276 156.09927037 -127.27319336 152.8371582 C-127.01401123 152.19609131 -126.7548291 151.55502441 -126.48779297 150.89453125 C-124.56375331 146.21264275 -122.36165148 141.73575836 -119.87084961 137.32543945 C-118.89632483 134.78003892 -119.19531042 133.81865518 -120.08569336 131.2746582 C-121.28466886 129.67249269 -121.28466886 129.67249269 -122.84545898 128.23779297 C-123.42275757 127.67363174 -124.00005615 127.10947052 -124.59484863 126.5282135 C-125.22088989 125.93020432 -125.84693115 125.33219513 -126.49194336 124.71606445 C-127.80584442 123.4303583 -129.11964337 122.14454779 -130.43334961 120.85864258 C-132.51086537 118.84332936 -134.59160882 116.83145356 -136.67504883 114.82226562 C-138.68498631 112.87869176 -140.68258393 110.92305898 -142.67944336 108.96606445 C-143.30548462 108.3700795 -143.93152588 107.77409454 -144.57653809 107.16004944 C-147.04593794 104.73336136 -148.83306226 102.91664195 -150.11108398 99.66894531 C-150.04840524 93.75846057 -146.56866257 90.33185604 -142.56616211 86.39868164 C-142.00337555 85.83385071 -141.44058899 85.26901978 -140.86074829 84.68707275 C-139.00539879 82.82872387 -137.13955303 80.98131888 -135.27319336 79.1340332 C-133.97988605 77.8437845 -132.68716955 76.55294335 -131.39501953 75.26153564 C-128.68934995 72.56046351 -125.97885006 69.86437108 -123.2644043 67.17211914 C-119.78040805 63.71646132 -116.30519996 60.25213267 -112.83311462 56.78451157 C-110.16568352 54.12123076 -107.49543283 51.46079337 -104.8241272 48.80139923 C-103.5414059 47.52438431 -102.2591579 46.2468938 -100.97738647 44.96892548 C-99.1892678 43.18765931 -97.39780918 41.40982703 -95.60522461 39.63305664 C-95.07321442 39.10216431 -94.54120422 38.57127197 -93.99307251 38.02429199 C-91.16327952 35.22761888 -89.41222638 33.52733116 -85.46069336 32.7746582 C-76.43881219 34.11123319 -67.895889 46.35225383 -61.58569336 52.7121582 C-60.46613704 53.8367415 -59.34634707 54.96109225 -58.22631836 56.08520508 C-55.51007802 58.81235164 -52.79701044 61.54261727 -50.08569336 64.2746582 C-49.45179688 63.99267578 -48.81790039 63.71069336 -48.16479492 63.42016602 C-45.2242435 62.11598393 -42.28001485 60.82030524 -39.33569336 59.5246582 C-38.33924805 59.0812207 -37.34280273 58.6377832 -36.31616211 58.1809082 C-29.35556067 55.12722499 -22.33565674 52.55579933 -15.08569336 50.2746582 C-15.06587402 48.96271484 -15.04605469 47.65077148 -15.02563477 46.29907227 C-14.94955586 41.43103865 -14.86084172 36.56330305 -14.76831055 31.69555664 C-14.7300303 29.58884566 -14.69517576 27.48206953 -14.66381836 25.37524414 C-14.61814738 22.346687 -14.56015591 19.31857798 -14.49975586 16.2902832 C-14.48820465 15.34848206 -14.47665344 14.40668091 -14.4647522 13.43634033 C-14.44488251 12.55572937 -14.42501282 11.67511841 -14.40454102 10.76782227 C-14.39121735 9.99504944 -14.37789368 9.22227661 -14.36416626 8.42608643 C-14.04029289 5.92390292 -13.48724974 4.37593223 -12.08569336 2.2746582 C-8.51308704 -0.44472309 -4.29342954 -0.0139364 0 0 Z M2.91430664 17.2746582 C2.66481492 30.91657076 2.66481492 30.91657076 2.4362793 44.55883789 C2.40106765 46.27141876 2.36514576 47.98398523 2.32836914 49.6965332 C2.31132935 51.02612061 2.31132935 51.02612061 2.29394531 52.38256836 C2.27388428 53.2347998 2.25382324 54.08703125 2.2331543 54.96508789 C2.21983063 55.70233093 2.20650696 56.43957397 2.19277954 57.19915771 C1.86949054 59.60867934 1.2012131 61.21716826 -0.08569336 63.2746582 C-2.44555664 64.42797852 -2.44555664 64.42797852 -5.40600586 65.3527832 C-6.49171875 65.70518066 -7.57743164 66.05757812 -8.69604492 66.4206543 C-10.4357959 66.96713623 -10.4357959 66.96713623 -12.21069336 67.5246582 C-22.72622029 70.98033658 -32.38196646 74.99258026 -42.08569336 80.2746582 C-49.58067664 84.17566155 -49.58067664 84.17566155 -54.08569336 83.2746582 C-61.2750326 78.09157202 -67.35503394 71.12167036 -73.58569336 64.8371582 C-74.60889475 63.8089284 -75.63233068 62.78093194 -76.65600586 61.75317383 C-79.13527335 59.26301482 -81.61136874 56.76972987 -84.08569336 54.2746582 C-87.48922358 55.74588436 -89.69825085 57.64408333 -92.3034668 60.26538086 C-93.1240155 61.08608063 -93.94456421 61.9067804 -94.78997803 62.75234985 C-95.66615784 63.63885223 -96.54233765 64.52535461 -97.44506836 65.4387207 C-98.34944641 66.34592865 -99.25382446 67.2531366 -100.18560791 68.18783569 C-102.58365794 70.5935024 -104.97563954 73.00511556 -107.36639404 75.41802979 C-109.80954507 77.88168164 -112.25840542 80.33964398 -114.70678711 82.7980957 C-119.50503124 87.61839393 -124.29752068 92.44435664 -129.08569336 97.2746582 C-125.45955852 101.59944637 -121.74316038 105.73246557 -117.72241211 109.70043945 C-117.24496048 110.17410446 -116.76750885 110.64776947 -116.27558899 111.13578796 C-114.77724942 112.62208737 -113.27565646 114.1050281 -111.77319336 115.5871582 C-109.77422719 117.55954322 -107.77860116 119.53522217 -105.78491211 121.51293945 C-104.90665771 122.37959229 -104.02840332 123.24624512 -103.12353516 124.13916016 C-100.06062226 127.34885215 -99.71269363 129.60631105 -99.77758789 134.04907227 C-100.33534744 138.07802315 -102.46169195 141.20742852 -104.52319336 144.6496582 C-109.61898363 153.6388921 -112.98518249 162.9044674 -116.12841797 172.72924805 C-116.47396729 173.7961084 -116.8195166 174.86296875 -117.17553711 175.9621582 C-117.47322998 176.91477539 -117.77092285 177.86739258 -118.07763672 178.84887695 C-119.14463305 181.41649031 -119.93764172 182.54763726 -122.08569336 184.2746582 C-124.11686707 184.67338562 -124.11686707 184.67338562 -126.46533203 184.70703125 C-127.35828979 184.72697144 -128.25124756 184.74691162 -129.17126465 184.76745605 C-130.10595581 184.77369995 -131.04064697 184.77994385 -132.00366211 184.78637695 C-133.29657166 184.8113324 -133.29657166 184.8113324 -134.61560059 184.83679199 C-137.83455011 184.89461405 -141.05391817 184.92684936 -144.27319336 184.9621582 C-151.47131836 185.0652832 -158.66944336 185.1684082 -166.08569336 185.2746582 C-166.08569336 206.0646582 -166.08569336 226.8546582 -166.08569336 248.2746582 C-152.11470961 248.48461518 -152.11470961 248.48461518 -138.14331055 248.66259766 C-136.38970812 248.69488756 -134.63612518 248.72826128 -132.88256836 248.76293945 C-131.97458496 248.76918335 -131.06660156 248.77542725 -130.13110352 248.78186035 C-123.79739078 248.92660586 -123.79739078 248.92660586 -120.58959961 250.49536133 C-118.74222654 252.68101959 -118.04001386 254.51102104 -117.22631836 257.25512695 C-116.91911865 258.24722168 -116.61191895 259.23931641 -116.29541016 260.26147461 C-115.97870361 261.3177002 -115.66199707 262.37392578 -115.33569336 263.4621582 C-111.77915604 274.7508492 -107.37445023 285.01378315 -101.35522461 295.2043457 C-99.78564027 299.00032505 -99.26246599 302.26186976 -100.08569336 306.2746582 C-101.81063973 309.06465729 -104.04286758 311.16842885 -106.42944336 313.3996582 C-107.07312866 314.03202393 -107.71681396 314.66438965 -108.38000488 315.31591797 C-110.43049422 317.32179633 -112.50705629 319.29800472 -114.58569336 321.2746582 C-115.98464693 322.63346592 -117.3818048 323.994125 -118.77709961 325.35668945 C-122.19286958 328.6844828 -125.63229472 331.98594842 -129.08569336 335.2746582 C-127.6144672 338.67818843 -125.71626823 340.88721569 -123.0949707 343.49243164 C-121.86392105 344.7232547 -121.86392105 344.7232547 -120.60800171 345.97894287 C-119.72149933 346.85512268 -118.83499695 347.73130249 -117.92163086 348.6340332 C-117.01442291 349.53841125 -116.10721497 350.44278931 -115.17251587 351.37457275 C-112.76684917 353.77262278 -110.355236 356.16460439 -107.94232178 358.55535889 C-105.47866992 360.99850991 -103.02070759 363.44737027 -100.56225586 365.89575195 C-95.74195763 370.69399609 -90.91599493 375.48648553 -86.08569336 380.2746582 C-81.89473918 378.36619342 -79.18290788 375.48829108 -76.07006836 372.1730957 C-74.8899975 370.94825156 -73.70897796 369.72432085 -72.52709961 368.5012207 C-70.67657609 366.57651904 -68.83294548 364.64673221 -67.00512695 362.70043945 C-65.23256035 360.81860832 -63.4353523 358.9634378 -61.63256836 357.1105957 C-60.82743805 356.2341188 -60.82743805 356.2341188 -60.00604248 355.3399353 C-57.08827627 352.38308639 -55.15606289 350.91136231 -50.91333008 350.8137207 C-45.81342031 351.42786981 -45.81342031 351.42786981 -43.29663086 352.8137207 C-42.67272461 353.1439624 -42.04881836 353.4742041 -41.40600586 353.81445312 C-40.76405273 354.1725708 -40.12209961 354.53068848 -39.46069336 354.8996582 C-38.05338876 355.64088895 -36.64450349 356.37912565 -35.23413086 357.11450195 C-34.53642578 357.48172363 -33.8387207 357.84894531 -33.11987305 358.22729492 C-24.5340256 362.6479965 -15.64141673 365.97194359 -6.32592773 368.45117188 C-3.6742522 369.2032143 -1.50283257 369.90909876 0.58862305 371.74194336 C2.66862776 375.71578662 2.39530804 379.64929966 2.42602539 384.0715332 C2.44397659 385.02030334 2.4619278 385.96907349 2.48042297 386.94659424 C2.5345417 389.97257055 2.56842691 392.99838898 2.60180664 396.0246582 C2.63497831 398.0780656 2.66946783 400.13145215 2.70532227 402.18481445 C2.79274698 407.2147853 2.85280241 412.24403639 2.91430664 417.2746582 C16.77430664 417.2746582 30.63430664 417.2746582 44.91430664 417.2746582 C44.15747425 411.2199991 43.21189913 405.32906914 42.01977539 399.36254883 C38.17582856 379.57981236 39.12518271 359.24792799 42.55053711 339.48461914 C43.10889299 336.09251348 43.51199118 332.68848065 43.91430664 329.2746582 C42.85856445 329.30946289 41.80282227 329.34426758 40.71508789 329.38012695 C6.05154329 330.16577048 -22.99789255 319.73632563 -48.42944336 295.9855957 C-70.51384047 273.44651983 -80.30795962 243.42118053 -80.08569336 212.2746582 C-79.24049917 181.56383351 -65.0185824 153.88406598 -43.00756836 132.91918945 C-38.92878066 129.22755941 -34.77465662 126.14304634 -30.08569336 123.2746582 C-29.52430664 122.92306641 -28.96291992 122.57147461 -28.38452148 122.20922852 C-2.56719456 106.18609387 28.23250851 100.94461025 58.0078125 107.43798828 C75.15928595 111.5837874 91.65991488 119.60454559 104.91430664 131.2746582 C105.72125977 131.93852539 106.52821289 132.60239258 107.35961914 133.28637695 C129.38051357 151.95926706 141.76744061 179.93521092 144.31665039 208.39575195 C144.55871029 211.68842978 144.76486414 214.97661682 144.91430664 218.2746582 C149.8429328 217.21852403 154.72939383 216.07196265 159.60839844 214.80419922 C184.4948396 208.39418961 208.59387024 208.657453 233.91430664 212.2746582 C233.91430664 203.3646582 233.91430664 194.4546582 233.91430664 185.2746582 C229.20213867 185.21858398 229.20213867 185.21858398 224.39477539 185.16137695 C221.3565367 185.1151826 218.31842224 185.06394131 215.28027344 185.01220703 C213.16674328 184.97892693 211.05312359 184.95090468 208.93945312 184.92822266 C205.90333858 184.89473348 202.86804689 184.84242056 199.83227539 184.78637695 C198.41183174 184.77679207 198.41183174 184.77679207 196.96269226 184.76701355 C195.64166252 184.73732231 195.64166252 184.73732231 194.29394531 184.70703125 C193.13145515 184.69037666 193.13145515 184.69037666 191.94548035 184.67338562 C189.40021636 184.17374025 188.51891927 183.27143004 186.91430664 181.2746582 C186.14990234 179.47558594 186.14990234 179.47558594 185.59008789 177.45825195 C185.37022217 176.7027002 185.15035645 175.94714844 184.92382812 175.16870117 C184.69381104 174.35804199 184.46379395 173.54738281 184.22680664 172.7121582 C180.71117081 160.97383453 176.15564499 149.59780362 169.91430664 139.0246582 C167.94066935 135.54375682 166.87992075 133.32600294 167.91430664 129.2746582 C173.18444831 122.11903641 180.05127394 116.02120089 186.35180664 109.7746582 C187.38003644 108.75145682 188.4080329 107.72802088 189.43579102 106.7043457 C191.92595002 104.22507821 194.41923497 101.74898283 196.91430664 99.2746582 C195.44308048 95.87112798 193.54488151 93.66210071 190.92358398 91.05688477 C190.10288422 90.23633606 189.28218445 89.41578735 188.43661499 88.57037354 C187.10686142 87.25610382 187.10686142 87.25610382 185.75024414 85.9152832 C184.84303619 85.01090515 183.93582825 84.1065271 183.00112915 83.17474365 C180.59546245 80.77669362 178.18384928 78.38471202 175.77093506 75.99395752 C173.3072832 73.55080649 170.84932087 71.10194614 168.39086914 68.65356445 C163.57057092 63.85532032 158.74460821 59.06283088 153.91430664 54.2746582 C149.80860275 56.1596641 147.0282605 58.92299571 143.90649414 62.12231445 C143.33980011 62.69421005 142.77310608 63.26610565 142.1892395 63.85533142 C140.38443392 65.67791045 138.58647346 67.50704894 136.78930664 69.3371582 C134.98413349 71.16994441 133.17752275 73.0012535 131.36795044 74.82969666 C130.24333128 75.96657851 129.12139601 77.10612278 128.00241089 78.24855042 C123.19411819 83.11872277 123.19411819 83.11872277 119.28540039 83.5949707 C114.79915369 83.16869929 111.83101224 81.37587424 107.97680664 79.1496582 C96.67773073 72.91133313 85.2892746 68.36840019 72.74243164 65.23168945 C69.816278 64.24148553 68.78755405 63.65240021 66.91430664 61.2746582 C66.51557922 59.2434845 66.51557922 59.2434845 66.48193359 56.89501953 C66.46199341 56.00206177 66.44205322 55.109104 66.42150879 54.18908691 C66.41526489 53.25439575 66.409021 52.31970459 66.40258789 51.35668945 C66.38595093 50.49474976 66.36931396 49.63281006 66.35217285 48.74475098 C66.2943508 45.52580145 66.26211548 42.30643339 66.22680664 39.0871582 C66.12368164 31.8890332 66.02055664 24.6909082 65.91430664 17.2746582 C45.12430664 17.2746582 24.33430664 17.2746582 2.91430664 17.2746582 Z " fill="#000000" transform="translate(182.085693359375,5.725341796875)"/>
<path d="M0 0 C0.96457626 -0.00630432 1.92915253 -0.01260864 2.92295837 -0.019104 C3.95844315 -0.01505554 4.99392792 -0.01100708 6.06079102 -0.00683594 C7.13087906 -0.00874939 8.2009671 -0.01066284 9.30348206 -0.01263428 C11.56544225 -0.01399463 13.82741029 -0.01030868 16.08935547 -0.00195312 C19.54811192 0.0087378 23.00634772 -0.00184832 26.46508789 -0.01464844 C28.66365674 -0.01332661 30.86222527 -0.01076374 33.06079102 -0.00683594 C34.09425156 -0.0108844 35.1277121 -0.01493286 36.19248962 -0.019104 C37.16021805 -0.01279968 38.12794647 -0.00649536 39.125 0 C40.39596779 0.00238678 40.39596779 0.00238678 41.69261169 0.00482178 C44.514999 0.29924316 46.59688441 0.97706087 49.12719727 2.25878906 C51.38589834 5.64684068 51.4197914 7.03229648 51.54125977 11.02050781 C51.57993164 12.13876953 51.61860352 13.25703125 51.65844727 14.40917969 C51.70485352 16.16004883 51.70485352 16.16004883 51.75219727 17.94628906 C51.79086914 19.12513672 51.82954102 20.30398438 51.86938477 21.51855469 C51.96373784 24.43170574 52.04655969 27.3452261 52.12719727 30.25878906 C57.40719727 32.23878906 62.68719727 34.21878906 68.12719727 36.25878906 C69.21258789 35.11539063 70.29797852 33.97199219 71.41625977 32.79394531 C72.86089635 31.30240494 74.30624642 29.81155539 75.75219727 28.32128906 C76.46504883 27.56654297 77.17790039 26.81179688 77.91235352 26.03417969 C83.23441503 20.59005255 83.23441503 20.59005255 87.33813477 19.06738281 C93.99940033 19.52452849 98.53735314 25.28531048 103.05297852 29.70800781 C103.80056931 30.43945511 104.5481601 31.1709024 105.31840515 31.92451477 C106.89215469 33.47067254 108.46288011 35.01991366 110.03076172 36.57202148 C111.63680941 38.15495589 113.25177043 39.7288974 114.87548828 41.29370117 C117.22533291 43.55832197 119.54764141 45.84819102 121.86547852 48.14550781 C122.95751335 49.18501839 122.95751335 49.18501839 124.0716095 50.24552917 C127.35806702 53.56092208 129.56418319 55.81190561 129.65698242 60.62744141 C129.11991132 64.30872968 128.76123783 65.6247485 126.18969727 68.19628906 C125.56063477 68.8446875 124.93157227 69.49308594 124.28344727 70.16113281 C123.57188477 70.85335937 122.86032227 71.54558594 122.12719727 72.25878906 C121.31250977 73.08507812 120.49782227 73.91136719 119.65844727 74.76269531 C117.49861478 76.94644999 115.32125451 79.1095085 113.12719727 81.25878906 C114.84785833 86.70754909 116.97425076 91.97048357 119.12719727 97.25878906 C120.2317627 97.27280762 120.2317627 97.27280762 121.35864258 97.28710938 C124.69883945 97.34083061 128.03763846 97.42447528 131.37719727 97.50878906 C132.53606445 97.52296875 133.69493164 97.53714844 134.88891602 97.55175781 C136.00395508 97.58398438 137.11899414 97.61621094 138.26782227 97.64941406 C139.80744629 97.68083496 139.80744629 97.68083496 141.37817383 97.71289062 C144.87103483 98.40649961 145.90582632 99.51259072 148.12719727 102.25878906 C148.63513184 104.76293945 148.63513184 104.76293945 148.64477539 107.60644531 C148.65738403 108.67435303 148.66999268 109.74226074 148.6829834 110.8425293 C148.67083801 112.56451538 148.67083801 112.56451538 148.65844727 114.32128906 C148.66227417 115.504729 148.66610107 116.68816895 148.67004395 117.9074707 C148.67276536 120.40902558 148.6653883 122.9106088 148.64868164 125.41210938 C148.6272773 129.24445955 148.64847771 133.07493481 148.67407227 136.90722656 C148.67142903 139.33691821 148.66630415 141.76660868 148.65844727 144.19628906 C148.66654419 145.34427979 148.67464111 146.49227051 148.6829834 147.67504883 C148.66407043 149.2769104 148.66407043 149.2769104 148.64477539 150.91113281 C148.64159302 151.84948975 148.63841064 152.78784668 148.63513184 153.75463867 C147.97369733 157.01555373 146.70083795 158.21392937 144.12719727 160.25878906 C141.37817383 160.8046875 141.37817383 160.8046875 138.26782227 160.86816406 C137.1527832 160.90039062 136.03774414 160.93261719 134.88891602 160.96582031 C133.73004883 160.98 132.57118164 160.99417969 131.37719727 161.00878906 C130.20286133 161.0384375 129.02852539 161.06808594 127.81860352 161.09863281 C124.92139905 161.16929634 122.02499772 161.22201173 119.12719727 161.25878906 C118.065903 163.50129784 117.02838494 165.75027995 116.00219727 168.00878906 C115.69926758 168.64300781 115.39633789 169.27722656 115.08422852 169.93066406 C113.3487077 173.51255296 113.3487077 173.51255296 113.86962891 177.27685547 C115.13769812 179.27533846 116.43320287 180.77911993 118.13110352 182.42285156 C118.70666992 182.98746094 119.28223633 183.55207031 119.87524414 184.13378906 C120.47401367 184.71128906 121.0727832 185.28878906 121.68969727 185.88378906 C122.88069111 187.04039057 124.06959731 188.19914684 125.25610352 189.36035156 C125.78276611 189.86904785 126.30942871 190.37774414 126.85205078 190.90185547 C129.33968622 193.54904631 129.77768388 196.35655629 129.71240234 199.94824219 C128.93777867 203.00666456 127.54567523 204.43102829 125.38891602 206.72753906 C124.57165039 207.60087891 123.75438477 208.47421875 122.91235352 209.37402344 C121.9858809 210.33745507 121.0574084 211.29896655 120.12719727 212.25878906 C119.63727295 212.76579346 119.14734863 213.27279785 118.64257812 213.79516602 C115.45137333 217.08585803 112.22836047 220.34340592 108.98681641 223.58447266 C107.29438636 225.27912666 105.61017106 226.98168757 103.92602539 228.68457031 C102.84122712 229.77229699 101.75595813 230.85955446 100.67016602 231.94628906 C100.17220016 232.45144043 99.67423431 232.9565918 99.16117859 233.47705078 C95.48949552 237.12475849 93.11224598 239.22061505 87.87719727 239.32128906 C81.84380303 237.61182736 78.20749544 233.50474061 74.01782227 228.98144531 C72.98915039 227.88123047 72.98915039 227.88123047 71.93969727 226.75878906 C71.32739258 226.06785156 70.71508789 225.37691406 70.08422852 224.66503906 C68.21757536 222.98740363 68.21757536 222.98740363 65.86816406 223.54199219 C62.93832876 224.30818052 60.15138303 225.26180402 57.31469727 226.32128906 C56.33887695 226.68351563 55.36305664 227.04574219 54.35766602 227.41894531 C53.62161133 227.69609375 52.88555664 227.97324219 52.12719727 228.25878906 C52.11317871 229.36335449 52.11317871 229.36335449 52.09887695 230.49023438 C52.04515572 233.83043125 51.96151104 237.16923026 51.87719727 240.50878906 C51.86301758 241.66765625 51.84883789 242.82652344 51.83422852 244.02050781 C51.78588867 245.69306641 51.78588867 245.69306641 51.73657227 247.39941406 C51.715625 248.42583008 51.69467773 249.45224609 51.6730957 250.50976562 C50.99608916 253.91902042 49.78904781 255.09517914 47.12719727 257.25878906 C44.67596328 258.48440606 43.03883297 258.40535314 40.29785156 258.43579102 C39.29308273 258.44862625 38.2883139 258.46146149 37.25309753 258.47468567 C36.16354263 258.4820726 35.07398773 258.48945953 33.95141602 258.49707031 C32.83410599 258.50514206 31.71679596 258.51321381 30.56562805 258.52153015 C28.19757646 258.53537853 25.82950483 258.5460973 23.46142578 258.55395508 C19.83986588 258.57116943 16.21921827 258.61505035 12.59790039 258.65917969 C10.29907899 258.66930621 8.00024982 258.67782244 5.70141602 258.68457031 C4.61793381 258.7020784 3.5344516 258.71958649 2.4181366 258.73762512 C-5.0870332 258.7159762 -5.0870332 258.7159762 -9.03369141 256.41967773 C-11.88361453 253.0711221 -12.02502519 250.17989406 -12.18920898 245.93457031 C-12.23110352 244.90654297 -12.27299805 243.87851562 -12.31616211 242.81933594 C-12.35547852 241.74748047 -12.39479492 240.675625 -12.43530273 239.57128906 C-12.47848633 238.48783203 -12.52166992 237.404375 -12.56616211 236.28808594 C-12.67227111 233.61178115 -12.77432634 230.9353838 -12.87280273 228.25878906 C-14.76122787 227.38836663 -16.65892175 226.53803432 -18.56030273 225.69628906 C-19.61604492 225.220625 -20.67178711 224.74496094 -21.75952148 224.25488281 C-25.24884276 223.13847513 -26.50927263 222.8486134 -29.87280273 224.25878906 C-32.2508755 226.23028931 -34.33445282 228.43588092 -36.43530273 230.69628906 C-37.55681598 231.8870157 -38.68298278 233.07337989 -39.81420898 234.25488281 C-40.30606689 234.78267334 -40.7979248 235.31046387 -41.3046875 235.85424805 C-44.25775812 238.49927611 -46.07681855 239.23286575 -50.10375977 239.36401367 C-55.50437499 237.78035095 -58.33429888 234.56564834 -62.17749023 230.57519531 C-62.9420755 229.80449203 -63.70666077 229.03378876 -64.49441528 228.23973083 C-66.92661125 225.78064387 -69.33687739 223.30121477 -71.74780273 220.82128906 C-73.39230438 219.15525999 -75.03812389 217.49053065 -76.68530273 215.82714844 C-79.68376492 212.78656946 -82.68051402 209.74451198 -85.6574707 206.68286133 C-86.5551265 205.76139061 -86.5551265 205.76139061 -87.47091675 204.82130432 C-89.32989998 202.74931723 -89.84862129 201.38574165 -90.37280273 198.63378906 C-89.47648718 192.58365908 -84.70147906 188.96479288 -80.36889648 184.92285156 C-79.54518555 184.14683594 -78.72147461 183.37082031 -77.87280273 182.57128906 C-77.08905273 181.86617187 -76.30530273 181.16105469 -75.49780273 180.43457031 C-73.60589032 178.3833874 -73.60589032 178.3833874 -73.99389648 175.80957031 C-75.19538183 172.32259284 -76.58504262 168.9539711 -78.03295898 165.56347656 C-78.87280273 163.25878906 -78.87280273 163.25878906 -78.87280273 160.25878906 C-79.63947266 160.27973633 -80.40614258 160.30068359 -81.19604492 160.32226562 C-84.67149733 160.40544064 -88.14674036 160.45745481 -91.62280273 160.50878906 C-92.82936523 160.54230469 -94.03592773 160.57582031 -95.27905273 160.61035156 C-96.43920898 160.62324219 -97.59936523 160.63613281 -98.79467773 160.64941406 C-99.86298828 160.67036133 -100.93129883 160.69130859 -102.03198242 160.71289062 C-105.64021706 160.13611885 -106.60172834 159.07239965 -108.87280273 156.25878906 C-109.38746643 153.79933167 -109.38746643 153.79933167 -109.40625 151.01879883 C-109.42208633 149.97413956 -109.43792267 148.92948029 -109.45423889 147.85316467 C-109.44679909 146.16869484 -109.44679909 146.16869484 -109.43920898 144.45019531 C-109.44540756 143.29132309 -109.45160614 142.13245087 -109.45799255 140.9384613 C-109.46509506 138.48819825 -109.4619093 136.03788697 -109.44921875 133.58764648 C-109.43536615 129.83845128 -109.46940638 126.0917573 -109.50756836 122.34277344 C-109.50851966 119.96191345 -109.50666016 117.58105034 -109.50170898 115.20019531 C-109.51496719 114.07923965 -109.5282254 112.958284 -109.54188538 111.80335999 C-109.44992603 104.11524108 -109.44992603 104.11524108 -106.70581055 100.04296875 C-103.44061668 97.9866057 -101.74580644 97.67230179 -97.91577148 97.77050781 C-96.80395508 97.78662109 -95.69213867 97.80273438 -94.54663086 97.81933594 C-93.39614258 97.86123047 -92.2456543 97.903125 -91.06030273 97.94628906 C-89.30556641 97.98012695 -89.30556641 97.98012695 -87.51538086 98.01464844 C-84.63321504 98.07346815 -81.75366592 98.15561765 -78.87280273 98.25878906 C-77.16584541 92.60307045 -75.47945575 86.94386898 -73.87280273 81.25878906 C-74.28643066 80.85039795 -74.70005859 80.44200684 -75.1262207 80.02124023 C-77.00271306 78.16556266 -78.87528722 76.30597913 -80.74780273 74.44628906 C-81.3987793 73.80369141 -82.04975586 73.16109375 -82.72045898 72.49902344 C-83.3456543 71.87705078 -83.97084961 71.25507813 -84.61499023 70.61425781 C-85.19104004 70.04344482 -85.76708984 69.47263184 -86.3605957 68.88452148 C-88.7373281 66.32936148 -89.825278 64.52809587 -90.43530273 61.07128906 C-89.03905113 51.60780598 -76.87000222 42.96666541 -70.28417969 36.32006836 C-68.96110139 34.98029816 -67.6434302 33.63516796 -66.33105469 32.28491211 C-64.41817873 30.31734859 -62.48943441 28.36667979 -60.55639648 26.41894531 C-59.97498398 25.81486343 -59.39357147 25.21078156 -58.79454041 24.58839417 C-55.32963231 21.14119754 -52.99045481 19.35731844 -47.87280273 19.25878906 C-42.18575432 21.18750655 -38.56132226 25.21734442 -34.49780273 29.44628906 C-33.85713867 30.10048828 -33.21647461 30.7546875 -32.55639648 31.42871094 C-30.98824763 33.03196761 -29.42955211 34.64446129 -27.87280273 36.25878906 C-22.92280273 34.27878906 -17.97280273 32.29878906 -12.87280273 30.25878906 C-12.83541992 28.65648437 -12.79803711 27.05417969 -12.75952148 25.40332031 C-12.69385525 23.29262008 -12.62740814 21.18194403 -12.56030273 19.07128906 C-12.53774414 18.01619141 -12.51518555 16.96109375 -12.49194336 15.87402344 C-12.43876953 14.34165039 -12.43876953 14.34165039 -12.38452148 12.77832031 C-12.3583374 11.84093018 -12.33215332 10.90354004 -12.30517578 9.93774414 C-11.78699327 6.72711927 -10.82592887 4.85083752 -8.87280273 2.25878906 C-5.85033653 0.37048315 -3.53394061 0.00664271 0 0 Z M5.12719727 17.25878906 C4.95694734 24.64756769 4.95694734 24.64756769 4.8293457 32.03710938 C4.79873047 32.96104492 4.76811523 33.88498047 4.73657227 34.83691406 C4.715625 35.77954102 4.69467773 36.72216797 4.6730957 37.69335938 C3.96901141 41.00217768 2.74277271 42.16731704 0.12719727 44.25878906 C-1.72875977 45.18432617 -1.72875977 45.18432617 -3.63061523 45.78613281 C-4.33395996 46.01872803 -5.03730469 46.25132324 -5.76196289 46.4909668 C-6.49979004 46.72372314 -7.23761719 46.95647949 -7.99780273 47.19628906 C-13.07606596 48.86840012 -17.8050729 50.58921693 -22.49780273 53.19628906 C-25.43397142 54.70391776 -27.01075248 55.27356939 -30.37280273 55.63378906 C-34.93859357 53.84008552 -37.84173062 51.06514073 -41.34545898 47.68066406 C-44.06620462 45.07345805 -46.97792518 42.67118703 -49.87280273 40.25878906 C-56.14280273 46.52878906 -62.41280273 52.79878906 -68.87280273 59.25878906 C-66.85508864 63.29421726 -64.50292959 65.82606193 -61.31030273 68.88378906 C-54.96136815 75.01490759 -54.96136815 75.01490759 -54.61108398 79.93457031 C-54.67084184 84.28121993 -56.05684549 87.64115795 -58.06030273 91.44628906 C-61.07027149 97.44118144 -63.44748593 103.36111026 -65.53686523 109.74707031 C-66.87280273 112.25878906 -66.87280273 112.25878906 -68.87670898 113.57519531 C-73.29566716 114.58343218 -77.66618004 114.72993107 -82.18530273 114.88378906 C-85.38217773 115.00753906 -88.57905273 115.13128906 -91.87280273 115.25878906 C-91.87280273 124.82878906 -91.87280273 134.39878906 -91.87280273 144.25878906 C-84.43898625 144.46863202 -84.43898625 144.46863202 -77.00439453 144.64672852 C-76.07796143 144.67984131 -75.15152832 144.7129541 -74.19702148 144.74707031 C-72.77522583 144.78634644 -72.77522583 144.78634644 -71.32470703 144.82641602 C-68.43748759 145.33555329 -67.60137107 145.92926795 -65.87280273 148.25878906 C-64.953125 150.12475586 -64.953125 150.12475586 -64.18920898 152.20800781 C-63.90110352 152.97435547 -63.61299805 153.74070312 -63.31616211 154.53027344 C-63.02547852 155.32755859 -62.73479492 156.12484375 -62.43530273 156.94628906 C-60.46334691 162.29494226 -58.40561768 167.42539913 -55.68969727 172.44555664 C-54.19245421 175.76893505 -53.8614189 178.75311402 -54.87280273 182.25878906 C-56.85663555 185.29872111 -59.27586494 187.73705217 -61.87280273 190.25878906 C-62.54053711 190.938125 -63.20827148 191.61746094 -63.89624023 192.31738281 C-65.5382839 193.98288424 -67.19627683 195.62812556 -68.87280273 197.25878906 C-67.41534849 200.622145 -65.5616242 202.80412911 -62.95874023 205.36816406 C-62.19819336 206.12226563 -61.43764648 206.87636719 -60.65405273 207.65332031 C-59.85999023 208.430625 -59.06592773 209.20792969 -58.24780273 210.00878906 C-57.44600586 210.8015625 -56.64420898 211.59433594 -55.81811523 212.41113281 C-53.84077428 214.364934 -51.85891365 216.31391009 -49.87280273 218.25878906 C-45.07302142 216.08884917 -42.01071414 212.38003968 -38.55834961 208.51464844 C-35.91263367 205.71911074 -34.23038932 204.37550135 -30.49780273 203.15722656 C-25.80306422 203.28876018 -22.77684103 204.77396061 -18.68530273 206.94628906 C-12.59630768 210.01905954 -6.6848226 212.51399666 -0.09545898 214.37207031 C2.12719727 215.25878906 2.12719727 215.25878906 4.12719727 218.25878906 C4.44604492 220.71069336 4.44604492 220.71069336 4.54125977 223.58300781 C4.57687012 224.50944092 4.61248047 225.43587402 4.64916992 226.39038086 C4.68316895 227.56383057 4.71716797 228.73728027 4.75219727 229.94628906 C4.87594727 233.67941406 4.99969727 237.41253906 5.12719727 241.25878906 C14.69719727 241.25878906 24.26719727 241.25878906 34.12719727 241.25878906 C34.33672096 234.57329877 34.33672096 234.57329877 34.51513672 227.88696289 C34.8813705 218.593892 34.8813705 218.593892 38.12719727 215.25878906 C40.86159756 213.78489824 43.69461238 212.76862246 46.62719727 211.75878906 C48.25846854 211.16796564 49.88868329 210.57421691 51.51782227 209.97753906 C52.30866211 209.69007813 53.09950195 209.40261719 53.91430664 209.10644531 C56.82238384 207.99249518 59.59010112 206.64463798 62.37719727 205.25878906 C65.30277006 203.92291108 67.07592109 203.26281072 70.31469727 203.00878906 C77.39854521 206.15716593 82.79263536 212.7741926 88.12719727 218.25878906 C95.28520952 212.43250002 101.65311492 205.82049057 108.12719727 199.25878906 C106.56107533 195.4146716 104.10625605 193.09928698 101.12719727 190.25878906 C94.42886187 183.87200415 94.42886187 183.87200415 93.80297852 178.45019531 C94.19614176 174.58014265 95.56933528 171.60688486 97.31469727 168.19628906 C100.28607273 162.1532099 102.79920731 156.11085675 105.08422852 149.77050781 C106.12719727 147.25878906 106.12719727 147.25878906 108.12719727 145.25878906 C110.55737305 144.93994141 110.55737305 144.93994141 113.57250977 144.84472656 C115.02681396 144.79131104 115.02681396 144.79131104 116.51049805 144.73681641 C117.74525879 144.70281738 118.98001953 144.66881836 120.25219727 144.63378906 C124.17094727 144.51003906 128.08969727 144.38628906 132.12719727 144.25878906 C132.12719727 134.68878906 132.12719727 125.11878906 132.12719727 115.25878906 C125.77074477 115.00990596 125.77074477 115.00990596 119.41357422 114.78076172 C110.53914461 114.38554783 110.53914461 114.38554783 107.12719727 112.25878906 C104.21014933 108.43234968 102.7874833 103.94130972 101.18969727 99.44628906 C99.59238205 95.03346884 98.00558607 90.76366535 95.75219727 86.63378906 C93.96808006 82.92831487 93.2071557 81.2735159 94.12719727 77.25878906 C96.17429602 74.30255582 98.59620987 71.80396891 101.12719727 69.25878906 C101.8684082 68.50339844 102.60961914 67.74800781 103.37329102 66.96972656 C105.2761507 65.04990734 107.19340535 63.14737545 109.12719727 61.25878906 C104.88903189 56.19255138 100.45310764 51.45840838 95.75219727 46.82128906 C95.1115332 46.18513672 94.47086914 45.54898438 93.81079102 44.89355469 C92.25188847 43.34628574 90.6906831 41.80142414 89.12719727 40.25878906 C84.79379766 43.90908003 80.69376507 47.62023034 76.80297852 51.74316406 C74.89017534 53.47315854 73.59018772 54.447857 71.12719727 55.25878906 C65.79755138 54.98725497 61.57506718 53.31991067 56.87719727 50.94628906 C51.45270263 48.28269192 46.1143558 46.08531748 40.29907227 44.37597656 C37.1769589 42.76999738 36.46140425 41.53366074 35.12719727 38.25878906 C34.63746575 34.65655815 34.52573342 31.07790569 34.43969727 27.44628906 C34.33657227 24.08441406 34.23344727 20.72253906 34.12719727 17.25878906 C24.55719727 17.25878906 14.98719727 17.25878906 5.12719727 17.25878906 Z " fill="#000000" transform="translate(363.872802734375,247.7412109375)"/>
<path d="M0 0 C1.88513099 2.12005612 2.28065502 3.41155324 2.66015625 6.2578125 C2.28515625 9.4453125 2.28515625 9.4453125 0.16015625 12.3203125 C-3.35745416 14.92028541 -4.4181657 14.99552738 -8.71484375 14.4453125 C-11.71293516 13.09848448 -14.47194668 11.40122062 -17.27734375 9.6953125 C-33.14527107 0.52028639 -49.5785788 -3.03880686 -67.71484375 1.4453125 C-85.64784738 7.01144898 -99.58499586 17.1112625 -108.76025391 33.57519531 C-116.91913722 49.55909459 -118.31831018 67.85324741 -113.02734375 84.95703125 C-106.88156992 101.29088849 -96.06542735 114.30563369 -80.328125 122.12890625 C-63.15158008 129.87227839 -45.49078245 130.90342757 -27.71484375 124.4453125 C-18.69025979 120.6046406 -11.58064924 115.39618107 -4.71484375 108.4453125 C-4.07933594 107.83171875 -3.44382812 107.218125 -2.7890625 106.5859375 C9.09246817 94.25654425 12.76686197 77.90424788 12.71386719 61.31982422 C12.48590853 52.39572428 10.80721009 44.32454014 6.671875 36.32421875 C4.70759233 32.24625727 4.85097815 29.93181957 5.28515625 25.4453125 C6.34765625 23.0078125 6.34765625 23.0078125 8.28515625 21.4453125 C12.01697108 20.40869727 14.24453121 19.9771114 17.8203125 21.5859375 C25.36211008 27.27515406 28.40910259 41.10159225 29.97167969 50.06542969 C33.28831953 75.24502875 26.81569277 97.74046152 11.44921875 117.84765625 C-2.47413387 134.56155423 -22.39026123 143.80840176 -43.71484375 146.4453125 C-65.99856188 147.68329684 -88.05934442 142.01658683 -105.02734375 126.9453125 C-106.5985445 125.45442872 -108.16178242 123.95508293 -109.71484375 122.4453125 C-110.35164063 121.87039063 -110.9884375 121.29546875 -111.64453125 120.703125 C-125.36232037 107.96082311 -133.06832083 87.93884023 -134.0625 69.44140625 C-134.78154633 44.76515077 -126.9977618 23.27854484 -110.02734375 5.1953125 C-81.4833011 -22.06336177 -30.18370788 -28.52526239 0 0 Z " fill="#000000" transform="translate(265.71484375,158.5546875)"/>
<path d="M0 0 C0.85078125 0.65355469 1.7015625 1.30710937 2.578125 1.98046875 C13.68203403 11.23969612 22.35338113 27.62805474 24 42 C25.58918379 64.39798353 21.38321376 83.08632697 6.3671875 100.50390625 C-5.93869345 113.47990943 -22.63763962 121.15990693 -40.47265625 122.203125 C-59.14917459 122.44699684 -74.38644138 117.61235385 -89 106 C-90.24330078 105.06607422 -90.24330078 105.06607422 -91.51171875 104.11328125 C-102.23434016 95.0066279 -110.66502434 79.88925681 -112.7890625 65.94140625 C-114.21933606 45.99703599 -112.4523288 26.55297537 -99.27734375 10.52734375 C-96.65720148 7.53360792 -93.86422752 4.75975722 -91 2 C-90.44054687 1.40960938 -89.88109375 0.81921875 -89.3046875 0.2109375 C-65.16187315 -23.42626817 -24.65605536 -19.5924105 0 0 Z M-84 19 C-94.77923055 32.26129021 -97.25821971 46.41469608 -96 63 C-93.59993891 76.05575401 -85.40590801 88.05099121 -74.62109375 95.68359375 C-61.83232089 103.7090991 -49.05372195 106.72875749 -34.03125 104.57421875 C-20.36219718 101.29766638 -8.90312683 93.54781692 -0.93359375 82.0078125 C6.82029161 69.28431794 9.69022568 56.65450635 6.71484375 41.8359375 C3.31942399 28.3655837 -4.739237 17.152158 -16 9 C-39.52002492 -4.33373675 -65.29053029 -0.79646355 -84 19 Z " fill="#000000" transform="translate(427,324)"/>
<path d="M0 0 C9.30609206 6.54938177 15.32073464 15.22277716 17.44140625 26.4375 C18.93410893 36.84956189 16.69694151 47.11696195 10.41015625 55.6171875 C9.86488281 56.28621094 9.31960938 56.95523438 8.7578125 57.64453125 C8.24347656 58.28261719 7.72914063 58.92070312 7.19921875 59.578125 C1.47478955 65.96148131 -7.27367639 70.266081 -15.83203125 70.91796875 C-27.9937019 71.32481246 -36.97488188 69.49986443 -46.6171875 61.51953125 C-55.1145917 53.26803264 -59.03390218 43.69192486 -59.3046875 31.9296875 C-58.82244807 21.42590981 -54.75833289 12.17935882 -47.484375 4.6171875 C-34.08943843 -7.16755635 -15.41387473 -9.31814378 0 0 Z M-37.0546875 18.39453125 C-41.24142042 24.61482017 -42.94991424 29.64428795 -41.8828125 37.18359375 C-40.26763028 43.38825715 -36.60078116 48.16144537 -31.2421875 51.64453125 C-25.38353004 54.36216059 -19.20261056 54.77704949 -12.9609375 52.9921875 C-6.82520211 50.24290606 -2.69692565 45.75238093 0.1328125 39.70703125 C1.55189642 32.75352002 1.17645871 27.9120493 -2.2421875 21.64453125 C-5.75679363 16.50042592 -9.08971227 13.3591555 -15.2421875 11.64453125 C-24.23065028 10.56806864 -30.55433765 12.03863362 -37.0546875 18.39453125 Z " fill="#000000" transform="translate(403.2421875,344.35546875)"/>
</svg>
